<svg width="64" height="64" viewBox="0 0 64 64" fill="none" xmlns="http://www.w3.org/2000/svg">
<g clip-path="url(#clip0_1117_260)">
<path d="M53.3823 13.2406C53.0158 10.2141 51.7034 7.38039 49.6322 5.14328C47.5611 2.90617 44.8367 1.37976 41.8473 0.781511C38.8579 0.183265 35.7559 0.543701 32.9834 1.81147C30.2108 3.07923 27.909 5.18966 26.406 7.84208C21.6475 9.33596 17.3675 12.0591 13.9982 15.7365C10.629 19.4139 8.28989 23.9153 7.21712 28.7861C4.56904 30.4688 2.53882 32.9658 1.43177 35.9015C0.324715 38.8372 0.20066 42.053 1.07826 45.0653C1.95586 48.0775 3.78767 50.7235 6.29825 52.6052C8.80883 54.487 11.8625 55.5028 15 55.5C15.07 55.5 15.1376 55.4905 15.2074 55.4895C20.5047 60.6435 27.6092 63.5189 35 63.5C35.3978 63.5 35.7793 63.342 36.0606 63.0607C36.3419 62.7794 36.5 62.3978 36.5 62C36.5 61.6022 36.3419 61.2206 36.0606 60.9393C35.7793 60.658 35.3978 60.5 35 60.5C29.2073 60.5154 23.5851 58.5409 19.0741 54.907C20.1936 54.5768 21.2688 54.1118 22.276 53.5222C24.884 55.3167 27.8399 56.5435 30.9521 57.1231C31.3435 57.1951 31.7474 57.1087 32.075 56.8829C32.4027 56.657 32.6272 56.3103 32.6992 55.919C32.7712 55.5276 32.6848 55.1237 32.459 54.7961C32.2332 54.4684 31.8865 54.2439 31.4951 54.1719C29.1407 53.7336 26.8868 52.8666 24.8456 51.6141C26.8378 49.7756 28.2732 47.4143 28.988 44.7993C29.7029 42.1844 29.6685 39.4212 28.8887 36.8249C28.109 34.2285 26.6152 31.9036 24.5779 30.1153C22.5405 28.327 20.0416 27.1472 17.3661 26.7106C19.0134 23.2497 21.6334 20.3437 24.9058 18.3481C25.5416 21.0472 26.9396 23.5067 28.9334 25.434C30.9271 27.3612 33.4327 28.675 36.1518 29.2189C38.8709 29.7628 41.689 29.5139 44.2707 28.5019C46.8524 27.4899 49.0889 25.7573 50.714 23.5105C52.4572 25.8757 53.6406 28.6059 54.1748 31.4951C54.247 31.886 54.4714 32.2323 54.7987 32.4579C55.126 32.6835 55.5295 32.7699 55.9205 32.6982C56.3115 32.6266 56.6581 32.4026 56.8841 32.0756C57.1101 31.7486 57.1971 31.3452 57.126 30.9541C56.4287 27.1832 54.7767 23.6538 52.3276 20.7029C52.7958 19.6003 53.1244 18.4435 53.3058 17.2594C57.9286 22.0065 60.5107 28.3739 60.5 35C60.5 35.3978 60.658 35.7793 60.9393 36.0606C61.2206 36.342 61.6021 36.5 62 36.5C62.3978 36.5 62.7793 36.342 63.0606 36.0606C63.3419 35.7793 63.5 35.3978 63.5 35C63.5056 30.8541 62.6026 26.7574 60.8546 22.9981C59.1066 19.2388 56.556 15.9082 53.3823 13.2406ZM11 39.1338C11 38.3427 11.2346 37.5693 11.6741 36.9115C12.1136 36.2537 12.7383 35.741 13.4692 35.4383C14.2001 35.1355 15.0044 35.0563 15.7803 35.2106C16.5563 35.365 17.269 35.7459 17.8284 36.3053C18.3878 36.8648 18.7688 37.5775 18.9231 38.3534C19.0775 39.1293 18.9982 39.9336 18.6955 40.6645C18.3927 41.3954 17.8801 42.0201 17.2223 42.4597C16.5645 42.8992 15.7911 43.1338 15 43.1338C13.9395 43.1326 12.9227 42.7109 12.1728 41.961C11.4229 41.2111 11.0011 40.1943 11 39.1338ZM15 52.5C12.6542 52.5009 10.365 51.7799 8.44321 50.4349C8.9981 49.157 9.9143 48.0691 11.0792 47.305C12.2441 46.5409 13.6068 46.1338 15 46.1338C16.3931 46.1338 17.7559 46.5409 18.9208 47.305C20.0856 48.0691 21.0018 49.157 21.5567 50.4349C19.6349 51.7799 17.3457 52.5009 15 52.5ZM26.5 41C26.5024 43.6736 25.5689 46.2638 23.8613 48.3211C22.8926 46.6087 21.4504 45.2121 19.7078 44.2989C20.7535 43.3486 21.4871 42.1041 21.8122 40.7291C22.1373 39.354 22.0386 37.9128 21.5292 36.5949C21.0199 35.2769 20.1235 34.144 18.9582 33.345C17.7928 32.5461 16.4129 32.1185 15 32.1185C13.587 32.1185 12.2071 32.5461 11.0418 33.345C9.8764 34.144 8.9801 35.2769 8.4707 36.5949C7.96131 37.9128 7.86268 39.354 8.18778 40.7291C8.51288 42.1041 9.24649 43.3486 10.2922 44.2989C8.54952 45.2121 7.10735 46.6087 6.13864 48.3211C4.96361 46.8989 4.14803 45.2149 3.76078 43.4112C3.37352 41.6076 3.42596 39.7372 3.91366 37.958C4.40136 36.1789 5.31001 34.5432 6.56287 33.1891C7.81574 31.835 9.37603 30.8023 11.112 30.1781C12.848 29.5539 14.7087 29.3566 16.5369 29.6028C18.3652 29.8491 20.1074 30.5316 21.6164 31.5928C23.1254 32.6541 24.3569 34.0628 25.2068 35.7001C26.0568 37.3374 26.5003 39.1552 26.5 41ZM14.1935 26.5409C13.0322 26.5997 11.8822 26.7987 10.7687 27.1335C11.8769 23.6792 13.7142 20.5032 16.1562 17.8205C18.5982 15.1379 21.5881 13.011 24.9233 11.584C24.6314 12.7501 24.4917 13.949 24.5076 15.1509C19.8484 17.6311 16.2007 21.6593 14.1935 26.5409ZM27.5 15C27.4985 13.1543 27.9414 11.3353 28.7911 9.69681C29.6408 8.05831 30.8724 6.64841 32.3819 5.58622C33.8913 4.52403 35.6343 3.84077 37.4634 3.59416C39.2926 3.34755 41.1543 3.54484 42.8911 4.16936C44.628 4.79388 46.189 5.82728 47.4423 7.18225C48.6956 8.53722 49.6043 10.174 50.0917 11.9542C50.5792 13.7344 50.6309 15.6057 50.2427 17.4101C49.8544 19.2146 49.0375 20.899 47.8611 22.3212C46.8925 20.6087 45.4503 19.2121 43.7076 18.2989C44.7533 17.3486 45.487 16.1041 45.8121 14.7291C46.1373 13.354 46.0387 11.9128 45.5293 10.5948C45.0199 9.27685 44.1236 8.14389 42.9582 7.3449C41.7928 6.54592 40.4129 6.11831 39 6.11831C37.587 6.11831 36.2071 6.54592 35.0417 7.3449C33.8763 8.14389 32.98 9.27685 32.4707 10.5948C31.9613 11.9128 31.8627 13.354 32.1878 14.7291C32.513 16.1041 33.2466 17.3486 34.2923 18.2989C32.5497 19.2121 31.1074 20.6087 30.1386 22.3211C28.4373 20.2602 27.5046 17.6724 27.5 15ZM35 13.1338C35 12.3426 35.2346 11.5693 35.6741 10.9115C36.1136 10.2537 36.7383 9.741 37.4692 9.43825C38.2001 9.1355 39.0044 9.05629 39.7803 9.21063C40.5563 9.36497 41.269 9.74593 41.8284 10.3053C42.3878 10.8648 42.7688 11.5775 42.9231 12.3534C43.0775 13.1293 42.9982 13.9336 42.6955 14.6645C42.3927 15.3954 41.8801 16.0201 41.2223 16.4596C40.5645 16.8992 39.7911 17.1338 39 17.1338C37.9394 17.1327 36.9226 16.7109 36.1727 15.961C35.4228 15.2111 35.001 14.1943 35 13.1338ZM32.4432 24.4349C32.9981 23.157 33.9143 22.0691 35.0792 21.305C36.2441 20.5408 37.6069 20.1337 39 20.1337C40.3932 20.1337 41.756 20.5407 42.9209 21.3048C44.0858 22.0689 45.002 23.1568 45.557 24.4346C43.6348 25.7789 41.3458 26.4999 39.0002 26.5C36.6545 26.5 34.3655 25.7791 32.4433 24.4349H32.4432Z" fill="#849592"/>
<path d="M49 51.1338C51.2091 51.1338 53 49.3429 53 47.1338C53 44.9246 51.2091 43.1338 49 43.1338C46.7909 43.1338 45 44.9246 45 47.1338C45 49.3429 46.7909 51.1338 49 51.1338Z" fill="#76B95B"/>
<path d="M49 34.5C46.1322 34.5 43.3288 35.3504 40.9442 36.9437C38.5597 38.537 36.7012 40.8016 35.6038 43.4511C34.5063 46.1006 34.2191 49.0161 34.7786 51.8288C35.3381 54.6415 36.7191 57.2252 38.747 59.253C40.7748 61.2809 43.3585 62.6619 46.1712 63.2214C48.9839 63.7809 51.8994 63.4937 54.5489 62.3962C57.1985 61.2988 59.463 59.4403 61.0563 57.0558C62.6496 54.6712 63.5 51.8678 63.5 49C63.4956 45.1557 61.9665 41.4701 59.2482 38.7518C56.5299 36.0335 52.8443 34.5044 49 34.5ZM57.2715 58.3018C56.9262 58.4992 56.5167 58.5516 56.1328 58.4472C55.749 58.3428 55.4223 58.0903 55.2246 57.7451C54.5974 56.648 53.6913 55.7362 52.5982 55.102C51.5051 54.4678 50.2638 54.1338 49 54.1338C47.7363 54.1338 46.4949 54.4678 45.4018 55.102C44.3087 55.7362 43.4027 56.648 42.7754 57.7451C42.5778 58.0904 42.2511 58.343 41.8672 58.4473C41.4834 58.5517 41.0738 58.4994 40.7285 58.3017C40.3833 58.1041 40.1307 57.7775 40.0263 57.3936C39.9219 57.0097 39.9743 56.6001 40.1719 56.2549C41.1439 54.5719 42.5779 53.2027 44.3041 52.3095C43.2552 51.3607 42.5184 50.1165 42.1906 48.7406C41.8628 47.3648 41.9595 45.922 42.4678 44.6022C42.9762 43.2824 43.8725 42.1476 45.0385 41.3472C46.2045 40.5468 47.5857 40.1183 49 40.1183C50.4143 40.1183 51.7955 40.5468 52.9615 41.3472C54.1276 42.1476 55.0238 43.2824 55.5322 44.6022C56.0406 45.922 56.1372 47.3648 55.8094 48.7406C55.4816 50.1165 54.7448 51.3607 53.6959 52.3095C55.4221 53.2027 56.8561 54.5719 57.8281 56.2549C57.926 56.4258 57.9892 56.6144 58.0142 56.8097C58.0392 57.0051 58.0255 57.2035 57.9738 57.3936C57.9221 57.5837 57.8335 57.7617 57.713 57.9175C57.5925 58.0734 57.4425 58.2039 57.2715 58.3018Z" fill="#76B95B"/>
</g>
<defs>
<clipPath id="clip0_1117_260">
<rect width="64" height="64" fill="white"/>
</clipPath>
</defs>
</svg>
