<svg width="64" height="64" viewBox="0 0 64 64" fill="none" xmlns="http://www.w3.org/2000/svg">
<g clip-path="url(#clip0_1117_264)">
<path d="M32 15.5C28.7366 15.5 25.5465 16.4677 22.8331 18.2808C20.1197 20.0938 18.0048 22.6707 16.756 25.6857C15.5071 28.7007 15.1804 32.0183 15.8171 35.219C16.4537 38.4197 18.0252 41.3597 20.3327 43.6673C22.6403 45.9748 25.5803 47.5463 28.781 48.183C31.9817 48.8196 35.2993 48.4929 38.3143 47.244C41.3293 45.9952 43.9062 43.8803 45.7193 41.1669C47.5323 38.4535 48.5 35.2634 48.5 32C48.495 27.6255 46.755 23.4316 43.6617 20.3383C40.5685 17.245 36.3745 15.505 32 15.5ZM43 33.5C42.6022 33.5 42.2207 33.3419 41.9394 33.0606C41.6581 32.7793 41.5 32.3978 41.5 32C41.4971 29.4813 40.4953 27.0666 38.7144 25.2856C36.9334 23.5047 34.5187 22.5029 32 22.5C31.6022 22.5 31.2207 22.342 30.9393 22.0607C30.658 21.7794 30.5 21.3978 30.5 21C30.5 20.6022 30.658 20.2206 30.9393 19.9393C31.2207 19.658 31.6022 19.5 32 19.5C35.3141 19.5037 38.4913 20.8219 40.8347 23.1653C43.1781 25.5087 44.4963 28.6859 44.5 32C44.5 32.3978 44.3419 32.7793 44.0606 33.0606C43.7793 33.3419 43.3978 33.5 43 33.5Z" fill="#76B95B"/>
<path d="M31.9995 0.500014C30.939 0.497376 29.9118 0.870318 29.1 1.55273C28.2882 2.23515 27.7442 3.18296 27.5645 4.22816C27.3847 5.27336 27.5809 6.34843 28.1181 7.26281C28.6554 8.1772 29.499 8.87183 30.4995 9.22359V11C30.4995 11.3978 30.6576 11.7794 30.9389 12.0607C31.2202 12.342 31.6017 12.5 31.9995 12.5C32.3974 12.5 32.7789 12.342 33.0602 12.0607C33.3415 11.7794 33.4995 11.3978 33.4995 11V9.22359C34.5 8.87183 35.3437 8.1772 35.8809 7.26281C36.4182 6.34843 36.6143 5.27336 36.4346 4.22816C36.2549 3.18296 35.7109 2.23515 34.8991 1.55273C34.0873 0.870318 33.0601 0.497376 31.9995 0.500014ZM31.9995 6.50002C31.7029 6.50002 31.4129 6.41204 31.1662 6.24722C30.9195 6.0824 30.7272 5.84813 30.6137 5.57404C30.5002 5.29995 30.4705 4.99835 30.5284 4.70738C30.5862 4.41641 30.7291 4.14913 30.9389 3.93935C31.1487 3.72958 31.4159 3.58671 31.7069 3.52884C31.9979 3.47096 32.2995 3.50066 32.5736 3.6142C32.8476 3.72773 33.0819 3.91999 33.2467 4.16666C33.4116 4.41333 33.4995 4.70334 33.4995 5.00001C33.4991 5.39771 33.3409 5.77899 33.0597 6.0602C32.7785 6.34141 32.3972 6.49958 31.9995 6.50002Z" fill="#849592"/>
<path d="M58.9995 27.5C58.072 27.5029 57.168 27.7928 56.4118 28.3299C55.6556 28.8671 55.0841 29.6251 54.776 30.5H52.9995C52.6017 30.5 52.2202 30.658 51.9389 30.9394C51.6576 31.2207 51.4995 31.6022 51.4995 32C51.4995 32.3978 51.6576 32.7794 51.9389 33.0607C52.2202 33.342 52.6017 33.5 52.9995 33.5H54.776C55.0524 34.2756 55.5366 34.9604 56.1759 35.4794C56.8151 35.9984 57.5847 36.3318 58.4005 36.443C59.2164 36.5543 60.0471 36.4391 60.802 36.1102C61.5568 35.7812 62.2068 35.2512 62.6807 34.5778C63.1547 33.9045 63.4345 33.1139 63.4895 32.2923C63.5445 31.4708 63.3727 30.6499 62.9927 29.9194C62.6128 29.1888 62.0394 28.5768 61.3352 28.1501C60.6309 27.7235 59.8229 27.4986 58.9995 27.5ZM58.9995 33.5C58.7029 33.5 58.4129 33.412 58.1662 33.2472C57.9195 33.0824 57.7273 32.8481 57.6137 32.574C57.5002 32.2999 57.4705 31.9983 57.5284 31.7074C57.5862 31.4164 57.7291 31.1491 57.9389 30.9394C58.1487 30.7296 58.4159 30.5867 58.7069 30.5288C58.9979 30.471 59.2995 30.5007 59.5736 30.6142C59.8477 30.7277 60.0819 30.92 60.2467 31.1667C60.4116 31.4133 60.4995 31.7033 60.4995 32C60.4991 32.3977 60.3409 32.779 60.0597 33.0602C59.7785 33.3414 59.3972 33.4996 58.9995 33.5Z" fill="#849592"/>
<path d="M33.4995 54.7764V53C33.4995 52.6022 33.3415 52.2207 33.0602 51.9394C32.7789 51.6581 32.3974 51.5 31.9995 51.5C31.6017 51.5 31.2202 51.6581 30.9389 51.9394C30.6576 52.2207 30.4995 52.6022 30.4995 53V54.7764C29.4987 55.1303 28.6552 55.8265 28.1181 56.7422C27.581 57.6578 27.3848 58.7338 27.5643 59.78C27.7439 60.8263 28.2874 61.7754 29.0991 62.4596C29.9107 63.1438 30.938 63.5191 31.9995 63.5191C33.0611 63.5191 34.0884 63.1438 34.9 62.4596C35.7116 61.7754 36.2552 60.8263 36.4347 59.78C36.6142 58.7338 36.4181 57.6578 35.881 56.7422C35.3439 55.8265 34.5004 55.1303 33.4995 54.7764ZM31.9995 60.5C31.7029 60.5 31.4129 60.412 31.1662 60.2472C30.9195 60.0824 30.7273 59.8481 30.6137 59.574C30.5002 59.2999 30.4705 58.9983 30.5284 58.7074C30.5862 58.4164 30.7291 58.1491 30.9389 57.9394C31.1487 57.7296 31.4159 57.5867 31.7069 57.5288C31.9979 57.471 32.2995 57.5007 32.5736 57.6142C32.8477 57.7277 33.0819 57.92 33.2467 58.1667C33.4116 58.4133 33.4995 58.7033 33.4995 59C33.4991 59.3977 33.3409 59.779 33.0597 60.0602C32.7785 60.3414 32.3972 60.4996 31.9995 60.5Z" fill="#849592"/>
<path d="M9.22311 33.5H10.9995C11.3974 33.5 11.7789 33.342 12.0602 33.0607C12.3415 32.7794 12.4995 32.3978 12.4995 32C12.4995 31.6022 12.3415 31.2207 12.0602 30.9394C11.7789 30.6581 11.3974 30.5 10.9995 30.5H9.22311C8.86927 29.4992 8.17301 28.6557 7.25739 28.1186C6.34177 27.5815 5.26575 27.3853 4.21951 27.5648C3.17327 27.7443 2.22416 28.2879 1.53995 29.0995C0.855739 29.9111 0.480469 30.9385 0.480469 32C0.480469 33.0616 0.855739 34.0889 1.53995 34.9005C2.22416 35.7121 3.17327 36.2557 4.21951 36.4352C5.26575 36.6147 6.34177 36.4186 7.25739 35.8815C8.17301 35.3443 8.86927 34.5008 9.22311 33.5ZM3.49954 32C3.49954 31.7033 3.58751 31.4133 3.75234 31.1667C3.91716 30.92 4.15143 30.7277 4.42551 30.6142C4.6996 30.5007 5.0012 30.471 5.29217 30.5288C5.58315 30.5867 5.85042 30.7296 6.0602 30.9394C6.26998 31.1491 6.41284 31.4164 6.47072 31.7074C6.5286 31.9984 6.49889 32.3 6.38536 32.574C6.27183 32.8481 6.07957 33.0824 5.83289 33.2472C5.58622 33.412 5.29621 33.5 4.99954 33.5C4.60185 33.4996 4.22057 33.3414 3.93936 33.0602C3.65815 32.779 3.49997 32.3977 3.49954 32Z" fill="#849592"/>
<path d="M48.0601 18.0606L50.6206 15.5H57.9995C58.3974 15.5 58.7789 15.342 59.0602 15.0607C59.3415 14.7794 59.4995 14.3978 59.4995 14V6.00001C59.4995 5.6022 59.3415 5.22068 59.0602 4.93938C58.7789 4.65808 58.3974 4.50003 57.9995 4.50001H49.9995C49.6017 4.50003 49.2202 4.65808 48.9389 4.93938C48.6576 5.22068 48.4996 5.6022 48.4995 6.00001V13.3789L45.939 15.9395C45.6577 16.2207 45.4997 16.6022 45.4997 17C45.4997 17.3978 45.6577 17.7793 45.939 18.0606C46.2203 18.3418 46.6018 18.4999 46.9995 18.4999C47.3973 18.4999 47.7788 18.3418 48.0601 18.0606ZM51.4995 7.50001H56.4995V12.5H51.4995V7.50001Z" fill="#849592"/>
<path d="M15.4995 13.3789V6.00001C15.4995 5.6022 15.3415 5.22068 15.0602 4.93938C14.7789 4.65808 14.3974 4.50003 13.9995 4.50001H5.99954C5.60172 4.50003 5.2202 4.65808 4.9389 4.93938C4.6576 5.22068 4.49956 5.6022 4.49954 6.00001V14C4.49956 14.3978 4.6576 14.7794 4.9389 15.0607C5.2202 15.342 5.60172 15.5 5.99954 15.5H13.3784L15.939 18.0606C16.2203 18.3418 16.6018 18.4999 16.9995 18.4999C17.3973 18.4999 17.7788 18.3418 18.0601 18.0606C18.3414 17.7793 18.4994 17.3978 18.4994 17C18.4994 16.6022 18.3414 16.2207 18.0601 15.9395L15.4995 13.3789ZM7.49954 7.50001H12.4995V12.5H7.49954V7.50001Z" fill="#849592"/>
<path d="M15.939 45.9395L13.3784 48.5H5.99954C5.60172 48.5 5.2202 48.6581 4.9389 48.9394C4.6576 49.2207 4.49956 49.6022 4.49954 50V58C4.49956 58.3978 4.6576 58.7794 4.9389 59.0607C5.2202 59.342 5.60172 59.5 5.99954 59.5H13.9995C14.3974 59.5 14.7789 59.342 15.0602 59.0607C15.3415 58.7794 15.4995 58.3978 15.4995 58V50.6211L18.0601 48.0606C18.3414 47.7793 18.4994 47.3978 18.4994 47C18.4994 46.6022 18.3414 46.2207 18.0601 45.9395C17.7788 45.6582 17.3973 45.5002 16.9995 45.5002C16.6018 45.5002 16.2203 45.6582 15.939 45.9395ZM12.4995 56.5H7.49954V51.5H12.4995V56.5Z" fill="#849592"/>
<path d="M57.9995 48.5H50.6206L48.0601 45.9395C47.7788 45.6582 47.3973 45.5002 46.9995 45.5002C46.6018 45.5002 46.2203 45.6582 45.939 45.9395C45.6577 46.2207 45.4997 46.6022 45.4997 47C45.4997 47.3978 45.6577 47.7793 45.939 48.0606L48.4995 50.6211V58C48.4996 58.3978 48.6576 58.7794 48.9389 59.0607C49.2202 59.342 49.6017 59.5 49.9995 59.5H57.9995C58.3974 59.5 58.7789 59.342 59.0602 59.0607C59.3415 58.7794 59.4995 58.3978 59.4995 58V50C59.4995 49.6022 59.3415 49.2207 59.0602 48.9394C58.7789 48.6581 58.3974 48.5 57.9995 48.5ZM56.4995 56.5H51.4995V51.5H56.4995V56.5Z" fill="#849592"/>
</g>
<defs>
<clipPath id="clip0_1117_264">
<rect width="64" height="64" fill="white"/>
</clipPath>
</defs>
</svg>
