<svg width="64" height="64" viewBox="0 0 64 64" fill="none" xmlns="http://www.w3.org/2000/svg">
<g clip-path="url(#clip0_1117_275)">
<path d="M33.4253 12.252L32.0005 9.36621L30.5767 12.252C30.4689 12.4699 30.3098 12.6584 30.113 12.8013C29.9163 12.9442 29.6879 13.0372 29.4473 13.0723L26.2627 13.5352L28.5669 15.7813C28.7411 15.9511 28.8715 16.1607 28.9466 16.3921C29.0218 16.6235 29.0397 16.8696 28.9985 17.1094L28.4546 20.2803L31.3027 18.7833C31.518 18.6704 31.7574 18.6114 32.0005 18.6114C32.2435 18.6114 32.483 18.6704 32.6982 18.7833L35.5464 20.2803L35.0024 17.1094C34.9614 16.8696 34.9792 16.6235 35.0544 16.3921C35.1296 16.1608 35.2599 15.9512 35.434 15.7813L37.7377 13.5352L34.5541 13.0723C34.3136 13.0373 34.0851 12.9444 33.8885 12.8015C33.6918 12.6586 33.5329 12.47 33.4253 12.252Z" fill="#76B95B"/>
<path d="M32 0.5C29.1322 0.5 26.3287 1.35041 23.9442 2.94369C21.5597 4.53697 19.7012 6.80156 18.6038 9.45109C17.5063 12.1006 17.2191 15.0161 17.7786 17.8288C18.3381 20.6415 19.7191 23.2252 21.747 25.253C23.7748 27.2809 26.3585 28.6619 29.1712 29.2214C31.9839 29.7809 34.8994 29.4937 37.5489 28.3963C40.1984 27.2988 42.463 25.4403 44.0563 23.0558C45.6496 20.6713 46.5 17.8678 46.5 15C46.4956 11.1557 44.9665 7.47015 42.2482 4.75183C39.5299 2.03351 35.8443 0.504417 32 0.5ZM42.0078 13.5625L38.0918 17.3789L39.0166 22.7686C39.0635 23.0444 39.0324 23.3278 38.9268 23.5869C38.8213 23.846 38.6454 24.0704 38.4191 24.2349C38.1928 24.3994 37.925 24.4974 37.6459 24.5178C37.3669 24.5383 37.0877 24.4803 36.8399 24.3505L32 21.8057L27.1597 24.3506C26.9118 24.4803 26.6327 24.5382 26.3537 24.5178C26.0747 24.4973 25.807 24.3993 25.5807 24.2348C25.3544 24.0703 25.1786 23.8459 25.0731 23.5868C24.9675 23.3278 24.9365 23.0444 24.9834 22.7686L25.9077 17.379L21.9922 13.5625C21.7921 13.367 21.6506 13.1195 21.5837 12.8479C21.5168 12.5763 21.5272 12.2913 21.6136 12.0253C21.7 11.7592 21.859 11.5226 22.0728 11.3421C22.2865 11.1617 22.5464 11.0445 22.8232 11.0039L28.2348 10.2168L30.6547 5.31348C30.7786 5.06256 30.9703 4.85131 31.2079 4.70359C31.4456 4.55588 31.7199 4.4776 31.9997 4.4776C32.2796 4.4776 32.5538 4.55588 32.7915 4.70359C33.0292 4.85131 33.2208 5.06256 33.3447 5.31348L35.7656 10.2168L41.1767 11.0039C41.4535 11.0445 41.7134 11.1616 41.9272 11.3421C42.141 11.5226 42.3 11.7592 42.3864 12.0252C42.4729 12.2913 42.4832 12.5762 42.4163 12.8479C42.3494 13.1195 42.2079 13.367 42.0078 13.5625Z" fill="#76B95B"/>
<path d="M54 8.5H53.5V7C53.4987 5.80692 53.0242 4.66309 52.1805 3.81945C51.3369 2.97582 50.1931 2.5013 49 2.5H46C45.6022 2.5 45.2206 2.65804 44.9393 2.93934C44.658 3.22064 44.5 3.60218 44.5 4C44.5 4.39782 44.658 4.77936 44.9393 5.06066C45.2206 5.34196 45.6022 5.5 46 5.5H49C49.3977 5.50043 49.779 5.65861 50.0602 5.93982C50.3414 6.22103 50.4996 6.60231 50.5 7V26C50.5 28.4864 49.9989 30.9473 49.0264 33.2357C48.054 35.5241 46.6302 37.593 44.8403 39.3187C43.0503 41.0445 40.9308 42.3917 38.6084 43.2799C36.2861 44.1682 33.8085 44.5791 31.3237 44.4883C21.4956 44.1387 13.5 35.6299 13.5 25.5205V7C13.5004 6.60231 13.6586 6.22103 13.9398 5.93982C14.221 5.65861 14.6023 5.50043 15 5.5H18C18.3978 5.5 18.7794 5.34196 19.0607 5.06066C19.342 4.77936 19.5 4.39782 19.5 4C19.5 3.60218 19.342 3.22064 19.0607 2.93934C18.7794 2.65804 18.3978 2.5 18 2.5H15C13.8069 2.5013 12.6631 2.97582 11.8195 3.81945C10.9758 4.66309 10.5013 5.80692 10.5 7V8.5H10C7.48044 8.5 5.06408 9.50089 3.28249 11.2825C1.50089 13.0641 0.5 15.4804 0.5 18C0.5 20.5196 1.50089 22.9359 3.28249 24.7175C5.06408 26.4991 7.48044 27.5 10 27.5H10.5977C10.9955 31.8707 12.6853 36.0242 15.4517 39.4313C18.2182 42.8384 21.9362 45.3449 26.1321 46.6317L22.9847 54.5H22C20.0115 54.5022 18.1051 55.293 16.6991 56.6991C15.293 58.1051 14.5022 60.0115 14.5 62C14.5 62.3978 14.6581 62.7793 14.9394 63.0606C15.2207 63.3419 15.6022 63.5 16 63.5H48C48.3978 63.4999 48.7793 63.3418 49.0606 63.0606C49.3418 62.7793 49.4999 62.3978 49.5 62C49.4978 60.0115 48.707 58.1051 47.3009 56.6991C45.8949 55.293 43.9885 54.5022 42 54.5H41.0153L37.8873 46.68C42.1369 45.4719 45.9099 42.9812 48.6909 39.5484C51.472 36.1155 53.1255 31.9078 53.4255 27.5H54C56.5196 27.5 58.9359 26.4991 60.7175 24.7175C62.4991 22.9359 63.5 20.5196 63.5 18C63.5 15.4804 62.4991 13.0641 60.7175 11.2825C58.9359 9.50089 56.5196 8.5 54 8.5ZM3.5 18C3.50199 16.2767 4.18745 14.6246 5.40601 13.406C6.62456 12.1875 8.2767 11.502 10 11.5H10.5V24.5H10C8.2767 24.498 6.62456 23.8125 5.40601 22.594C4.18745 21.3754 3.50199 19.7233 3.5 18ZM46.2432 60.5H17.7568C18.0681 59.6232 18.643 58.8642 19.4027 58.3271C20.1624 57.79 21.0696 57.5011 22 57.5H42C42.9304 57.501 43.8377 57.7899 44.5974 58.327C45.3571 58.8641 45.932 59.6232 46.2432 60.5ZM37.7848 54.5H26.2152L29.0953 47.3C29.7989 47.3988 30.5072 47.461 31.2173 47.4863C32.448 47.5287 33.68 47.4614 34.8987 47.285L37.7848 54.5ZM54 24.5H53.5V11.5H54C55.7239 11.5 57.3772 12.1848 58.5962 13.4038C59.8152 14.6228 60.5 16.2761 60.5 18C60.5 19.7239 59.8152 21.3772 58.5962 22.5962C57.3772 23.8152 55.7239 24.5 54 24.5Z" fill="#849592"/>
<path d="M40 35.5C40.3978 35.5 40.7794 35.342 41.0607 35.0607C41.342 34.7794 41.5 34.3978 41.5 34C41.5 33.6022 41.342 33.2206 41.0607 32.9393C40.7794 32.658 40.3978 32.5 40 32.5H24C23.6022 32.5 23.2206 32.658 22.9393 32.9393C22.658 33.2206 22.5 33.6022 22.5 34C22.5 34.3978 22.658 34.7794 22.9393 35.0607C23.2206 35.342 23.6022 35.5 24 35.5H40Z" fill="#849592"/>
</g>
<defs>
<clipPath id="clip0_1117_275">
<rect width="64" height="64" fill="white"/>
</clipPath>
</defs>
</svg>
