<svg width="233" height="54" viewBox="0 0 233 54" fill="none" xmlns="http://www.w3.org/2000/svg">
<path d="M0 36V0.0661368H7.06171L24.0098 20.658V0.0661368H32.9023V36H25.8929L8.94483 15.4081V36H0Z" fill="#76B95B"/>
<path d="M36.5019 36V0.0661368H58.677L61.583 7.30388H45.7082V14.1339H57.4739L60.3799 21.3716H45.7082V28.7623H69.3325L72.2386 36H36.5019Z" fill="#76B95B"/>
<path d="M76.0585 36L62.8243 0.0661368H72.6584L80.3478 22.5949L88.6649 0.0661368H95.4651L103.416 23.0536L111.472 0.0661368H120.73L107.392 36H99.7021L91.8035 14.3887L83.7479 36H76.0585Z" fill="#76B95B"/>
<path d="M124.284 0.0660828L111.05 35.9999H120.884L128.573 13.4712L136.891 35.9999H143.691L151.642 13.0125L159.697 35.9999H168.956L155.617 0.0660828H147.928L140.029 21.6774L131.974 0.0660828H124.284Z" fill="#76B95B"/>
<path d="M168.551 25.5511L180.001 0H187.586L204.848 35.9339H195.223L192.032 28.6451H175.555L172.364 35.9339L168.551 25.5511ZM183.715 9.78624L178.693 21.4584H188.841L183.82 9.78624H183.715Z" fill="#76B95B"/>
<path d="M199.098 17.0561V0H206.159L223.107 20.5919V0H232V35.9339H224.991L208.042 15.342V35.9339L199.098 17.0561Z" fill="#76B95B"/>
<path d="M0 53.8483V43.1517H4.64777C5.82237 43.1517 6.72864 43.4349 7.36657 44.0014C8.00449 44.5577 8.32346 45.3416 8.32346 46.3531C8.32346 47.1522 8.11588 47.8147 7.70072 48.3407C7.28556 48.8566 6.68813 49.2055 5.90844 49.3876C6.42486 49.5494 6.85015 49.9388 7.1843 50.5559L8.97658 53.8483H6.83496L4.98192 50.4345C4.79966 50.1007 4.58195 49.8731 4.32881 49.7517C4.08579 49.6303 3.77188 49.5697 3.3871 49.5697H1.94417V53.8483H0ZM1.94417 48.1283H4.31362C5.73124 48.1283 6.44005 47.5517 6.44005 46.3986C6.44005 45.2556 5.73124 44.6841 4.31362 44.6841H1.94417V48.1283Z" fill="#849592"/>
<path d="M13.9061 53.8483V43.1517H21.0296V44.6993H15.7743V47.6428H20.6954V49.1903H15.7743V52.3007H21.0296V53.8483H13.9061Z" fill="#849592"/>
<path d="M31.4294 54C30.3156 54 29.3587 53.7775 28.5587 53.3324C27.7689 52.8772 27.1614 52.24 26.7361 51.4207C26.3108 50.5913 26.0981 49.6152 26.0981 48.4924C26.0981 47.3697 26.3108 46.3986 26.7361 45.5793C27.1614 44.76 27.7689 44.1278 28.5587 43.6828C29.3587 43.2276 30.3156 43 31.4294 43C32.1483 43 32.8268 43.1113 33.4647 43.3338C34.1128 43.5563 34.6444 43.8749 35.0595 44.2897L34.4216 45.8372C33.9659 45.4529 33.5001 45.1747 33.0242 45.0028C32.5483 44.8207 32.037 44.7297 31.4902 44.7297C30.4067 44.7297 29.5814 45.0584 29.0144 45.7159C28.4473 46.3632 28.1638 47.2887 28.1638 48.4924C28.1638 49.6961 28.4473 50.6267 29.0144 51.2841C29.5814 51.9416 30.4067 52.2703 31.4902 52.2703C32.037 52.2703 32.5483 52.1844 33.0242 52.0124C33.5001 51.8303 33.9659 51.5471 34.4216 51.1628L35.0595 52.7103C34.6444 53.1149 34.1128 53.4336 33.4647 53.6662C32.8268 53.8887 32.1483 54 31.4294 54Z" fill="#849592"/>
<path d="M40.2497 53.8483V43.1517H44.8975C46.0721 43.1517 46.9783 43.4349 47.6163 44.0014C48.2542 44.5577 48.5732 45.3416 48.5732 46.3531C48.5732 47.1522 48.3656 47.8147 47.9504 48.3407C47.5353 48.8566 46.9378 49.2055 46.1581 49.3876C46.6746 49.5494 47.0999 49.9388 47.434 50.5559L49.2263 53.8483H47.0847L45.2316 50.4345C45.0494 50.1007 44.8317 49.8731 44.5785 49.7517C44.3355 49.6303 44.0216 49.5697 43.6368 49.5697H42.1939V53.8483H40.2497ZM42.1939 48.1283H44.5633C45.9809 48.1283 46.6898 47.5517 46.6898 46.3986C46.6898 45.2556 45.9809 44.6841 44.5633 44.6841H42.1939V48.1283Z" fill="#849592"/>
<path d="M58.6061 54C57.1378 54 56.0139 53.6207 55.2342 52.8621C54.4646 52.0933 54.0798 50.9605 54.0798 49.4634V43.1517H56.024V49.4483C56.024 50.4092 56.2417 51.1324 56.6771 51.6179C57.1226 52.0933 57.7656 52.331 58.6061 52.331C60.3173 52.331 61.173 51.3701 61.173 49.4483V43.1517H63.102V49.4634C63.102 50.9605 62.7222 52.0933 61.9628 52.8621C61.2034 53.6207 60.0845 54 58.6061 54Z" fill="#849592"/>
<path d="M68.8628 53.8483V43.1517H70.807V53.8483H68.8628Z" fill="#849592"/>
<path d="M79.2102 53.8483V44.7752H75.5345V43.1517H84.83V44.7752H81.1543V53.8483H79.2102Z" fill="#849592"/>
<path d="M89.5855 53.8483V43.1517H91.2107L95.0079 50.1462L98.7899 43.1517H100.385V53.8483H98.6229V46.6414L95.5547 52.2248H94.4156L91.3474 46.6717V53.8483H89.5855Z" fill="#849592"/>
<path d="M106.235 53.8483V43.1517H113.358V44.6993H108.103V47.6428H113.024V49.1903H108.103V52.3007H113.358V53.8483H106.235Z" fill="#849592"/>
<path d="M118.791 53.8483V43.1517H120.249L126.006 50.6166V43.1517H127.813V53.8483H126.37L120.599 46.3531V53.8483H118.791Z" fill="#849592"/>
<path d="M136.229 53.8483V44.7752H132.553V43.1517H141.849V44.7752H138.173V53.8483H136.229Z" fill="#849592"/>
<path d="M153.007 53.8483L157.852 43.1517H159.447L164.292 53.8483H162.317L161.254 51.3752H156.029L154.981 53.8483H153.007ZM158.626 45.2607L156.697 49.8276H160.586L158.657 45.2607H158.626Z" fill="#849592"/>
<path d="M173.883 54C172.699 54 171.696 53.7775 170.876 53.3324C170.066 52.8874 169.448 52.2552 169.023 51.4359C168.598 50.6166 168.385 49.6455 168.385 48.5228C168.385 47.3899 168.603 46.4138 169.038 45.5945C169.474 44.7651 170.101 44.1278 170.922 43.6828C171.742 43.2276 172.724 43 173.868 43C174.618 43 175.321 43.1113 175.979 43.3338C176.638 43.5462 177.184 43.8446 177.62 44.229L176.967 45.7462C176.491 45.372 176.005 45.1039 175.509 44.9421C175.012 44.7802 174.466 44.6993 173.868 44.6993C172.734 44.6993 171.873 45.028 171.286 45.6855C170.709 46.343 170.42 47.2887 170.42 48.5228C170.42 49.7669 170.719 50.7126 171.317 51.36C171.914 52.0074 172.8 52.331 173.975 52.331C174.309 52.331 174.648 52.3057 174.992 52.2552C175.347 52.1945 175.696 52.1085 176.04 51.9972V49.509H173.58V48.0676H177.665V53.211C177.169 53.4538 176.582 53.646 175.904 53.7876C175.225 53.9292 174.552 54 173.883 54Z" fill="#849592"/>
<path d="M183.412 53.8483V43.1517H190.535V44.6993H185.28V47.6428H190.201V49.1903H185.28V52.3007H190.535V53.8483H183.412Z" fill="#849592"/>
<path d="M195.968 53.8483V43.1517H197.426L203.183 50.6166V43.1517H204.99V53.8483H203.547L197.776 46.3531V53.8483H195.968Z" fill="#849592"/>
<path d="M215.805 54C214.691 54 213.735 53.7775 212.935 53.3324C212.145 52.8772 211.537 52.24 211.112 51.4207C210.687 50.5913 210.474 49.6152 210.474 48.4924C210.474 47.3697 210.687 46.3986 211.112 45.5793C211.537 44.76 212.145 44.1278 212.935 43.6828C213.735 43.2276 214.691 43 215.805 43C216.524 43 217.203 43.1113 217.841 43.3338C218.489 43.5563 219.02 43.8749 219.435 44.2897L218.798 45.8372C218.342 45.4529 217.876 45.1747 217.4 45.0028C216.924 44.8207 216.413 44.7297 215.866 44.7297C214.783 44.7297 213.957 45.0584 213.39 45.7159C212.823 46.3632 212.54 47.2887 212.54 48.4924C212.54 49.6961 212.823 50.6267 213.39 51.2841C213.957 51.9416 214.783 52.2703 215.866 52.2703C216.413 52.2703 216.924 52.1844 217.4 52.0124C217.876 51.8303 218.342 51.5471 218.798 51.1628L219.435 52.7103C219.02 53.1149 218.489 53.4336 217.841 53.6662C217.203 53.8887 216.524 54 215.805 54Z" fill="#849592"/>
<path d="M226.955 53.8483V48.9324L222.839 43.1517H225.102L227.957 47.2028L230.828 43.1517H233L228.899 48.9476V53.8483H226.955Z" fill="#849592"/>
</svg>
