<svg width="117" height="132" viewBox="0 0 117 132" fill="none" xmlns="http://www.w3.org/2000/svg">
<path d="M56.7817 33.3594C51.7426 33.349 46.7909 34.6755 42.4317 37.2034C38.0725 39.7314 34.4618 43.3704 31.968 47.7492C29.4742 52.128 28.1865 57.09 28.2362 62.1289C28.2859 67.1678 29.6713 72.1033 32.2511 76.4321C31.7567 76.7623 33.5131 75.1508 19.4467 89.1628C18.1102 90.4993 17.3594 92.312 17.3594 94.202C17.3594 96.0921 18.1102 97.9048 19.4467 99.2413C20.7832 100.578 22.5959 101.329 24.4859 101.329C26.376 101.329 28.1887 100.578 29.5252 99.2413C43.5372 85.1748 41.9245 86.9331 42.2559 86.4369C46.0333 88.6747 50.2761 90.0105 54.6542 90.3404C59.0323 90.6702 63.4274 89.9853 67.4975 88.3387C71.5675 86.6922 75.2027 84.1286 78.1199 80.8474C81.0371 77.5663 83.1578 73.6561 84.3167 69.4213C85.4756 65.1866 85.6416 60.7415 84.8017 56.4321C83.9618 52.1227 82.1386 48.0653 79.4742 44.5757C76.8097 41.0862 73.3759 38.2586 69.44 36.3132C65.504 34.3677 61.1722 33.3569 56.7817 33.3594ZM27.603 97.319C26.7761 98.1448 25.6551 98.6085 24.4866 98.6081C23.318 98.6077 22.1973 98.1433 21.371 97.317C20.5447 96.4906 20.0803 95.37 20.0799 94.2014C20.0795 93.0328 20.5432 91.9119 21.3689 91.085L28.9145 83.5394L35.1485 89.7734L27.603 97.319ZM37.0708 87.8512L30.8368 81.6172L33.7509 78.703C35.496 81.0893 37.5987 83.192 39.9849 84.9371L37.0708 87.8512ZM56.7817 87.7344C51.6734 87.7344 46.6798 86.2196 42.4324 83.3816C38.185 80.5435 34.8745 76.5097 32.9196 71.7902C30.9648 67.0708 30.4533 61.8776 31.4499 56.8674C32.4465 51.8573 34.9063 47.2551 38.5185 43.643C42.1306 40.0309 46.7327 37.571 51.7429 36.5744C56.7531 35.5778 61.9462 36.0893 66.6657 38.0442C71.3852 39.999 75.419 43.3095 78.257 47.5569C81.0951 51.8043 82.6099 56.7979 82.6099 61.9063C82.6021 68.7539 79.8784 75.3189 75.0364 80.1609C70.1943 85.0029 63.6294 87.7266 56.7817 87.7344Z" fill="#AFE1BD"/>
<path d="M62.1035 61.634C63.7928 60.4943 65.0717 58.8425 65.7518 56.9215C66.4319 55.0005 66.4774 52.9119 65.8815 50.9632C65.2856 49.0144 64.0799 47.3084 62.4417 46.0963C60.8036 44.8842 58.8196 44.23 56.7818 44.23C54.7439 44.23 52.76 44.8842 51.1218 46.0963C49.4837 47.3084 48.2779 49.0144 47.682 50.9632C47.0862 52.9119 47.1316 55.0005 47.8117 56.9215C48.4919 58.8425 49.7707 60.4943 51.46 61.634C49.0083 62.6799 46.9175 64.4226 45.447 66.6458C43.9765 68.8691 43.191 71.4751 43.188 74.1406C43.188 74.5012 43.3312 74.8469 43.5861 75.1018C43.841 75.3568 44.1868 75.5 44.5473 75.5C44.9079 75.5 45.2536 75.3568 45.5086 75.1018C45.7635 74.8469 45.9067 74.5012 45.9067 74.1406C45.9069 72.6803 46.2022 71.2351 46.7749 69.8918C47.3476 68.5485 48.186 67.3348 49.2395 66.3236C50.1237 67.4858 51.2644 68.4279 52.5727 69.0765C53.881 69.725 55.3215 70.0625 56.7817 70.0625C58.242 70.0625 59.6825 69.7251 60.9908 69.0765C62.2991 68.428 63.4398 67.4859 64.324 66.3237C65.3775 67.3349 66.2158 68.5486 66.7885 69.8919C67.3612 71.2352 67.6566 72.6803 67.6567 74.1406C67.6567 74.5012 67.7999 74.8469 68.0549 75.1018C68.3098 75.3568 68.6556 75.5 69.0161 75.5C69.3766 75.5 69.7224 75.3568 69.9773 75.1018C70.2322 74.8469 70.3755 74.5012 70.3755 74.1406C70.3724 71.4751 69.587 68.8691 68.1165 66.6458C66.646 64.4226 64.5552 62.6799 62.1035 61.634ZM63.3817 52.1937C62.1563 51.9027 61.0359 51.277 60.1453 50.3864C59.2547 49.4959 58.629 48.3754 58.338 47.15C59.5634 47.441 60.6838 48.0667 61.5744 48.9573C62.465 49.8479 63.0907 50.9684 63.3817 52.1937ZM55.2254 47.15C54.9344 48.3754 54.3087 49.4959 53.4181 50.3864C52.5276 51.277 51.4071 51.9027 50.1817 52.1937C50.4728 50.9684 51.0985 49.8479 51.989 48.9573C52.8796 48.0667 54.0001 47.441 55.2254 47.15ZM50.1094 54.9817C51.4837 54.7628 52.7934 54.2453 53.9462 53.4657C55.099 52.6861 56.0669 51.6633 56.7817 50.4692C57.4966 51.6632 58.4645 52.6861 59.6173 53.4657C60.7701 54.2453 62.0797 54.7628 63.4541 54.9817C63.1691 56.5436 62.3452 57.956 61.126 58.9729C59.9067 59.9899 58.3694 60.5468 56.7817 60.5468C55.194 60.5468 53.6567 59.9899 52.4374 58.9729C51.2182 57.956 50.3943 56.5436 50.1094 54.9817ZM56.7817 67.3438C55.7435 67.344 54.7192 67.1053 53.788 66.6461C52.8569 66.187 52.044 65.5196 51.4122 64.6958C53.0466 63.7587 54.8978 63.2656 56.7818 63.2656C58.6658 63.2656 60.517 63.7587 62.1514 64.6959C61.5195 65.5196 60.7065 66.1869 59.7754 66.6461C58.8442 67.1053 57.8199 67.344 56.7817 67.3438Z" fill="#AFE1BD"/>
<g filter="url(#filter0_bddddddd_1101_99)">
<path d="M101.241 71.8184L89.0097 59.5875C88.7543 59.3321 88.4081 59.1883 88.0469 59.1875H62.2188C61.1375 59.1887 60.1009 59.6187 59.3364 60.3833C58.5718 61.1478 58.1418 62.1844 58.1406 63.2656V113.562C58.1418 114.644 58.5718 115.68 59.3364 116.445C60.1009 117.209 61.1375 117.639 62.2188 117.641H97.5625C98.6437 117.639 99.6803 117.209 100.445 116.445C101.209 115.68 101.639 114.644 101.641 113.562V72.7812C101.64 72.42 101.496 72.0739 101.241 71.8184ZM79.8906 106.766H67.6562C67.2957 106.766 66.95 106.622 66.695 106.367C66.4401 106.113 66.2969 105.767 66.2969 105.406C66.2969 105.046 66.4401 104.7 66.695 104.445C66.95 104.19 67.2957 104.047 67.6562 104.047H79.8906C80.2512 104.047 80.5969 104.19 80.8518 104.445C81.1068 104.7 81.25 105.046 81.25 105.406C81.25 105.767 81.1068 106.113 80.8518 106.367C80.5969 106.622 80.2512 106.766 79.8906 106.766ZM79.8906 97.25H67.6562C67.2957 97.25 66.95 97.1068 66.695 96.8518C66.4401 96.5969 66.2969 96.2512 66.2969 95.8906C66.2969 95.5301 66.4401 95.1843 66.695 94.9294C66.95 94.6745 67.2957 94.5312 67.6562 94.5312H79.8906C80.2512 94.5312 80.5969 94.6745 80.8518 94.9294C81.1068 95.1843 81.25 95.5301 81.25 95.8906C81.25 96.2512 81.1068 96.5969 80.8518 96.8518C80.5969 97.1068 80.2512 97.25 79.8906 97.25ZM79.8906 87.7344H69.0156C68.6551 87.7344 68.3093 87.5912 68.0544 87.3362C67.7995 87.0813 67.6562 86.7355 67.6562 86.375C67.6562 86.0145 67.7995 85.6687 68.0544 85.4138C68.3093 85.1588 68.6551 85.0156 69.0156 85.0156H79.8906C80.2512 85.0156 80.5969 85.1588 80.8518 85.4138C81.1068 85.6687 81.25 86.0145 81.25 86.375C81.25 86.7355 81.1068 87.0813 80.8518 87.3362C80.5969 87.5912 80.2512 87.7344 79.8906 87.7344ZM93.2122 103.503L89.1341 108.94C89.0173 109.096 88.8684 109.225 88.6974 109.318C88.5265 109.411 88.3375 109.467 88.1433 109.48C87.949 109.494 87.7541 109.466 87.5717 109.398C87.3892 109.33 87.2235 109.224 87.0858 109.086L84.367 106.367C84.116 106.112 83.976 105.767 83.9776 105.409C83.9792 105.05 84.1223 104.707 84.3757 104.454C84.6291 104.2 84.9723 104.057 85.3307 104.056C85.689 104.054 86.0335 104.194 86.2892 104.445L87.8995 106.055L91.0377 101.872C91.1446 101.729 91.2786 101.608 91.4322 101.517C91.5859 101.425 91.756 101.365 91.9329 101.34C92.1099 101.314 92.2901 101.324 92.4633 101.368C92.6365 101.412 92.7993 101.49 92.9424 101.597C93.0854 101.704 93.2059 101.839 93.2969 101.993C93.3879 102.147 93.4476 102.317 93.4727 102.494C93.4977 102.671 93.4876 102.851 93.4429 103.024C93.3982 103.197 93.3199 103.36 93.2122 103.503ZM93.2122 93.987L89.1341 99.4245C89.0173 99.5803 88.8684 99.7091 88.6974 99.8024C88.5265 99.8956 88.3375 99.951 88.1433 99.9649C87.949 99.9787 87.7541 99.9507 87.5717 99.8826C87.3892 99.8146 87.2235 99.7081 87.0858 99.5705L84.367 96.8517C84.116 96.596 83.976 96.2515 83.9776 95.8932C83.9792 95.5348 84.1223 95.1916 84.3757 94.9382C84.6291 94.6848 84.9723 94.5417 85.3307 94.5401C85.689 94.5385 86.0335 94.6785 86.2892 94.9295L87.8995 96.5398L91.0377 92.3568C91.1446 92.2135 91.2786 92.0926 91.4322 92.0012C91.5859 91.9098 91.756 91.8495 91.9329 91.824C92.1099 91.7984 92.2901 91.808 92.4633 91.8522C92.6365 91.8964 92.7993 91.9744 92.9424 92.0816C93.0854 92.1888 93.2059 92.3232 93.2969 92.4771C93.3879 92.631 93.4476 92.8013 93.4727 92.9783C93.4977 93.1553 93.4876 93.3355 93.4429 93.5086C93.3982 93.6817 93.3199 93.8442 93.2122 93.987ZM93.2122 84.4713L89.1341 89.9088C89.0173 90.0646 88.8684 90.1935 88.6974 90.2868C88.5265 90.38 88.3375 90.4354 88.1433 90.4492C87.949 90.4631 87.7541 90.435 87.5717 90.367C87.3892 90.2989 87.2235 90.1925 87.0858 90.0548L84.367 87.3361C84.116 87.0804 83.976 86.7359 83.9776 86.3776C83.9792 86.0192 84.1223 85.676 84.3757 85.4226C84.6291 85.1692 84.9723 85.0261 85.3307 85.0245C85.689 85.0229 86.0335 85.1628 86.2892 85.4139L87.8995 87.0242L91.0377 82.8412C91.1446 82.6979 91.2786 82.577 91.4322 82.4856C91.5859 82.3941 91.756 82.3339 91.9329 82.3083C92.1099 82.2828 92.2901 82.2924 92.4633 82.3366C92.6365 82.3808 92.7993 82.4588 92.9424 82.566C93.0854 82.6732 93.2059 82.8076 93.2969 82.9615C93.3879 83.1154 93.4476 83.2857 93.4727 83.4627C93.4977 83.6397 93.4876 83.8199 93.4429 83.993C93.3982 84.1661 93.3199 84.3286 93.2122 84.4713ZM90.7656 71.4219C90.4052 71.4216 90.0596 71.2783 89.8047 71.0235C89.5498 70.7686 89.4065 70.423 89.4062 70.0625V63.8285L96.9996 71.4219H90.7656Z" fill="url(#paint0_linear_1101_99)" fill-opacity="0.65"/>
</g>
<defs>
<filter id="filter0_bddddddd_1101_99" x="0.684971" y="0.659908" width="116.295" height="131.248" filterUnits="userSpaceOnUse" color-interpolation-filters="sRGB">
<feFlood flood-opacity="0" result="BackgroundImageFix"/>
<feGaussianBlur in="BackgroundImage" stdDeviation="3"/>
<feComposite in2="SourceAlpha" operator="in" result="effect1_backgroundBlur_1101_99"/>
<feColorMatrix in="SourceAlpha" type="matrix" values="0 0 0 0 0 0 0 0 0 0 0 0 0 0 0 0 0 0 127 0" result="hardAlpha"/>
<feOffset dx="-0.294048" dy="-0.309016"/>
<feGaussianBlur stdDeviation="0.82793"/>
<feColorMatrix type="matrix" values="0 0 0 0 0.462745 0 0 0 0 0.72549 0 0 0 0 0.356863 0 0 0 0.0400313 0"/>
<feBlend mode="normal" in2="effect1_backgroundBlur_1101_99" result="effect2_dropShadow_1101_99"/>
<feColorMatrix in="SourceAlpha" type="matrix" values="0 0 0 0 0 0 0 0 0 0 0 0 0 0 0 0 0 0 127 0" result="hardAlpha"/>
<feOffset dx="-1.26667" dy="-1.33115"/>
<feGaussianBlur stdDeviation="1.56094"/>
<feColorMatrix type="matrix" values="0 0 0 0 0.462745 0 0 0 0 0.72549 0 0 0 0 0.356863 0 0 0 0.06825 0"/>
<feBlend mode="normal" in2="effect2_dropShadow_1101_99" result="effect3_dropShadow_1101_99"/>
<feColorMatrix in="SourceAlpha" type="matrix" values="0 0 0 0 0 0 0 0 0 0 0 0 0 0 0 0 0 0 127 0" result="hardAlpha"/>
<feOffset dx="-3.05358" dy="-3.20902"/>
<feGaussianBlur stdDeviation="2.61035"/>
<feColorMatrix type="matrix" values="0 0 0 0 0.462745 0 0 0 0 0.72549 0 0 0 0 0.356863 0 0 0 0.0885938 0"/>
<feBlend mode="normal" in2="effect3_dropShadow_1101_99" result="effect4_dropShadow_1101_99"/>
<feColorMatrix in="SourceAlpha" type="matrix" values="0 0 0 0 0 0 0 0 0 0 0 0 0 0 0 0 0 0 127 0" result="hardAlpha"/>
<feOffset dx="-5.79049" dy="-6.08525"/>
<feGaussianBlur stdDeviation="4.3875"/>
<feColorMatrix type="matrix" values="0 0 0 0 0.462745 0 0 0 0 0.72549 0 0 0 0 0.356863 0 0 0 0.105 0"/>
<feBlend mode="normal" in2="effect4_dropShadow_1101_99" result="effect5_dropShadow_1101_99"/>
<feColorMatrix in="SourceAlpha" type="matrix" values="0 0 0 0 0 0 0 0 0 0 0 0 0 0 0 0 0 0 127 0" result="hardAlpha"/>
<feOffset dx="-9.61312" dy="-10.1025"/>
<feGaussianBlur stdDeviation="7.30371"/>
<feColorMatrix type="matrix" values="0 0 0 0 0.462745 0 0 0 0 0.72549 0 0 0 0 0.356863 0 0 0 0.121406 0"/>
<feBlend mode="normal" in2="effect5_dropShadow_1101_99" result="effect6_dropShadow_1101_99"/>
<feColorMatrix in="SourceAlpha" type="matrix" values="0 0 0 0 0 0 0 0 0 0 0 0 0 0 0 0 0 0 127 0" result="hardAlpha"/>
<feOffset dx="-14.6572" dy="-15.4033"/>
<feGaussianBlur stdDeviation="11.7703"/>
<feColorMatrix type="matrix" values="0 0 0 0 0.462745 0 0 0 0 0.72549 0 0 0 0 0.356863 0 0 0 0.14175 0"/>
<feBlend mode="normal" in2="effect6_dropShadow_1101_99" result="effect7_dropShadow_1101_99"/>
<feColorMatrix in="SourceAlpha" type="matrix" values="0 0 0 0 0 0 0 0 0 0 0 0 0 0 0 0 0 0 127 0" result="hardAlpha"/>
<feOffset dx="-21.0584" dy="-22.1303"/>
<feGaussianBlur stdDeviation="18.1986"/>
<feColorMatrix type="matrix" values="0 0 0 0 0.462745 0 0 0 0 0.72549 0 0 0 0 0.356863 0 0 0 0.169969 0"/>
<feBlend mode="normal" in2="effect7_dropShadow_1101_99" result="effect8_dropShadow_1101_99"/>
<feBlend mode="normal" in="SourceGraphic" in2="effect8_dropShadow_1101_99" result="shape"/>
</filter>
<linearGradient id="paint0_linear_1101_99" x1="68.6644" y1="68.8657" x2="114.444" y2="114.027" gradientUnits="userSpaceOnUse">
<stop offset="0.415065" stop-color="#76B95B"/>
<stop offset="1" stop-color="#76B95B" stop-opacity="0"/>
</linearGradient>
</defs>
</svg>
