<svg width="125" height="133" viewBox="0 0 125 133" fill="none" xmlns="http://www.w3.org/2000/svg">
<path d="M91.9692 99.6094H90.6098V60.1875C90.6098 60.009 90.5747 59.8322 90.5064 59.6672C90.4381 59.5023 90.338 59.3524 90.2117 59.2262C90.0855 59.0999 89.9356 58.9998 89.7707 58.9315C89.6057 58.8632 89.4289 58.8281 89.2504 58.8281H75.6567C75.4781 58.8281 75.3013 58.8632 75.1364 58.9315C74.9714 58.9998 74.8216 59.0999 74.6953 59.2262C74.5691 59.3524 74.469 59.5023 74.4007 59.6672C74.3324 59.8322 74.2972 60.009 74.2973 60.1875V99.6094H71.5785V73.7812C71.5786 73.6027 71.5435 73.4259 71.4752 73.261C71.4069 73.096 71.3067 72.9462 71.1805 72.8199C71.0542 72.6937 70.9044 72.5936 70.7394 72.5253C70.5745 72.457 70.3977 72.4218 70.2192 72.4219H56.6254C56.4469 72.4218 56.2701 72.457 56.1051 72.5253C55.9402 72.5936 55.7903 72.6937 55.6641 72.8199C55.5378 72.9462 55.4377 73.096 55.3694 73.261C55.3011 73.4259 55.266 73.6027 55.266 73.7812V99.6094H47.9858C49.9578 98.0215 51.3887 95.8609 52.081 93.4256C52.7733 90.9902 52.693 88.4 51.8512 86.0122C51.0094 83.6244 49.4475 81.5566 47.3809 80.0939C45.3143 78.6312 42.8448 77.8457 40.3129 77.8457C37.7811 77.8457 35.3116 78.6312 33.245 80.0939C31.1784 81.5566 29.6164 83.6244 28.7746 86.0122C27.9328 88.4 27.8525 90.9902 28.5448 93.4256C29.2372 95.8609 30.668 98.0215 32.64 99.6094H26.7192C26.3586 99.6094 26.0129 99.7526 25.7579 100.008C25.503 100.262 25.3598 100.608 25.3598 100.969C25.3598 101.329 25.503 101.675 25.7579 101.93C26.0129 102.185 26.3586 102.328 26.7192 102.328H91.9692C92.3297 102.328 92.6755 102.185 92.9304 101.93C93.1853 101.675 93.3285 101.329 93.3285 100.969C93.3285 100.608 93.1853 100.262 92.9304 100.008C92.6755 99.7526 92.3297 99.6094 91.9692 99.6094ZM30.7973 90.0938C30.7973 88.2117 31.3554 86.372 32.401 84.8072C33.4466 83.2423 34.9327 82.0227 36.6714 81.3025C38.4102 80.5822 40.3235 80.3938 42.1693 80.761C44.0152 81.1281 45.7107 82.0344 47.0415 83.3652C48.3723 84.696 49.2785 86.3915 49.6457 88.2373C50.0129 90.0832 49.8244 91.9965 49.1042 93.7352C48.384 95.474 47.1643 96.9601 45.5995 98.0057C44.0347 99.0513 42.1949 99.6094 40.3129 99.6094C37.7901 99.6064 35.3715 98.603 33.5876 96.8191C31.8037 95.0352 30.8002 92.6165 30.7973 90.0938ZM57.9848 99.6094V75.1406H68.8598V99.6094H57.9848ZM77.016 99.6094V61.5469H87.891V99.6094H77.016Z" fill="#AFE1BD"/>
<path d="M40.3129 83.2969C39.9524 83.2969 39.6066 83.4401 39.3517 83.695C39.0968 83.95 38.9535 84.2957 38.9535 84.6562C38.9535 85.0168 39.0968 85.3625 39.3517 85.6175C39.6066 85.8724 39.9524 86.0156 40.3129 86.0156C41.3941 86.0168 42.4307 86.4468 43.1953 87.2114C43.9598 87.9759 44.3899 89.0125 44.391 90.0938C44.391 90.4543 44.5343 90.8 44.7892 91.055C45.0441 91.3099 45.3899 91.4531 45.7504 91.4531C46.1109 91.4531 46.4567 91.3099 46.7116 91.055C46.9666 90.8 47.1098 90.4543 47.1098 90.0938C47.1077 88.2918 46.3909 86.5642 45.1167 85.29C43.8425 84.0158 42.1149 83.299 40.3129 83.2969Z" fill="#AFE1BD"/>
<path d="M40.3129 94.1719C39.2317 94.1707 38.1951 93.7407 37.4306 92.9761C36.666 92.2116 36.236 91.175 36.2348 90.0938C36.2348 89.7332 36.0916 89.3875 35.8366 89.1325C35.5817 88.8776 35.2359 88.7344 34.8754 88.7344C34.5149 88.7344 34.1691 88.8776 33.9142 89.1325C33.6593 89.3875 33.516 89.7332 33.516 90.0938C33.5182 91.8957 34.2349 93.6233 35.5091 94.8975C36.7833 96.1717 38.5109 96.8885 40.3129 96.8906C40.6734 96.8906 41.0192 96.7474 41.2741 96.4925C41.5291 96.2375 41.6723 95.8918 41.6723 95.5312C41.6723 95.1707 41.5291 94.825 41.2741 94.57C41.0192 94.3151 40.6734 94.1719 40.3129 94.1719Z" fill="#AFE1BD"/>
<path d="M91.9692 34.3594H83.8129C83.4524 34.3594 83.1066 34.5026 82.8517 34.7575C82.5968 35.0125 82.4535 35.3582 82.4535 35.7188C82.4535 36.0793 82.5968 36.425 82.8517 36.68C83.1066 36.9349 83.4524 37.0781 83.8129 37.0781H88.7349C83.9805 41.976 59.8334 65.4605 26.39 73.8218C26.2158 73.8641 26.0517 73.9404 25.9072 74.0464C25.7626 74.1524 25.6405 74.2859 25.5477 74.4393C25.455 74.5926 25.3935 74.7628 25.3668 74.94C25.34 75.1173 25.3486 75.298 25.392 75.4719C25.4354 75.6458 25.5128 75.8094 25.6197 75.9533C25.7266 76.0972 25.8608 76.2185 26.0148 76.3103C26.1687 76.4021 26.3393 76.4625 26.5167 76.4881C26.6941 76.5137 26.8748 76.504 27.0484 76.4595C60.9377 67.9869 85.4842 44.3051 90.6098 39.047V43.875C90.6098 44.2355 90.753 44.5813 91.0079 44.8362C91.2629 45.0912 91.6086 45.2344 91.9692 45.2344C92.3297 45.2344 92.6755 45.0912 92.9304 44.8362C93.1853 44.5813 93.3285 44.2355 93.3285 43.875V35.7188C93.3286 35.5402 93.2935 35.3634 93.2252 35.1985C93.1569 35.0335 93.0567 34.8837 92.9305 34.7574C92.8043 34.6312 92.6544 34.5311 92.4894 34.4628C92.3245 34.3945 92.1477 34.3593 91.9692 34.3594Z" fill="#AFE1BD"/>
<path d="M38.9535 41.1562H53.9067C54.2672 41.1562 54.6129 41.013 54.8679 40.7581C55.1228 40.5032 55.266 40.1574 55.266 39.7969C55.266 39.4363 55.1228 39.0906 54.8679 38.8357C54.6129 38.5807 54.2672 38.4375 53.9067 38.4375H38.9535C38.593 38.4375 38.2472 38.5807 37.9923 38.8357C37.7374 39.0906 37.5942 39.4363 37.5942 39.7969C37.5942 40.1574 37.7374 40.5032 37.9923 40.7581C38.2472 41.013 38.593 41.1562 38.9535 41.1562Z" fill="#AFE1BD"/>
<path d="M38.9535 46.5938H53.9067C54.2672 46.5938 54.6129 46.4505 54.8679 46.1956C55.1228 45.9407 55.266 45.5949 55.266 45.2344C55.266 44.8738 55.1228 44.5281 54.8679 44.2732C54.6129 44.0182 54.2672 43.875 53.9067 43.875H38.9535C38.593 43.875 38.2472 44.0182 37.9923 44.2732C37.7374 44.5281 37.5942 44.8738 37.5942 45.2344C37.5942 45.5949 37.7374 45.9407 37.9923 46.1956C38.2472 46.4505 38.593 46.5938 38.9535 46.5938Z" fill="#AFE1BD"/>
<path d="M26.7192 41.1562H33.516C33.8766 41.1562 34.2223 41.013 34.4773 40.7581C34.7322 40.5032 34.8754 40.1574 34.8754 39.7969C34.8754 39.4363 34.7322 39.0906 34.4773 38.8357C34.2223 38.5807 33.8766 38.4375 33.516 38.4375H26.7192C26.3586 38.4375 26.0129 38.5807 25.7579 38.8357C25.503 39.0906 25.3598 39.4363 25.3598 39.7969C25.3598 40.1574 25.503 40.5032 25.7579 40.7581C26.0129 41.013 26.3586 41.1562 26.7192 41.1562Z" fill="#AFE1BD"/>
<path d="M26.7192 46.5938H33.516C33.8766 46.5938 34.2223 46.4505 34.4773 46.1956C34.7322 45.9407 34.8754 45.5949 34.8754 45.2344C34.8754 44.8738 34.7322 44.5281 34.4773 44.2732C34.2223 44.0182 33.8766 43.875 33.516 43.875H26.7192C26.3586 43.875 26.0129 44.0182 25.7579 44.2732C25.503 44.5281 25.3598 44.8738 25.3598 45.2344C25.3598 45.5949 25.503 45.9407 25.7579 46.1956C26.0129 46.4505 26.3586 46.5938 26.7192 46.5938Z" fill="#AFE1BD"/>
<path d="M26.7192 52.0312H33.516C33.8766 52.0312 34.2223 51.888 34.4773 51.6331C34.7322 51.3782 34.8754 51.0324 34.8754 50.6719C34.8754 50.3113 34.7322 49.9656 34.4773 49.7107C34.2223 49.4557 33.8766 49.3125 33.516 49.3125H26.7192C26.3586 49.3125 26.0129 49.4557 25.7579 49.7107C25.503 49.9656 25.3598 50.3113 25.3598 50.6719C25.3598 51.0324 25.503 51.3782 25.7579 51.6331C26.0129 51.888 26.3586 52.0312 26.7192 52.0312Z" fill="#AFE1BD"/>
<g filter="url(#filter0_bddddddd_1101_102)">
<path d="M109.423 78.484L97.1889 59.4527C97.0582 59.2718 96.8864 59.1245 96.6877 59.0229C96.489 58.9213 96.269 58.8683 96.0459 58.8683C95.8227 58.8683 95.6027 58.9213 95.404 59.0229C95.2053 59.1245 95.0335 59.2718 94.9029 59.4527L82.6685 78.484C82.5367 78.6893 82.4626 78.9263 82.454 79.1702C82.4453 79.414 82.5024 79.6557 82.6193 79.8698C82.7362 80.084 82.9086 80.2627 83.1183 80.3874C83.3281 80.512 83.5675 80.5779 83.8115 80.5781H87.8896V117.281C87.8896 117.46 87.9247 117.637 87.993 117.802C88.0613 117.966 88.1614 118.116 88.2877 118.243C88.4139 118.369 88.5638 118.469 88.7287 118.537C88.8937 118.606 89.0705 118.641 89.249 118.641H102.843C103.021 118.641 103.198 118.606 103.363 118.537C103.528 118.469 103.678 118.369 103.804 118.243C103.93 118.116 104.03 117.966 104.099 117.802C104.167 117.637 104.202 117.46 104.202 117.281V80.5781H108.28C108.524 80.5779 108.764 80.512 108.973 80.3874C109.183 80.2628 109.356 80.084 109.472 79.8698C109.589 79.6557 109.646 79.414 109.638 79.1702C109.629 78.9263 109.555 78.6893 109.423 78.484Z" fill="url(#paint0_linear_1101_102)" fill-opacity="0.65"/>
<path d="M72.7201 68.9683C72.5894 68.7874 72.4177 68.6401 72.219 68.5385C72.0203 68.4369 71.8003 68.3839 71.5771 68.3839C71.3539 68.3839 71.134 68.4369 70.9352 68.5385C70.7365 68.6401 70.5648 68.7874 70.4341 68.9683L58.1997 87.9996C58.068 88.2049 57.9939 88.442 57.9852 88.6858C57.9766 88.9296 58.0337 89.1713 58.1506 89.3854C58.2675 89.5996 58.4398 89.7784 58.6496 89.903C58.8593 90.0276 59.0988 90.0935 59.3427 90.0938H63.4209V117.281C63.4208 117.46 63.4559 117.637 63.5242 117.802C63.5925 117.966 63.6927 118.116 63.8189 118.243C63.9451 118.369 64.095 118.469 64.26 118.537C64.4249 118.606 64.6017 118.641 64.7802 118.641H78.374C78.5525 118.641 78.7293 118.606 78.8943 118.537C79.0592 118.469 79.2091 118.369 79.3353 118.243C79.4616 118.116 79.5617 117.966 79.63 117.802C79.6983 117.637 79.7334 117.46 79.7334 117.281V90.0938H83.8115C84.0555 90.0935 84.2949 90.0276 84.5047 89.903C84.7144 89.7784 84.8868 89.5996 85.0037 89.3855C85.1206 89.1713 85.1777 88.9296 85.169 88.6858C85.1604 88.442 85.0863 88.2049 84.9545 87.9996L72.7201 68.9683Z" fill="url(#paint1_linear_1101_102)" fill-opacity="0.65"/>
</g>
<defs>
<filter id="filter0_bddddddd_1101_102" x="0.528721" y="0.340694" width="124.449" height="132.567" filterUnits="userSpaceOnUse" color-interpolation-filters="sRGB">
<feFlood flood-opacity="0" result="BackgroundImageFix"/>
<feGaussianBlur in="BackgroundImage" stdDeviation="3"/>
<feComposite in2="SourceAlpha" operator="in" result="effect1_backgroundBlur_1101_102"/>
<feColorMatrix in="SourceAlpha" type="matrix" values="0 0 0 0 0 0 0 0 0 0 0 0 0 0 0 0 0 0 127 0" result="hardAlpha"/>
<feOffset dx="-0.294048" dy="-0.309016"/>
<feGaussianBlur stdDeviation="0.82793"/>
<feColorMatrix type="matrix" values="0 0 0 0 0.462745 0 0 0 0 0.72549 0 0 0 0 0.356863 0 0 0 0.0400313 0"/>
<feBlend mode="normal" in2="effect1_backgroundBlur_1101_102" result="effect2_dropShadow_1101_102"/>
<feColorMatrix in="SourceAlpha" type="matrix" values="0 0 0 0 0 0 0 0 0 0 0 0 0 0 0 0 0 0 127 0" result="hardAlpha"/>
<feOffset dx="-1.26667" dy="-1.33115"/>
<feGaussianBlur stdDeviation="1.56094"/>
<feColorMatrix type="matrix" values="0 0 0 0 0.462745 0 0 0 0 0.72549 0 0 0 0 0.356863 0 0 0 0.06825 0"/>
<feBlend mode="normal" in2="effect2_dropShadow_1101_102" result="effect3_dropShadow_1101_102"/>
<feColorMatrix in="SourceAlpha" type="matrix" values="0 0 0 0 0 0 0 0 0 0 0 0 0 0 0 0 0 0 127 0" result="hardAlpha"/>
<feOffset dx="-3.05358" dy="-3.20902"/>
<feGaussianBlur stdDeviation="2.61035"/>
<feColorMatrix type="matrix" values="0 0 0 0 0.462745 0 0 0 0 0.72549 0 0 0 0 0.356863 0 0 0 0.0885938 0"/>
<feBlend mode="normal" in2="effect3_dropShadow_1101_102" result="effect4_dropShadow_1101_102"/>
<feColorMatrix in="SourceAlpha" type="matrix" values="0 0 0 0 0 0 0 0 0 0 0 0 0 0 0 0 0 0 127 0" result="hardAlpha"/>
<feOffset dx="-5.79049" dy="-6.08525"/>
<feGaussianBlur stdDeviation="4.3875"/>
<feColorMatrix type="matrix" values="0 0 0 0 0.462745 0 0 0 0 0.72549 0 0 0 0 0.356863 0 0 0 0.105 0"/>
<feBlend mode="normal" in2="effect4_dropShadow_1101_102" result="effect5_dropShadow_1101_102"/>
<feColorMatrix in="SourceAlpha" type="matrix" values="0 0 0 0 0 0 0 0 0 0 0 0 0 0 0 0 0 0 127 0" result="hardAlpha"/>
<feOffset dx="-9.61312" dy="-10.1025"/>
<feGaussianBlur stdDeviation="7.30371"/>
<feColorMatrix type="matrix" values="0 0 0 0 0.462745 0 0 0 0 0.72549 0 0 0 0 0.356863 0 0 0 0.121406 0"/>
<feBlend mode="normal" in2="effect5_dropShadow_1101_102" result="effect6_dropShadow_1101_102"/>
<feColorMatrix in="SourceAlpha" type="matrix" values="0 0 0 0 0 0 0 0 0 0 0 0 0 0 0 0 0 0 127 0" result="hardAlpha"/>
<feOffset dx="-14.6572" dy="-15.4033"/>
<feGaussianBlur stdDeviation="11.7703"/>
<feColorMatrix type="matrix" values="0 0 0 0 0.462745 0 0 0 0 0.72549 0 0 0 0 0.356863 0 0 0 0.14175 0"/>
<feBlend mode="normal" in2="effect6_dropShadow_1101_102" result="effect7_dropShadow_1101_102"/>
<feColorMatrix in="SourceAlpha" type="matrix" values="0 0 0 0 0 0 0 0 0 0 0 0 0 0 0 0 0 0 127 0" result="hardAlpha"/>
<feOffset dx="-21.0584" dy="-22.1303"/>
<feGaussianBlur stdDeviation="18.1986"/>
<feColorMatrix type="matrix" values="0 0 0 0 0.462745 0 0 0 0 0.72549 0 0 0 0 0.356863 0 0 0 0.169969 0"/>
<feBlend mode="normal" in2="effect7_dropShadow_1101_102" result="effect8_dropShadow_1101_102"/>
<feBlend mode="normal" in="SourceGraphic" in2="effect8_dropShadow_1101_102" result="shape"/>
</filter>
<linearGradient id="paint0_linear_1101_102" x1="70.4809" y1="68.7649" x2="116.869" y2="121.905" gradientUnits="userSpaceOnUse">
<stop offset="0.415065" stop-color="#76B95B"/>
<stop offset="1" stop-color="#76B95B" stop-opacity="0"/>
</linearGradient>
<linearGradient id="paint1_linear_1101_102" x1="70.4809" y1="68.7649" x2="116.869" y2="121.905" gradientUnits="userSpaceOnUse">
<stop offset="0.415065" stop-color="#76B95B"/>
<stop offset="1" stop-color="#76B95B" stop-opacity="0"/>
</linearGradient>
</defs>
</svg>
