<svg width="131" height="130" viewBox="0 0 131 130" fill="none" xmlns="http://www.w3.org/2000/svg">
<path d="M67.7031 70.7812H45.9531C42.7096 70.7852 39.6 72.0755 37.3065 74.369C35.013 76.6625 33.7227 79.7721 33.7188 83.0156V95.25C33.7188 96.3316 34.1484 97.3689 34.9132 98.1337C35.678 98.8985 36.7153 99.3281 37.7969 99.3281H75.8594C76.941 99.3281 77.9782 98.8985 78.743 98.1337C79.5078 97.3689 79.9375 96.3316 79.9375 95.25V83.0156C79.9335 79.7721 78.6433 76.6625 76.3498 74.369C74.0562 72.0755 70.9467 70.7852 67.7031 70.7812ZM77.2188 95.25C77.2188 95.6105 77.0755 95.9563 76.8206 96.2112C76.5657 96.4662 76.2199 96.6094 75.8594 96.6094H37.7969C37.4363 96.6094 37.0906 96.4662 36.8357 96.2112C36.5807 95.9563 36.4375 95.6105 36.4375 95.25V83.0156C36.4404 80.4928 37.4438 78.0741 39.2277 76.2902C41.0116 74.5063 43.4303 73.5029 45.9531 73.5H67.7031C70.2259 73.5029 72.6446 74.5063 74.4285 76.2902C76.2124 78.0741 77.2159 80.4928 77.2188 83.0156V95.25Z" fill="#AFE1BD"/>
<path d="M56.8282 66.7031C60.6484 66.6988 64.311 65.1793 67.0124 62.4779C69.7137 59.7766 71.2332 56.114 71.2375 52.2937V45.7688C71.2375 41.9471 69.7194 38.2821 67.0171 35.5798C64.3148 32.8775 60.6498 31.3594 56.8282 31.3594C53.0066 31.3594 49.3415 32.8775 46.6392 35.5798C43.9369 38.2821 42.4188 41.9471 42.4188 45.7688V52.2937C42.4231 56.114 43.9426 59.7766 46.644 62.4779C49.3453 65.1793 53.0079 66.6988 56.8282 66.7031ZM45.1375 45.7688C45.1375 42.6682 46.3692 39.6946 48.5616 37.5022C50.7541 35.3098 53.7276 34.0781 56.8282 34.0781C59.9287 34.0781 62.9023 35.3098 65.0947 37.5022C67.2871 39.6946 68.5188 42.6682 68.5188 45.7688V52.2937C68.5188 55.3943 67.2871 58.3679 65.0947 60.5603C62.9023 62.7527 59.9287 63.9844 56.8282 63.9844C53.7276 63.9844 50.7541 62.7527 48.5616 60.5603C46.3692 58.3679 45.1375 55.3943 45.1375 52.2937V45.7688Z" fill="#AFE1BD"/>
<path d="M56.8281 59.9062C58.9906 59.9041 61.064 59.0441 62.5931 57.515C64.1222 55.9858 64.9822 53.9125 64.9844 51.75C64.9844 51.3895 64.8412 51.0437 64.5862 50.7888C64.3313 50.5338 63.9855 50.3906 63.625 50.3906C63.2645 50.3906 62.9187 50.5338 62.6638 50.7888C62.4088 51.0437 62.2656 51.3895 62.2656 51.75C62.2656 53.1921 61.6927 54.5752 60.673 55.5949C59.6533 56.6146 58.2702 57.1875 56.8281 57.1875C55.386 57.1875 54.003 56.6146 52.9832 55.5949C51.9635 54.5752 51.3906 53.1921 51.3906 51.75C51.3906 51.3895 51.2474 51.0437 50.9925 50.7888C50.7375 50.5338 50.3918 50.3906 50.0312 50.3906C49.6707 50.3906 49.325 50.5338 49.07 50.7888C48.8151 51.0437 48.6719 51.3895 48.6719 51.75C48.674 53.9125 49.534 55.9858 51.0632 57.515C52.5923 59.0441 54.6656 59.9041 56.8281 59.9062Z" fill="#AFE1BD"/>
<g filter="url(#filter0_bddddddd_1101_96)">
<path d="M86.7344 58.5469C81.0883 58.5469 75.5691 60.2211 70.8746 63.3579C66.1801 66.4947 62.5212 70.9531 60.3605 76.1693C58.1999 81.3856 57.6345 87.1254 58.736 92.663C59.8375 98.2005 62.5563 103.287 66.5487 107.279C70.541 111.272 75.6276 113.991 81.1652 115.092C86.7027 116.194 92.4425 115.628 97.6588 113.468C102.875 111.307 107.333 107.648 110.47 102.954C113.607 98.259 115.281 92.7398 115.281 87.0938C115.273 79.5252 112.263 72.269 106.911 66.9172C101.559 61.5654 94.3029 58.5552 86.7344 58.5469ZM99.8143 83.0156L85.7203 94.7185C85.3475 95.0268 84.8874 95.2104 84.4047 95.2433C83.9221 95.2762 83.4413 95.1568 83.0301 94.902L73.91 89.2334C73.6306 89.0847 73.3847 88.8802 73.1875 88.6325C72.9904 88.3849 72.8462 88.0993 72.7639 87.7937C72.6817 87.488 72.6631 87.1687 72.7094 86.8555C72.7557 86.5423 72.8658 86.242 73.0329 85.9732C73.2 85.7044 73.4206 85.4727 73.681 85.2927C73.9413 85.1126 74.2359 84.9879 74.5464 84.9264C74.8569 84.8649 75.1768 84.8678 75.4861 84.935C75.7954 85.0022 76.0877 85.1322 76.3447 85.317L84.0523 90.1088L96.8685 79.469C97.3435 79.128 97.9301 78.9797 98.5102 79.054C99.0902 79.1284 99.6204 79.4198 99.994 79.8697C100.368 80.3195 100.557 80.8942 100.524 81.478C100.49 82.0618 100.237 82.6113 99.8143 83.0156Z" fill="url(#paint0_linear_1101_96)" fill-opacity="0.65"/>
</g>
<defs>
<filter id="filter0_bddddddd_1101_96" x="0.731846" y="0.0192833" width="129.888" height="129.888" filterUnits="userSpaceOnUse" color-interpolation-filters="sRGB">
<feFlood flood-opacity="0" result="BackgroundImageFix"/>
<feGaussianBlur in="BackgroundImage" stdDeviation="3"/>
<feComposite in2="SourceAlpha" operator="in" result="effect1_backgroundBlur_1101_96"/>
<feColorMatrix in="SourceAlpha" type="matrix" values="0 0 0 0 0 0 0 0 0 0 0 0 0 0 0 0 0 0 127 0" result="hardAlpha"/>
<feOffset dx="-0.294048" dy="-0.309016"/>
<feGaussianBlur stdDeviation="0.82793"/>
<feColorMatrix type="matrix" values="0 0 0 0 0.462745 0 0 0 0 0.72549 0 0 0 0 0.356863 0 0 0 0.0400313 0"/>
<feBlend mode="normal" in2="effect1_backgroundBlur_1101_96" result="effect2_dropShadow_1101_96"/>
<feColorMatrix in="SourceAlpha" type="matrix" values="0 0 0 0 0 0 0 0 0 0 0 0 0 0 0 0 0 0 127 0" result="hardAlpha"/>
<feOffset dx="-1.26667" dy="-1.33115"/>
<feGaussianBlur stdDeviation="1.56094"/>
<feColorMatrix type="matrix" values="0 0 0 0 0.462745 0 0 0 0 0.72549 0 0 0 0 0.356863 0 0 0 0.06825 0"/>
<feBlend mode="normal" in2="effect2_dropShadow_1101_96" result="effect3_dropShadow_1101_96"/>
<feColorMatrix in="SourceAlpha" type="matrix" values="0 0 0 0 0 0 0 0 0 0 0 0 0 0 0 0 0 0 127 0" result="hardAlpha"/>
<feOffset dx="-3.05358" dy="-3.20902"/>
<feGaussianBlur stdDeviation="2.61035"/>
<feColorMatrix type="matrix" values="0 0 0 0 0.462745 0 0 0 0 0.72549 0 0 0 0 0.356863 0 0 0 0.0885938 0"/>
<feBlend mode="normal" in2="effect3_dropShadow_1101_96" result="effect4_dropShadow_1101_96"/>
<feColorMatrix in="SourceAlpha" type="matrix" values="0 0 0 0 0 0 0 0 0 0 0 0 0 0 0 0 0 0 127 0" result="hardAlpha"/>
<feOffset dx="-5.79049" dy="-6.08525"/>
<feGaussianBlur stdDeviation="4.3875"/>
<feColorMatrix type="matrix" values="0 0 0 0 0.462745 0 0 0 0 0.72549 0 0 0 0 0.356863 0 0 0 0.105 0"/>
<feBlend mode="normal" in2="effect4_dropShadow_1101_96" result="effect5_dropShadow_1101_96"/>
<feColorMatrix in="SourceAlpha" type="matrix" values="0 0 0 0 0 0 0 0 0 0 0 0 0 0 0 0 0 0 127 0" result="hardAlpha"/>
<feOffset dx="-9.61312" dy="-10.1025"/>
<feGaussianBlur stdDeviation="7.30371"/>
<feColorMatrix type="matrix" values="0 0 0 0 0.462745 0 0 0 0 0.72549 0 0 0 0 0.356863 0 0 0 0.121406 0"/>
<feBlend mode="normal" in2="effect5_dropShadow_1101_96" result="effect6_dropShadow_1101_96"/>
<feColorMatrix in="SourceAlpha" type="matrix" values="0 0 0 0 0 0 0 0 0 0 0 0 0 0 0 0 0 0 127 0" result="hardAlpha"/>
<feOffset dx="-14.6572" dy="-15.4033"/>
<feGaussianBlur stdDeviation="11.7703"/>
<feColorMatrix type="matrix" values="0 0 0 0 0.462745 0 0 0 0 0.72549 0 0 0 0 0.356863 0 0 0 0.14175 0"/>
<feBlend mode="normal" in2="effect6_dropShadow_1101_96" result="effect7_dropShadow_1101_96"/>
<feColorMatrix in="SourceAlpha" type="matrix" values="0 0 0 0 0 0 0 0 0 0 0 0 0 0 0 0 0 0 127 0" result="hardAlpha"/>
<feOffset dx="-21.0584" dy="-22.1303"/>
<feGaussianBlur stdDeviation="18.1986"/>
<feColorMatrix type="matrix" values="0 0 0 0 0.462745 0 0 0 0 0.72549 0 0 0 0 0.356863 0 0 0 0.169969 0"/>
<feBlend mode="normal" in2="effect7_dropShadow_1101_96" result="effect8_dropShadow_1101_96"/>
<feBlend mode="normal" in="SourceGraphic" in2="effect8_dropShadow_1101_96" result="shape"/>
</filter>
<linearGradient id="paint0_linear_1101_96" x1="72" y1="68" x2="115" y2="125" gradientUnits="userSpaceOnUse">
<stop offset="0.415065" stop-color="#76B95B"/>
<stop offset="1" stop-color="#76B95B" stop-opacity="0"/>
</linearGradient>
</defs>
</svg>
