<svg width="85" height="85" viewBox="0 0 85 85" fill="none" xmlns="http://www.w3.org/2000/svg">
<path d="M66.9692 65.6094H65.6098V26.1875C65.6098 26.009 65.5747 25.8322 65.5064 25.6672C65.4381 25.5023 65.338 25.3524 65.2117 25.2262C65.0855 25.0999 64.9356 24.9998 64.7707 24.9315C64.6057 24.8632 64.4289 24.8281 64.2504 24.8281H50.6567C50.4781 24.8281 50.3013 24.8632 50.1364 24.9315C49.9714 24.9998 49.8216 25.0999 49.6953 25.2262C49.5691 25.3524 49.469 25.5023 49.4007 25.6672C49.3324 25.8322 49.2972 26.009 49.2973 26.1875V65.6094H46.5785V39.7812C46.5786 39.6027 46.5435 39.4259 46.4752 39.261C46.4069 39.096 46.3067 38.9462 46.1805 38.8199C46.0542 38.6937 45.9044 38.5936 45.7394 38.5253C45.5745 38.457 45.3977 38.4218 45.2192 38.4219H31.6254C31.4469 38.4218 31.2701 38.457 31.1051 38.5253C30.9402 38.5936 30.7903 38.6937 30.6641 38.8199C30.5378 38.9462 30.4377 39.096 30.3694 39.261C30.3011 39.4259 30.266 39.6027 30.266 39.7812V65.6094H22.9858C24.9578 64.0215 26.3887 61.8609 27.081 59.4256C27.7733 56.9902 27.693 54.4 26.8512 52.0122C26.0094 49.6244 24.4475 47.5566 22.3809 46.0939C20.3143 44.6312 17.8448 43.8457 15.3129 43.8457C12.7811 43.8457 10.3116 44.6312 8.24496 46.0939C6.17836 47.5566 4.61645 49.6244 3.77462 52.0122C2.93279 54.4 2.8525 56.9902 3.54483 59.4256C4.23716 61.8609 5.668 64.0215 7.64004 65.6094H1.71917C1.35864 65.6094 1.01287 65.7526 0.757942 66.0075C0.50301 66.2625 0.35979 66.6082 0.35979 66.9688C0.35979 67.3293 0.50301 67.675 0.757942 67.93C1.01287 68.1849 1.35864 68.3281 1.71917 68.3281H66.9692C67.3297 68.3281 67.6755 68.1849 67.9304 67.93C68.1853 67.675 68.3285 67.3293 68.3285 66.9688C68.3285 66.6082 68.1853 66.2625 67.9304 66.0075C67.6755 65.7526 67.3297 65.6094 66.9692 65.6094ZM5.79729 56.0938C5.79729 54.2117 6.35537 52.372 7.40096 50.8072C8.44655 49.2423 9.93269 48.0227 11.6714 47.3025C13.4102 46.5822 15.3235 46.3938 17.1693 46.761C19.0152 47.1281 20.7107 48.0344 22.0415 49.3652C23.3723 50.696 24.2785 52.3915 24.6457 54.2373C25.0129 56.0832 24.8244 57.9965 24.1042 59.7352C23.384 61.474 22.1643 62.9601 20.5995 64.0057C19.0347 65.0513 17.1949 65.6094 15.3129 65.6094C12.7901 65.6064 10.3715 64.603 8.5876 62.8191C6.80371 61.0352 5.80023 58.6165 5.79729 56.0938ZM32.9848 65.6094V41.1406H43.8598V65.6094H32.9848ZM52.016 65.6094V27.5469H62.891V65.6094H52.016Z" fill="#AFE1BD"/>
<path d="M15.3129 49.2969C14.9524 49.2969 14.6066 49.4401 14.3517 49.695C14.0968 49.95 13.9535 50.2957 13.9535 50.6562C13.9535 51.0168 14.0968 51.3625 14.3517 51.6175C14.6066 51.8724 14.9524 52.0156 15.3129 52.0156C16.3941 52.0168 17.4307 52.4468 18.1953 53.2114C18.9598 53.9759 19.3899 55.0125 19.391 56.0938C19.391 56.4543 19.5343 56.8 19.7892 57.055C20.0441 57.3099 20.3899 57.4531 20.7504 57.4531C21.1109 57.4531 21.4567 57.3099 21.7116 57.055C21.9666 56.8 22.1098 56.4543 22.1098 56.0938C22.1077 54.2918 21.3909 52.5642 20.1167 51.29C18.8425 50.0158 17.1149 49.299 15.3129 49.2969Z" fill="#AFE1BD"/>
<path d="M15.3129 60.1719C14.2317 60.1707 13.1951 59.7407 12.4306 58.9761C11.666 58.2116 11.236 57.175 11.2348 56.0938C11.2348 55.7332 11.0916 55.3875 10.8366 55.1325C10.5817 54.8776 10.2359 54.7344 9.87542 54.7344C9.51489 54.7344 9.16913 54.8776 8.91419 55.1325C8.65926 55.3875 8.51604 55.7332 8.51604 56.0938C8.51816 57.8957 9.23494 59.6233 10.5091 60.8975C11.7833 62.1717 13.5109 62.8885 15.3129 62.8906C15.6734 62.8906 16.0192 62.7474 16.2741 62.4925C16.5291 62.2375 16.6723 61.8918 16.6723 61.5312C16.6723 61.1707 16.5291 60.825 16.2741 60.57C16.0192 60.3151 15.6734 60.1719 15.3129 60.1719Z" fill="#AFE1BD"/>
<path d="M66.9692 0.359375H58.8129C58.4524 0.359375 58.1066 0.502595 57.8517 0.757527C57.5968 1.01246 57.4535 1.35822 57.4535 1.71875C57.4535 2.07928 57.5968 2.42504 57.8517 2.67997C58.1066 2.93491 58.4524 3.07813 58.8129 3.07813H63.7349C58.9805 7.97596 34.8334 31.4605 1.38995 39.8218C1.21579 39.8641 1.05172 39.9404 0.907174 40.0464C0.76263 40.1524 0.64047 40.2859 0.547723 40.4393C0.454976 40.5926 0.393473 40.7628 0.366753 40.94C0.340034 41.1173 0.348625 41.298 0.392033 41.4719C0.43544 41.6458 0.512807 41.8094 0.619682 41.9533C0.726556 42.0972 0.860828 42.2185 1.01477 42.3103C1.16871 42.4021 1.33929 42.4625 1.51668 42.4881C1.69407 42.5137 1.87477 42.504 2.04839 42.4595C35.9377 33.9869 60.4842 10.3051 65.6098 5.04699V9.875C65.6098 10.2355 65.753 10.5813 66.0079 10.8362C66.2629 11.0912 66.6086 11.2344 66.9692 11.2344C67.3297 11.2344 67.6755 11.0912 67.9304 10.8362C68.1853 10.5813 68.3285 10.2355 68.3285 9.875V1.71875C68.3286 1.54022 68.2935 1.36343 68.2252 1.19848C68.1569 1.03353 68.0567 0.883659 67.9305 0.757419C67.8043 0.63118 67.6544 0.531051 67.4894 0.462753C67.3245 0.394455 67.1477 0.359327 66.9692 0.359375Z" fill="#AFE1BD"/>
<path d="M13.9535 7.15625H28.9067C29.2672 7.15625 29.6129 7.01303 29.8679 6.7581C30.1228 6.50316 30.266 6.1574 30.266 5.79687C30.266 5.43635 30.1228 5.09058 29.8679 4.83565C29.6129 4.58072 29.2672 4.4375 28.9067 4.4375H13.9535C13.593 4.4375 13.2472 4.58072 12.9923 4.83565C12.7374 5.09058 12.5942 5.43635 12.5942 5.79687C12.5942 6.1574 12.7374 6.50316 12.9923 6.7581C13.2472 7.01303 13.593 7.15625 13.9535 7.15625Z" fill="#AFE1BD"/>
<path d="M13.9535 12.5938H28.9067C29.2672 12.5938 29.6129 12.4505 29.8679 12.1956C30.1228 11.9407 30.266 11.5949 30.266 11.2344C30.266 10.8738 30.1228 10.5281 29.8679 10.2732C29.6129 10.0182 29.2672 9.875 28.9067 9.875H13.9535C13.593 9.875 13.2472 10.0182 12.9923 10.2732C12.7374 10.5281 12.5942 10.8738 12.5942 11.2344C12.5942 11.5949 12.7374 11.9407 12.9923 12.1956C13.2472 12.4505 13.593 12.5938 13.9535 12.5938Z" fill="#AFE1BD"/>
<path d="M1.71917 7.15625H8.51604C8.87657 7.15625 9.22233 7.01303 9.47726 6.7581C9.73219 6.50316 9.87541 6.1574 9.87541 5.79687C9.87541 5.43635 9.73219 5.09058 9.47726 4.83565C9.22233 4.58072 8.87657 4.4375 8.51604 4.4375H1.71917C1.35864 4.4375 1.01287 4.58072 0.757942 4.83565C0.50301 5.09058 0.35979 5.43635 0.35979 5.79687C0.35979 6.1574 0.50301 6.50316 0.757942 6.7581C1.01287 7.01303 1.35864 7.15625 1.71917 7.15625Z" fill="#AFE1BD"/>
<path d="M1.71917 12.5938H8.51604C8.87657 12.5938 9.22233 12.4505 9.47726 12.1956C9.73219 11.9407 9.87541 11.5949 9.87541 11.2344C9.87541 10.8738 9.73219 10.5281 9.47726 10.2732C9.22233 10.0182 8.87657 9.875 8.51604 9.875H1.71917C1.35864 9.875 1.01287 10.0182 0.757942 10.2732C0.50301 10.5281 0.35979 10.8738 0.35979 11.2344C0.35979 11.5949 0.50301 11.9407 0.757942 12.1956C1.01287 12.4505 1.35864 12.5938 1.71917 12.5938Z" fill="#AFE1BD"/>
<path d="M1.71917 18.0312H8.51604C8.87657 18.0312 9.22233 17.888 9.47726 17.6331C9.73219 17.3782 9.87541 17.0324 9.87541 16.6719C9.87541 16.3113 9.73219 15.9656 9.47726 15.7107C9.22233 15.4557 8.87657 15.3125 8.51604 15.3125H1.71917C1.35864 15.3125 1.01287 15.4557 0.757942 15.7107C0.50301 15.9656 0.35979 16.3113 0.35979 16.6719C0.35979 17.0324 0.50301 17.3782 0.757942 17.6331C1.01287 17.888 1.35864 18.0312 1.71917 18.0312Z" fill="#AFE1BD"/>
<path d="M84.4232 44.484L72.1889 25.4527C72.0582 25.2718 71.8864 25.1245 71.6877 25.0229C71.489 24.9213 71.269 24.8683 71.0459 24.8683C70.8227 24.8683 70.6027 24.9213 70.404 25.0229C70.2053 25.1245 70.0335 25.2718 69.9029 25.4527L57.6685 44.484C57.5367 44.6893 57.4626 44.9263 57.454 45.1702C57.4453 45.414 57.5024 45.6557 57.6193 45.8698C57.7362 46.084 57.9086 46.2627 58.1183 46.3874C58.3281 46.512 58.5675 46.5779 58.8115 46.5781H62.8896V83.2813C62.8896 83.4598 62.9247 83.6366 62.993 83.8015C63.0613 83.9665 63.1614 84.1164 63.2877 84.2426C63.4139 84.3688 63.5638 84.469 63.7287 84.5373C63.8937 84.6056 64.0705 84.6407 64.249 84.6406H77.8427C78.0213 84.6407 78.1981 84.6056 78.363 84.5373C78.528 84.469 78.6778 84.3688 78.8041 84.2426C78.9303 84.1164 79.0304 83.9665 79.0987 83.8015C79.167 83.6366 79.2022 83.4598 79.2021 83.2813V46.5781H83.2802C83.5242 46.5779 83.7636 46.512 83.9734 46.3874C84.1832 46.2628 84.3555 46.084 84.4724 45.8698C84.5893 45.6557 84.6464 45.414 84.6378 45.1702C84.6291 44.9263 84.555 44.6893 84.4232 44.484Z" fill="url(#paint0_linear_1701_3)" fill-opacity="0.65"/>
<path d="M47.7201 34.9683C47.5894 34.7874 47.4177 34.6401 47.219 34.5385C47.0203 34.4369 46.8003 34.3839 46.5771 34.3839C46.3539 34.3839 46.134 34.4369 45.9352 34.5385C45.7365 34.6401 45.5648 34.7874 45.4341 34.9683L33.1997 53.9996C33.068 54.2049 32.9939 54.442 32.9852 54.6858C32.9766 54.9296 33.0337 55.1713 33.1506 55.3854C33.2675 55.5996 33.4398 55.7784 33.6496 55.903C33.8593 56.0276 34.0988 56.0935 34.3427 56.0938H38.4209V83.2813C38.4208 83.4598 38.4559 83.6366 38.5242 83.8015C38.5925 83.9665 38.6927 84.1164 38.8189 84.2426C38.9451 84.3688 39.095 84.469 39.26 84.5373C39.4249 84.6056 39.6017 84.6407 39.7802 84.6406H53.374C53.5525 84.6407 53.7293 84.6056 53.8943 84.5373C54.0592 84.469 54.2091 84.3688 54.3353 84.2426C54.4616 84.1164 54.5617 83.9665 54.63 83.8015C54.6983 83.6366 54.7334 83.4598 54.7334 83.2813V56.0938H58.8115C59.0555 56.0935 59.2949 56.0276 59.5047 55.903C59.7144 55.7784 59.8868 55.5996 60.0037 55.3855C60.1206 55.1713 60.1777 54.9296 60.169 54.6858C60.1604 54.442 60.0863 54.2049 59.9545 53.9996L47.7201 34.9683Z" fill="url(#paint1_linear_1701_3)" fill-opacity="0.65"/>
<defs>
<linearGradient id="paint0_linear_1701_3" x1="45.4809" y1="34.7649" x2="91.8694" y2="87.9049" gradientUnits="userSpaceOnUse">
<stop offset="0.415065" stop-color="#76B95B"/>
<stop offset="1" stop-color="#76B95B" stop-opacity="0"/>
</linearGradient>
<linearGradient id="paint1_linear_1701_3" x1="45.4809" y1="34.7649" x2="91.8694" y2="87.9049" gradientUnits="userSpaceOnUse">
<stop offset="0.415065" stop-color="#76B95B"/>
<stop offset="1" stop-color="#76B95B" stop-opacity="0"/>
</linearGradient>
</defs>
</svg>
