<svg width="85" height="85" viewBox="0 0 85 85" fill="none" xmlns="http://www.w3.org/2000/svg">
<path d="M39.7817 0.359374C34.7426 0.349031 29.7909 1.67549 25.4317 4.20345C21.0725 6.73141 17.4618 10.3704 14.968 14.7492C12.4742 19.128 11.1865 24.09 11.2362 29.1289C11.2859 34.1678 12.6713 39.1033 15.2511 43.4321C14.7567 43.7623 16.5131 42.1508 2.4467 56.1628C1.11021 57.4993 0.359375 59.312 0.359375 61.202C0.359375 63.0921 1.11021 64.9048 2.4467 66.2413C3.78319 67.5778 5.59586 68.3286 7.48594 68.3286C9.37603 68.3286 11.1887 67.5778 12.5252 66.2413C26.5372 52.1748 24.9245 53.9331 25.2559 53.4369C29.0333 55.6747 33.2761 57.0105 37.6542 57.3404C42.0323 57.6702 46.4274 56.9853 50.4975 55.3387C54.5675 53.6922 58.2027 51.1286 61.1199 47.8474C64.0371 44.5663 66.1578 40.6561 67.3167 36.4213C68.4756 32.1866 68.6416 27.7415 67.8017 23.4321C66.9618 19.1227 65.1386 15.0653 62.4742 11.5757C59.8097 8.08618 56.3759 5.25862 52.44 3.31317C48.504 1.36773 44.1722 0.3569 39.7817 0.359374ZM10.603 64.319C9.77608 65.1448 8.65515 65.6085 7.48655 65.6081C6.31796 65.6077 5.19734 65.1433 4.37102 64.317C3.5447 63.4906 3.08031 62.37 3.07992 61.2014C3.07953 60.0328 3.54317 58.9119 4.36894 58.085L11.9145 50.5394L18.1485 56.7734L10.603 64.319ZM20.0708 54.8512L13.8368 48.6172L16.7509 45.703C18.496 48.0893 20.5987 50.192 22.9849 51.9371L20.0708 54.8512ZM39.7817 54.7344C34.6734 54.7344 29.6798 53.2196 25.4324 50.3816C21.185 47.5435 17.8745 43.5097 15.9196 38.7902C13.9648 34.0708 13.4533 28.8776 14.4499 23.8674C15.4465 18.8573 17.9063 14.2551 21.5185 10.643C25.1306 7.03088 29.7327 4.57099 34.7429 3.5744C39.7531 2.57782 44.9462 3.0893 49.6657 5.04417C54.3852 6.99904 58.419 10.3095 61.257 14.5569C64.0951 18.8043 65.6099 23.7979 65.6099 28.9063C65.6021 35.7539 62.8784 42.3189 58.0364 47.1609C53.1943 52.0029 46.6294 54.7266 39.7817 54.7344Z" fill="#AFE1BD"/>
<path d="M45.1035 28.634C46.7928 27.4943 48.0717 25.8425 48.7518 23.9215C49.4319 22.0005 49.4774 19.9119 48.8815 17.9632C48.2856 16.0144 47.0799 14.3084 45.4417 13.0963C43.8036 11.8842 41.8196 11.23 39.7818 11.23C37.7439 11.23 35.76 11.8842 34.1218 13.0963C32.4837 14.3084 31.2779 16.0144 30.682 17.9632C30.0862 19.9119 30.1316 22.0005 30.8117 23.9215C31.4919 25.8425 32.7707 27.4943 34.46 28.634C32.0083 29.6799 29.9175 31.4226 28.447 33.6458C26.9765 35.8691 26.191 38.4751 26.188 41.1406C26.188 41.5012 26.3312 41.8469 26.5861 42.1018C26.841 42.3568 27.1868 42.5 27.5473 42.5C27.9079 42.5 28.2536 42.3568 28.5086 42.1018C28.7635 41.8469 28.9067 41.5012 28.9067 41.1406C28.9069 39.6803 29.2022 38.2351 29.7749 36.8918C30.3476 35.5485 31.186 34.3348 32.2395 33.3236C33.1237 34.4858 34.2644 35.4279 35.5727 36.0765C36.881 36.725 38.3215 37.0625 39.7817 37.0625C41.242 37.0625 42.6825 36.7251 43.9908 36.0765C45.2991 35.428 46.4398 34.4859 47.324 33.3237C48.3775 34.3349 49.2158 35.5486 49.7885 36.8919C50.3612 38.2352 50.6566 39.6803 50.6567 41.1406C50.6567 41.5012 50.7999 41.8469 51.0549 42.1018C51.3098 42.3568 51.6556 42.5 52.0161 42.5C52.3766 42.5 52.7224 42.3568 52.9773 42.1018C53.2322 41.8469 53.3755 41.5012 53.3755 41.1406C53.3724 38.4751 52.587 35.8691 51.1165 33.6458C49.646 31.4226 47.5552 29.6799 45.1035 28.634ZM46.3817 19.1937C45.1563 18.9027 44.0359 18.277 43.1453 17.3864C42.2547 16.4959 41.629 15.3754 41.338 14.15C42.5634 14.441 43.6838 15.0667 44.5744 15.9573C45.465 16.8479 46.0907 17.9684 46.3817 19.1937ZM38.2254 14.15C37.9344 15.3754 37.3087 16.4959 36.4181 17.3864C35.5276 18.277 34.4071 18.9027 33.1817 19.1937C33.4728 17.9684 34.0985 16.8479 34.989 15.9573C35.8796 15.0667 37.0001 14.441 38.2254 14.15ZM33.1094 21.9817C34.4837 21.7628 35.7934 21.2453 36.9462 20.4657C38.099 19.6861 39.0669 18.6633 39.7817 17.4692C40.4966 18.6632 41.4645 19.6861 42.6173 20.4657C43.7701 21.2453 45.0797 21.7628 46.4541 21.9817C46.1691 23.5436 45.3452 24.956 44.126 25.9729C42.9067 26.9899 41.3694 27.5468 39.7817 27.5468C38.194 27.5468 36.6567 26.9899 35.4374 25.9729C34.2182 24.956 33.3943 23.5436 33.1094 21.9817ZM39.7817 34.3438C38.7435 34.344 37.7192 34.1053 36.788 33.6461C35.8569 33.187 35.044 32.5196 34.4122 31.6958C36.0466 30.7587 37.8978 30.2656 39.7818 30.2656C41.6658 30.2656 43.517 30.7587 45.1514 31.6959C44.5195 32.5196 43.7065 33.1869 42.7754 33.6461C41.8442 34.1053 40.8199 34.344 39.7817 34.3438Z" fill="#AFE1BD"/>
<path d="M84.2406 38.8184L72.0097 26.5875C71.7543 26.3321 71.4081 26.1883 71.0469 26.1875H45.2188C44.1375 26.1887 43.1009 26.6187 42.3364 27.3833C41.5718 28.1478 41.1418 29.1844 41.1406 30.2656V80.5625C41.1418 81.6437 41.5718 82.6803 42.3364 83.4449C43.1009 84.2094 44.1375 84.6394 45.2188 84.6406H80.5625C81.6437 84.6394 82.6803 84.2094 83.4449 83.4449C84.2094 82.6803 84.6394 81.6437 84.6406 80.5625V39.7812C84.6398 39.42 84.496 39.0739 84.2406 38.8184ZM62.8906 73.7656H50.6562C50.2957 73.7656 49.95 73.6224 49.695 73.3675C49.4401 73.1125 49.2969 72.7668 49.2969 72.4062C49.2969 72.0457 49.4401 71.7 49.695 71.445C49.95 71.1901 50.2957 71.0469 50.6562 71.0469H62.8906C63.2512 71.0469 63.5969 71.1901 63.8518 71.445C64.1068 71.7 64.25 72.0457 64.25 72.4062C64.25 72.7668 64.1068 73.1125 63.8518 73.3675C63.5969 73.6224 63.2512 73.7656 62.8906 73.7656ZM62.8906 64.25H50.6562C50.2957 64.25 49.95 64.1068 49.695 63.8518C49.4401 63.5969 49.2969 63.2512 49.2969 62.8906C49.2969 62.5301 49.4401 62.1843 49.695 61.9294C49.95 61.6745 50.2957 61.5312 50.6562 61.5312H62.8906C63.2512 61.5312 63.5969 61.6745 63.8518 61.9294C64.1068 62.1843 64.25 62.5301 64.25 62.8906C64.25 63.2512 64.1068 63.5969 63.8518 63.8518C63.5969 64.1068 63.2512 64.25 62.8906 64.25ZM62.8906 54.7344H52.0156C51.6551 54.7344 51.3093 54.5912 51.0544 54.3362C50.7995 54.0813 50.6562 53.7355 50.6562 53.375C50.6562 53.0145 50.7995 52.6687 51.0544 52.4138C51.3093 52.1588 51.6551 52.0156 52.0156 52.0156H62.8906C63.2512 52.0156 63.5969 52.1588 63.8518 52.4138C64.1068 52.6687 64.25 53.0145 64.25 53.375C64.25 53.7355 64.1068 54.0813 63.8518 54.3362C63.5969 54.5912 63.2512 54.7344 62.8906 54.7344ZM76.2122 70.5026L72.1341 75.9401C72.0173 76.0959 71.8684 76.2248 71.6974 76.318C71.5265 76.4112 71.3375 76.4667 71.1433 76.4805C70.949 76.4943 70.7541 76.4663 70.5717 76.3982C70.3892 76.3302 70.2235 76.2237 70.0858 76.0861L67.367 73.3673C67.116 73.1116 66.976 72.7672 66.9776 72.4088C66.9792 72.0504 67.1223 71.7072 67.3757 71.4538C67.6291 71.2004 67.9723 71.0574 68.3307 71.0557C68.689 71.0541 69.0335 71.1941 69.2892 71.4452L70.8995 73.0554L74.0377 68.8724C74.1446 68.7291 74.2786 68.6083 74.4322 68.5168C74.5859 68.4254 74.756 68.3652 74.9329 68.3396C75.1099 68.314 75.2901 68.3236 75.4633 68.3678C75.6365 68.412 75.7993 68.49 75.9424 68.5972C76.0854 68.7045 76.2059 68.8389 76.2969 68.9927C76.3879 69.1466 76.4476 69.3169 76.4727 69.4939C76.4977 69.6709 76.4876 69.8512 76.4429 70.0242C76.3982 70.1973 76.3199 70.3599 76.2122 70.5026ZM76.2122 60.987L72.1341 66.4245C72.0173 66.5803 71.8684 66.7091 71.6974 66.8024C71.5265 66.8956 71.3375 66.951 71.1433 66.9649C70.949 66.9787 70.7541 66.9507 70.5717 66.8826C70.3892 66.8146 70.2235 66.7081 70.0858 66.5705L67.367 63.8517C67.116 63.596 66.976 63.2515 66.9776 62.8932C66.9792 62.5348 67.1223 62.1916 67.3757 61.9382C67.6291 61.6848 67.9723 61.5417 68.3307 61.5401C68.689 61.5385 69.0335 61.6785 69.2892 61.9295L70.8995 63.5398L74.0377 59.3568C74.1446 59.2135 74.2786 59.0926 74.4322 59.0012C74.5859 58.9098 74.756 58.8495 74.9329 58.824C75.1099 58.7984 75.2901 58.808 75.4633 58.8522C75.6365 58.8964 75.7993 58.9744 75.9424 59.0816C76.0854 59.1888 76.2059 59.3232 76.2969 59.4771C76.3879 59.631 76.4476 59.8013 76.4727 59.9783C76.4977 60.1553 76.4876 60.3355 76.4429 60.5086C76.3982 60.6817 76.3199 60.8442 76.2122 60.987ZM76.2122 51.4713L72.1341 56.9088C72.0173 57.0646 71.8684 57.1935 71.6974 57.2868C71.5265 57.38 71.3375 57.4354 71.1433 57.4492C70.949 57.4631 70.7541 57.435 70.5717 57.367C70.3892 57.2989 70.2235 57.1925 70.0858 57.0548L67.367 54.3361C67.116 54.0804 66.976 53.7359 66.9776 53.3776C66.9792 53.0192 67.1223 52.676 67.3757 52.4226C67.6291 52.1692 67.9723 52.0261 68.3307 52.0245C68.689 52.0229 69.0335 52.1628 69.2892 52.4139L70.8995 54.0242L74.0377 49.8412C74.1446 49.6979 74.2786 49.577 74.4322 49.4856C74.5859 49.3941 74.756 49.3339 74.9329 49.3083C75.1099 49.2828 75.2901 49.2924 75.4633 49.3366C75.6365 49.3808 75.7993 49.4588 75.9424 49.566C76.0854 49.6732 76.2059 49.8076 76.2969 49.9615C76.3879 50.1154 76.4476 50.2857 76.4727 50.4627C76.4977 50.6397 76.4876 50.8199 76.4429 50.993C76.3982 51.1661 76.3199 51.3286 76.2122 51.4713ZM73.7656 38.4219C73.4052 38.4216 73.0596 38.2783 72.8047 38.0235C72.5498 37.7686 72.4065 37.423 72.4062 37.0625V30.8285L79.9996 38.4219H73.7656Z" fill="url(#paint0_linear_1701_2)" fill-opacity="0.65"/>
<defs>
<linearGradient id="paint0_linear_1701_2" x1="51.6644" y1="35.8657" x2="97.4442" y2="81.0265" gradientUnits="userSpaceOnUse">
<stop offset="0.415065" stop-color="#76B95B"/>
<stop offset="1" stop-color="#76B95B" stop-opacity="0"/>
</linearGradient>
</defs>
</svg>
