<svg width="87" height="87" viewBox="0 0 87 87" fill="none" xmlns="http://www.w3.org/2000/svg">
<path d="M36.7031 40.7812H14.9531C11.7096 40.7852 8.60002 42.0755 6.30649 44.369C4.01295 46.6625 2.72271 49.7721 2.71875 53.0156V65.25C2.71875 66.3316 3.14841 67.3689 3.91321 68.1337C4.678 68.8985 5.71529 69.3281 6.79688 69.3281H44.8594C45.941 69.3281 46.9782 68.8985 47.743 68.1337C48.5078 67.3689 48.9375 66.3316 48.9375 65.25V53.0156C48.9335 49.7721 47.6433 46.6625 45.3498 44.369C43.0562 42.0755 39.9467 40.7852 36.7031 40.7812ZM46.2188 65.25C46.2188 65.6105 46.0755 65.9563 45.8206 66.2112C45.5657 66.4662 45.2199 66.6094 44.8594 66.6094H6.79688C6.43635 66.6094 6.09058 66.4662 5.83565 66.2112C5.58072 65.9563 5.4375 65.6105 5.4375 65.25V53.0156C5.44038 50.4928 6.44384 48.0741 8.22774 46.2902C10.0116 44.5063 12.4303 43.5029 14.9531 43.5H36.7031C39.2259 43.5029 41.6446 44.5063 43.4285 46.2902C45.2124 48.0741 46.2159 50.4928 46.2188 53.0156V65.25Z" fill="#AFE1BD"/>
<path d="M25.8282 36.7031C29.6484 36.6988 33.311 35.1793 36.0124 32.4779C38.7137 29.7766 40.2332 26.114 40.2375 22.2937V15.7688C40.2375 11.9471 38.7194 8.28207 36.0171 5.57978C33.3148 2.8775 29.6498 1.35938 25.8282 1.35938C22.0066 1.35938 18.3415 2.8775 15.6392 5.57978C12.9369 8.28207 11.4188 11.9471 11.4188 15.7688V22.2937C11.4231 26.114 12.9426 29.7766 15.644 32.4779C18.3453 35.1793 22.0079 36.6988 25.8282 36.7031ZM14.1375 15.7688C14.1375 12.6682 15.3692 9.69465 17.5616 7.50223C19.7541 5.30981 22.7276 4.07812 25.8282 4.07812C28.9287 4.07812 31.9023 5.30981 34.0947 7.50223C36.2871 9.69465 37.5188 12.6682 37.5188 15.7688V22.2937C37.5188 25.3943 36.2871 28.3679 34.0947 30.5603C31.9023 32.7527 28.9287 33.9844 25.8282 33.9844C22.7276 33.9844 19.7541 32.7527 17.5616 30.5603C15.3692 28.3679 14.1375 25.3943 14.1375 22.2937V15.7688Z" fill="#AFE1BD"/>
<path d="M25.8281 29.9062C27.9906 29.9041 30.064 29.0441 31.5931 27.515C33.1222 25.9858 33.9822 23.9125 33.9844 21.75C33.9844 21.3895 33.8412 21.0437 33.5862 20.7888C33.3313 20.5338 32.9855 20.3906 32.625 20.3906C32.2645 20.3906 31.9187 20.5338 31.6638 20.7888C31.4088 21.0437 31.2656 21.3895 31.2656 21.75C31.2656 23.1921 30.6927 24.5752 29.673 25.5949C28.6533 26.6146 27.2702 27.1875 25.8281 27.1875C24.386 27.1875 23.003 26.6146 21.9832 25.5949C20.9635 24.5752 20.3906 23.1921 20.3906 21.75C20.3906 21.3895 20.2474 21.0437 19.9925 20.7888C19.7375 20.5338 19.3918 20.3906 19.0312 20.3906C18.6707 20.3906 18.325 20.5338 18.07 20.7888C17.8151 21.0437 17.6719 21.3895 17.6719 21.75C17.674 23.9125 18.534 25.9858 20.0632 27.515C21.5923 29.0441 23.6656 29.9041 25.8281 29.9062Z" fill="#AFE1BD"/>
<path d="M55.7344 28.5469C50.0883 28.5469 44.5691 30.2211 39.8746 33.3579C35.1801 36.4947 31.5212 40.9531 29.3605 46.1693C27.1999 51.3856 26.6345 57.1254 27.736 62.663C28.8375 68.2005 31.5563 73.2871 35.5487 77.2794C39.541 81.2718 44.6276 83.9906 50.1652 85.0921C55.7027 86.1936 61.4425 85.6283 66.6588 83.4676C71.8751 81.307 76.3335 77.6481 79.4702 72.9535C82.607 68.259 84.2813 62.7398 84.2813 57.0938C84.273 49.5252 81.2627 42.269 75.9109 36.9172C70.5591 31.5654 63.3029 28.5552 55.7344 28.5469ZM68.8143 53.0156L54.7203 64.7185C54.3475 65.0268 53.8874 65.2104 53.4047 65.2433C52.9221 65.2762 52.4413 65.1568 52.0301 64.902L42.91 59.2334C42.6306 59.0847 42.3847 58.8802 42.1875 58.6325C41.9904 58.3849 41.8462 58.0993 41.7639 57.7937C41.6817 57.488 41.6631 57.1687 41.7094 56.8555C41.7557 56.5423 41.8658 56.242 42.0329 55.9732C42.2 55.7044 42.4206 55.4727 42.681 55.2927C42.9413 55.1126 43.2359 54.9879 43.5464 54.9264C43.8569 54.8649 44.1768 54.8678 44.4861 54.935C44.7954 55.0022 45.0877 55.1322 45.3447 55.317L53.0523 60.1088L65.8685 49.469C66.3435 49.128 66.9301 48.9797 67.5102 49.054C68.0902 49.1284 68.6204 49.4198 68.994 49.8697C69.3677 50.3195 69.5569 50.8942 69.5235 51.478C69.4901 52.0618 69.2367 52.6113 68.8143 53.0156Z" fill="url(#paint0_linear_1101_96)" fill-opacity="0.65"/>
<defs>
<linearGradient id="paint0_linear_1101_96" x1="41" y1="38" x2="84" y2="95" gradientUnits="userSpaceOnUse">
<stop offset="0.415065" stop-color="#76B95B"/>
<stop offset="1" stop-color="#76B95B" stop-opacity="0"/>
</linearGradient>
</defs>
</svg>
