<svg width="457" height="123" viewBox="0 0 457 123" fill="none" xmlns="http://www.w3.org/2000/svg">
<path d="M455 120.61C436.339 122.006 416.976 119.587 399.003 114.489C386.171 110.848 373.733 105.455 361.632 99.9138C347.004 93.2155 332.549 86.0029 319.415 76.6424C311.736 71.17 304.161 65.0876 297.519 58.3707C292.489 53.2839 287.268 46.941 286.193 39.5839C284.395 27.2873 298.088 23.3579 307.695 22.9181C319.068 22.3975 327.785 28.5698 333.982 37.7658C340.331 47.1877 341.673 60.7354 332.316 68.8246C322.456 77.3491 305.537 77.2935 293.461 75.4606C273.192 72.3842 254.639 61.8276 239.978 47.7652C237.483 45.3726 225.128 34.9659 229.621 30.2208C232.781 26.883 242.411 26.9859 245.914 29.6147C251.041 33.462 238.998 41.1656 236.768 42.3716C227.886 47.1754 217.363 49.3445 207.452 50.6135C190.874 52.7363 173.769 52.3349 157.24 50.0075C130.014 46.1741 101.165 37.5681 78.7417 21.1304C73.8116 17.5162 62.8303 8.1645 72.4727 2.94956C76.7143 0.655539 68.2197 3.21475 67.3546 3.40408C45.7729 8.12766 23.9691 10.5222 2 12.6157" stroke="white" stroke-width="3" stroke-linecap="round"/>
</svg>
