<svg width="267" height="67" viewBox="0 0 267 67" fill="none" xmlns="http://www.w3.org/2000/svg">
<path d="M264.827 1.76166C252.709 3.33814 240.536 4.31153 229.247 9.28643C218.413 14.0605 207.255 19.74 197.461 26.4114C191.803 30.2655 180.487 42.198 192.565 45.5483C205.182 49.0481 193.423 36.5999 188.794 33.9678C175.752 26.5516 158.971 24.6075 144.307 23.1081C134.702 22.126 115.964 20.3325 108.95 29.1937C96.3743 45.0802 157.163 61.9149 165.728 63.7233C166.653 63.9185 182.107 67.8825 175.832 63.0212C164.585 54.3096 148.122 50.6282 134.612 47.5664C113.34 42.7456 90.9412 39.2653 69.1274 38.4419C46.7962 37.5989 24.4195 39.8989 2.1157 40.6438" stroke="white" stroke-width="3" stroke-linecap="round"/>
</svg>
