<svg width="766" height="188" viewBox="0 0 766 188" fill="none" xmlns="http://www.w3.org/2000/svg">
<path d="M1.91113 185.961C25.3434 179.132 49.0687 173.479 69.8266 160.185C89.7466 147.427 110.031 132.779 127.319 116.589C137.307 107.235 155.99 80.1761 131.13 77.2514C105.161 74.1962 132.173 95.2069 142.113 98.9934C170.118 109.662 203.829 108.366 233.227 106.838C252.482 105.838 290.009 103.645 301.143 83.9757C321.103 48.7128 195.991 34.0472 178.536 33.0952C176.651 32.9924 144.94 29.8885 158.812 37.578C183.669 51.3579 217.285 53.594 244.883 55.5095C288.335 58.5255 333.603 58.5459 376.903 53.4922C421.231 48.3187 464.687 36.9169 508.475 28.6123C557.499 19.3147 606.878 9.6916 656.634 5.30136C692.498 2.13694 728.484 2.3875 764.447 2.3875" stroke="white" stroke-width="3" stroke-linecap="round"/>
</svg>
