<svg width="416" height="103" viewBox="0 0 416 103" fill="none" xmlns="http://www.w3.org/2000/svg">
<path d="M1.57031 101C14.2308 97.3173 27.0497 94.2687 38.2652 87.0993C49.028 80.2193 59.9878 72.3201 69.3287 63.5889C74.7251 58.5447 84.8194 43.9524 71.3875 42.3751C57.3562 40.7275 71.9513 52.0581 77.3216 54.1001C92.4527 59.8534 110.667 59.1543 126.551 58.3308C136.954 57.7913 157.23 56.6084 163.246 46.0014C174.03 26.9848 106.432 19.076 97.0012 18.5625C95.9829 18.5071 78.8493 16.8333 86.344 20.9801C99.7747 28.4113 117.937 29.6171 132.848 30.6501C156.326 32.2766 180.784 32.2876 204.179 29.5623C228.13 26.7723 251.609 20.6235 275.268 16.145C301.756 11.131 328.435 5.94148 355.319 3.57391C374.696 1.86741 394.139 2.00253 413.57 2.00253" stroke="white" stroke-width="3" stroke-linecap="round"/>
</svg>
