<svg width="457" height="123" viewBox="0 0 457 123" fill="none" xmlns="http://www.w3.org/2000/svg">
<path d="M2 120.61C20.6605 122.006 40.0244 119.587 57.9966 114.489C70.8289 110.848 83.2672 105.455 95.368 99.9138C109.996 93.2155 124.451 86.0029 137.585 76.6424C145.264 71.17 152.839 65.0876 159.481 58.3707C164.511 53.2839 169.732 46.941 170.807 39.5839C172.605 27.2873 158.912 23.3579 149.305 22.9181C137.932 22.3975 129.215 28.5698 123.018 37.7658C116.669 47.1877 115.327 60.7354 124.684 68.8246C134.544 77.3491 151.463 77.2935 163.539 75.4606C183.808 72.3842 202.361 61.8276 217.022 47.7652C219.517 45.3726 231.872 34.9659 227.379 30.2208C224.219 26.883 214.589 26.9859 211.086 29.6147C205.959 33.462 218.002 41.1656 220.232 42.3716C229.114 47.1754 239.637 49.3445 249.548 50.6135C266.126 52.7363 283.231 52.3349 299.76 50.0075C326.986 46.1741 355.835 37.5681 378.258 21.1304C383.188 17.5162 394.17 8.1645 384.527 2.94956C380.286 0.655539 388.78 3.21475 389.645 3.40408C411.227 8.12766 433.031 10.5222 455 12.6157" stroke="#76B95B" stroke-width="3" stroke-linecap="round"/>
</svg>
