
<svg>
    <symbol width="24" height="24" viewBox="0 0 24 24" id="phone" fill="none" xmlns="http://www.w3.org/2000/svg">
        <path d="M17 2H7C5.89543 2 5 2.89543 5 4V20C5 21.1046 5.89543 22 7 22H17C18.1046 22 19 21.1046 19 20V4C19 2.89543 18.1046 2 17 2Z" stroke="#1F383A" stroke-width="2" stroke-linecap="round" stroke-linejoin="round"/>
        <path d="M12 18H12.01" stroke="#1F383A" stroke-width="2" stroke-linecap="round" stroke-linejoin="round"/>
    </symbol>

    <symbol viewBox="0 0 26 12" id="arrow" xmlns="http://www.w3.org/2000/svg">
        <path d="M1 5.25H0.25V6.75H1V5.25ZM25.5303 6.53033C25.8232 6.23744 25.8232 5.76256 25.5303 5.46967L20.7574 0.696699C20.4645 0.403806 19.9896 0.403806 19.6967 0.696699C19.4038 0.989593 19.4038 1.46447 19.6967 1.75736L23.9393 6L19.6967 10.2426C19.4038 10.5355 19.4038 11.0104 19.6967 11.3033C19.9896 11.5962 20.4645 11.5962 20.7574 11.3033L25.5303 6.53033ZM1 6.75H25V5.25H1V6.75Z"/>
    </symbol>

    
    <svg width="54" height="18" viewBox="0 0 54 18" id="arrow2" xmlns="http://www.w3.org/2000/svg">
        <path d="M2 7.5H0.5V10.5H2V7.5ZM54 9L39 0.339746V17.6603L54 9ZM2 10.5H40.5V7.5H2V10.5Z"/>
    </svg>




</svg>