
<svg>
    <symbol width="24" height="24" viewBox="0 0 24 24" id="phone" fill="none" xmlns="http://www.w3.org/2000/svg">
        <path d="M17 2H7C5.89543 2 5 2.89543 5 4V20C5 21.1046 5.89543 22 7 22H17C18.1046 22 19 21.1046 19 20V4C19 2.89543 18.1046 2 17 2Z" stroke="#1F383A" stroke-width="2" stroke-linecap="round" stroke-linejoin="round"/>
        <path d="M12 18H12.01" stroke="#1F383A" stroke-width="2" stroke-linecap="round" stroke-linejoin="round"/>
    </symbol>

    <symbol viewBox="0 0 26 12" id="arrow" xmlns="http://www.w3.org/2000/svg">
        <path d="M1 5.25H0.25V6.75H1V5.25ZM25.5303 6.53033C25.8232 6.23744 25.8232 5.76256 25.5303 5.46967L20.7574 0.696699C20.4645 0.403806 19.9896 0.403806 19.6967 0.696699C19.4038 0.989593 19.4038 1.46447 19.6967 1.75736L23.9393 6L19.6967 10.2426C19.4038 10.5355 19.4038 11.0104 19.6967 11.3033C19.9896 11.5962 20.4645 11.5962 20.7574 11.3033L25.5303 6.53033ZM1 6.75H25V5.25H1V6.75Z"/>
    </symbol>

    
    <symbol width="54" height="18" viewBox="0 0 54 18" id="arrow2" xmlns="http://www.w3.org/2000/svg">
        <path d="M2 7.5H0.5V10.5H2V7.5ZM54 9L39 0.339746V17.6603L54 9ZM2 10.5H40.5V7.5H2V10.5Z"/>
    </symbol>

        
    <symbol width="24" height="24" viewBox="0 0 24 24" id="clipboard" fill="none" xmlns="http://www.w3.org/2000/svg">
        <path d="M16 4H18C18.5304 4 19.0391 4.21071 19.4142 4.58579C19.7893 4.96086 20 5.46957 20 6V20C20 20.5304 19.7893 21.0391 19.4142 21.4142C19.0391 21.7893 18.5304 22 18 22H6C5.46957 22 4.96086 21.7893 4.58579 21.4142C4.21071 21.0391 4 20.5304 4 20V6C4 5.46957 4.21071 4.96086 4.58579 4.58579C4.96086 4.21071 5.46957 4 6 4H8" stroke-width="2" stroke-linecap="round" stroke-linejoin="round"/>
        <path d="M15 2H9C8.73478 2 8.48043 2.10536 8.29289 2.29289C8.10536 2.48043 8 2.73478 8 3V5C8 5.26522 8.10536 5.51957 8.29289 5.70711C8.48043 5.89464 8.73478 6 9 6H15C15.2652 6 15.5196 5.89464 15.7071 5.70711C15.8946 5.51957 16 5.26522 16 5V3C16 2.73478 15.8946 2.48043 15.7071 2.29289C15.5196 2.10536 15.2652 2 15 2V2Z" stroke-width="2" stroke-linecap="round" stroke-linejoin="round"/>
        <path d="M9 13L11 15L15 11" stroke-width="2" stroke-linecap="round" stroke-linejoin="round"/>
    </symbol>

    
    <symbol width="24" height="24" viewBox="0 0 24 24" fill="none" id="message" xmlns="http://www.w3.org/2000/svg">
        <path d="M21 11.5C21.0034 12.8199 20.6951 14.1219 20.1 15.3C19.3944 16.7118 18.3098 17.8992 16.9674 18.7293C15.6251 19.5594 14.0782 19.9994 12.5 20C11.1801 20.0035 9.87812 19.6951 8.7 19.1L3 21L4.9 15.3C4.30493 14.1219 3.99656 12.8199 4 11.5C4.00061 9.92179 4.44061 8.37488 5.27072 7.03258C6.10083 5.69028 7.28825 4.6056 8.7 3.90003C9.87812 3.30496 11.1801 2.99659 12.5 3.00003H13C15.0843 3.11502 17.053 3.99479 18.5291 5.47089C20.0052 6.94699 20.885 8.91568 21 11V11.5Z" stroke-width="2" stroke-linecap="round" stroke-linejoin="round"/>
    </symbol>


</svg>