<svg width="747" height="256" viewBox="0 0 747 256" fill="none" xmlns="http://www.w3.org/2000/svg">
<path d="M1.52832 254.03C30.2947 245.874 58.1777 233.79 85.3043 221.375C118.095 206.367 150.499 190.208 179.943 169.235C197.156 156.974 214.139 143.347 229.027 128.298C240.302 116.901 252.007 102.69 254.418 86.2062C258.447 58.656 227.752 49.8522 206.216 48.8668C180.721 47.7004 161.179 61.5294 147.288 82.1328C133.055 103.242 130.047 133.596 151.022 151.72C173.125 170.819 211.053 170.694 238.124 166.588C283.562 159.695 325.151 136.043 358.017 104.536C363.609 99.1758 391.308 75.8598 381.236 65.2283C374.151 57.75 352.564 57.9806 344.711 63.8705C333.218 72.4903 360.215 89.7501 365.214 92.4521C385.125 103.215 408.714 108.075 430.931 110.918C468.094 115.674 506.438 114.775 543.492 109.56C604.525 100.972 669.196 81.6899 719.463 44.8613C730.514 36.7639 755.131 15.8115 733.516 4.12749C724.007 -1.01225 743.05 4.72163 744.989 5.14583" stroke="white" stroke-width="3" stroke-linecap="round"/>
</svg>
