<svg width="64" height="64" viewBox="0 0 64 64" fill="none" xmlns="http://www.w3.org/2000/svg">
<g clip-path="url(#clip0_1113_1339)">
<mask id="path-1-inside-1_1113_1339" fill="white">
<path d="M2 41.5C1.80301 41.4999 1.60794 41.5387 1.42594 41.6141C1.24394 41.6894 1.07857 41.7999 0.939273 41.9392C0.799979 42.0785 0.689491 42.2439 0.614119 42.4259C0.538748 42.6079 0.49997 42.803 0.5 43C0.5 45.7847 1.60625 48.4554 3.57538 50.4246C5.54451 52.3937 8.21523 53.5 11 53.5C13.7848 53.5 16.4555 52.3937 18.4246 50.4246C20.3938 48.4554 21.5 45.7847 21.5 43C21.5 42.803 21.4613 42.6079 21.3859 42.4259C21.3105 42.2439 21.2 42.0785 21.0607 41.9392C20.9214 41.7999 20.7561 41.6894 20.5741 41.6141C20.3921 41.5387 20.197 41.4999 20 41.5H18.0613L13.1201 27.5H20C20.3978 27.5 20.7794 27.3419 21.0607 27.0606C21.342 26.7793 21.5 26.3978 21.5 26C21.5 25.6021 21.342 25.2206 21.0607 24.9393C20.7794 24.658 20.3978 24.5 20 24.5H4.08105L5.042 21.6167C5.07081 21.5304 5.12259 21.4537 5.19176 21.3946C5.26093 21.3356 5.34488 21.2966 5.43458 21.2817L16.2466 19.4794C16.639 19.414 16.9893 19.1954 17.2205 18.8717C17.4517 18.548 17.5449 18.1457 17.4795 17.7533C17.4141 17.3609 17.1955 17.0106 16.8718 16.7794C16.5481 16.5482 16.1458 16.455 15.7534 16.5204L4.94189 18.3227C4.31387 18.4262 3.72611 18.6995 3.24218 19.1129C2.75826 19.5264 2.39658 20.0643 2.19629 20.6684L1.01611 24.2084C0.891069 24.5842 0.857041 24.9843 0.916826 25.3759C0.976611 25.7674 1.1285 26.1391 1.36 26.4605C1.59149 26.7819 1.89598 27.0437 2.24842 27.2244C2.60085 27.4051 2.99115 27.4995 3.38721 27.5H8.87988L3.93872 41.5H2ZM11 50.5C9.27181 50.4977 7.59724 49.8997 6.25854 48.8067C4.91984 47.7138 3.99888 46.1927 3.65088 44.5H18.3491C18.0011 46.1927 17.0802 47.7138 15.7415 48.8067C14.4028 49.8997 12.7282 50.4977 11 50.5ZM11 30.5068L14.8799 41.5H7.12006L11 30.5068Z"/>
<path d="M62 41.5H60.0613L55.1201 27.5H60.6128C61.0088 27.4996 61.399 27.4052 61.7514 27.2246C62.1038 27.044 62.4082 26.7822 62.6397 26.461C62.8712 26.1397 63.0231 25.7681 63.083 25.3767C63.1428 24.9852 63.1088 24.5852 62.9839 24.2094L61.8037 20.6684C61.6035 20.0643 61.2419 19.5265 60.758 19.1131C60.2742 18.6996 59.6865 18.4263 59.0586 18.3227L48.2466 16.5205C48.0523 16.4881 47.8535 16.4943 47.6616 16.5387C47.4697 16.5832 47.2885 16.665 47.1282 16.7795C46.9679 16.8939 46.8318 17.0389 46.7275 17.206C46.6232 17.3731 46.5529 17.5591 46.5205 17.7534C46.4881 17.9477 46.4943 18.1465 46.5388 18.3384C46.5832 18.5302 46.665 18.7115 46.7795 18.8718C46.894 19.0321 47.0389 19.1682 47.206 19.2725C47.3731 19.3768 47.5591 19.4471 47.7534 19.4795L58.5659 21.2817C58.6555 21.2967 58.7394 21.3358 58.8085 21.3948C58.8775 21.4538 58.9292 21.5306 58.958 21.6167L59.919 24.5H44C43.6022 24.5 43.2206 24.658 42.9393 24.9393C42.658 25.2206 42.5 25.6021 42.5 26C42.5 26.3978 42.658 26.7793 42.9393 27.0606C43.2206 27.3419 43.6022 27.5 44 27.5H50.8799L45.9387 41.5H44C43.803 41.4999 43.6079 41.5387 43.4259 41.6141C43.2439 41.6895 43.0786 41.8 42.9393 41.9392C42.8 42.0785 42.6895 42.2439 42.6141 42.4259C42.5388 42.6079 42.5 42.803 42.5 43C42.5 45.7847 43.6062 48.4555 45.5754 50.4246C47.5445 52.3937 50.2152 53.5 53 53.5C55.7848 53.5 58.4555 52.3937 60.4246 50.4246C62.3938 48.4555 63.5 45.7847 63.5 43C63.5 42.803 63.4613 42.6079 63.3859 42.4259C63.3105 42.2439 63.2 42.0785 63.0607 41.9392C62.9214 41.8 62.7561 41.6895 62.5741 41.6141C62.3921 41.5387 62.197 41.4999 62 41.5ZM53 30.5068L56.8799 41.5H49.1201L53 30.5068ZM53 50.5C51.2718 50.4977 49.5972 49.8997 48.2585 48.8068C46.9198 47.7138 45.9989 46.1928 45.6509 44.5H60.3491C60.0011 46.1928 59.0802 47.7138 57.7415 48.8068C56.4028 49.8997 54.7282 50.4977 53 50.5Z"/>
<path d="M20.2358 54.5C19.5856 54.4978 18.9477 54.6779 18.3945 55.0197C17.8414 55.3616 17.395 55.8515 17.106 56.434L16.1055 58.4345C15.8387 58.9681 15.7127 59.5611 15.7395 60.1571C15.7663 60.7531 15.945 61.3324 16.2586 61.8399C16.5723 62.3474 17.0104 62.7663 17.5315 63.0568C18.0526 63.3474 18.6392 63.4999 19.2358 63.5H44.7642C45.3608 63.5 45.9475 63.3474 46.4686 63.0569C46.9897 62.7664 47.4278 62.3474 47.7415 61.8399C48.0551 61.3324 48.2338 60.7531 48.2606 60.1571C48.2874 59.5611 48.1614 58.9681 47.8945 58.4345L46.894 56.434C46.605 55.8515 46.1586 55.3616 45.6055 55.0197C45.0523 54.6779 44.4144 54.4978 43.7642 54.5H37.5V31C37.5 30.6021 37.342 30.2206 37.0607 29.9393C36.7794 29.658 36.3978 29.5 36 29.5C35.6022 29.5 35.2206 29.658 34.9393 29.9393C34.658 30.2206 34.5 30.6021 34.5 31V54.5H29.5V31C29.5 30.6021 29.342 30.2206 29.0607 29.9393C28.7794 29.658 28.3978 29.5 28 29.5C27.6022 29.5 27.2206 29.658 26.9393 29.9393C26.658 30.2206 26.5 30.6021 26.5 31V54.5H20.2358ZM44.2109 57.7763L45.2109 59.7763C45.2493 59.8525 45.2676 59.9372 45.2639 60.0225C45.2602 60.1077 45.2348 60.1905 45.19 60.2631C45.1451 60.3357 45.0825 60.3956 45.0079 60.437C44.9334 60.4785 44.8495 60.5002 44.7642 60.5H19.2358C19.1505 60.5002 19.0666 60.4785 18.9921 60.4371C18.9175 60.3956 18.8548 60.3357 18.81 60.2631C18.7652 60.1906 18.7397 60.1077 18.7361 60.0225C18.7324 59.9372 18.7506 59.8525 18.7891 59.7763L19.7891 57.7763C19.8303 57.6931 19.894 57.6232 19.973 57.5743C20.0519 57.5255 20.143 57.4997 20.2358 57.5H43.7642C43.857 57.4997 43.9481 57.5254 44.0271 57.5742C44.1061 57.6231 44.1698 57.6931 44.2109 57.7763Z"/>
</mask>
<path d="M2 41.5C1.80301 41.4999 1.60794 41.5387 1.42594 41.6141C1.24394 41.6894 1.07857 41.7999 0.939273 41.9392C0.799979 42.0785 0.689491 42.2439 0.614119 42.4259C0.538748 42.6079 0.49997 42.803 0.5 43C0.5 45.7847 1.60625 48.4554 3.57538 50.4246C5.54451 52.3937 8.21523 53.5 11 53.5C13.7848 53.5 16.4555 52.3937 18.4246 50.4246C20.3938 48.4554 21.5 45.7847 21.5 43C21.5 42.803 21.4613 42.6079 21.3859 42.4259C21.3105 42.2439 21.2 42.0785 21.0607 41.9392C20.9214 41.7999 20.7561 41.6894 20.5741 41.6141C20.3921 41.5387 20.197 41.4999 20 41.5H18.0613L13.1201 27.5H20C20.3978 27.5 20.7794 27.3419 21.0607 27.0606C21.342 26.7793 21.5 26.3978 21.5 26C21.5 25.6021 21.342 25.2206 21.0607 24.9393C20.7794 24.658 20.3978 24.5 20 24.5H4.08105L5.042 21.6167C5.07081 21.5304 5.12259 21.4537 5.19176 21.3946C5.26093 21.3356 5.34488 21.2966 5.43458 21.2817L16.2466 19.4794C16.639 19.414 16.9893 19.1954 17.2205 18.8717C17.4517 18.548 17.5449 18.1457 17.4795 17.7533C17.4141 17.3609 17.1955 17.0106 16.8718 16.7794C16.5481 16.5482 16.1458 16.455 15.7534 16.5204L4.94189 18.3227C4.31387 18.4262 3.72611 18.6995 3.24218 19.1129C2.75826 19.5264 2.39658 20.0643 2.19629 20.6684L1.01611 24.2084C0.891069 24.5842 0.857041 24.9843 0.916826 25.3759C0.976611 25.7674 1.1285 26.1391 1.36 26.4605C1.59149 26.7819 1.89598 27.0437 2.24842 27.2244C2.60085 27.4051 2.99115 27.4995 3.38721 27.5H8.87988L3.93872 41.5H2ZM11 50.5C9.27181 50.4977 7.59724 49.8997 6.25854 48.8067C4.91984 47.7138 3.99888 46.1927 3.65088 44.5H18.3491C18.0011 46.1927 17.0802 47.7138 15.7415 48.8067C14.4028 49.8997 12.7282 50.4977 11 50.5ZM11 30.5068L14.8799 41.5H7.12006L11 30.5068Z" fill="#849592"/>
<path d="M62 41.5H60.0613L55.1201 27.5H60.6128C61.0088 27.4996 61.399 27.4052 61.7514 27.2246C62.1038 27.044 62.4082 26.7822 62.6397 26.461C62.8712 26.1397 63.0231 25.7681 63.083 25.3767C63.1428 24.9852 63.1088 24.5852 62.9839 24.2094L61.8037 20.6684C61.6035 20.0643 61.2419 19.5265 60.758 19.1131C60.2742 18.6996 59.6865 18.4263 59.0586 18.3227L48.2466 16.5205C48.0523 16.4881 47.8535 16.4943 47.6616 16.5387C47.4697 16.5832 47.2885 16.665 47.1282 16.7795C46.9679 16.8939 46.8318 17.0389 46.7275 17.206C46.6232 17.3731 46.5529 17.5591 46.5205 17.7534C46.4881 17.9477 46.4943 18.1465 46.5388 18.3384C46.5832 18.5302 46.665 18.7115 46.7795 18.8718C46.894 19.0321 47.0389 19.1682 47.206 19.2725C47.3731 19.3768 47.5591 19.4471 47.7534 19.4795L58.5659 21.2817C58.6555 21.2967 58.7394 21.3358 58.8085 21.3948C58.8775 21.4538 58.9292 21.5306 58.958 21.6167L59.919 24.5H44C43.6022 24.5 43.2206 24.658 42.9393 24.9393C42.658 25.2206 42.5 25.6021 42.5 26C42.5 26.3978 42.658 26.7793 42.9393 27.0606C43.2206 27.3419 43.6022 27.5 44 27.5H50.8799L45.9387 41.5H44C43.803 41.4999 43.6079 41.5387 43.4259 41.6141C43.2439 41.6895 43.0786 41.8 42.9393 41.9392C42.8 42.0785 42.6895 42.2439 42.6141 42.4259C42.5388 42.6079 42.5 42.803 42.5 43C42.5 45.7847 43.6062 48.4555 45.5754 50.4246C47.5445 52.3937 50.2152 53.5 53 53.5C55.7848 53.5 58.4555 52.3937 60.4246 50.4246C62.3938 48.4555 63.5 45.7847 63.5 43C63.5 42.803 63.4613 42.6079 63.3859 42.4259C63.3105 42.2439 63.2 42.0785 63.0607 41.9392C62.9214 41.8 62.7561 41.6895 62.5741 41.6141C62.3921 41.5387 62.197 41.4999 62 41.5ZM53 30.5068L56.8799 41.5H49.1201L53 30.5068ZM53 50.5C51.2718 50.4977 49.5972 49.8997 48.2585 48.8068C46.9198 47.7138 45.9989 46.1928 45.6509 44.5H60.3491C60.0011 46.1928 59.0802 47.7138 57.7415 48.8068C56.4028 49.8997 54.7282 50.4977 53 50.5Z" fill="#849592"/>
<path d="M20.2358 54.5C19.5856 54.4978 18.9477 54.6779 18.3945 55.0197C17.8414 55.3616 17.395 55.8515 17.106 56.434L16.1055 58.4345C15.8387 58.9681 15.7127 59.5611 15.7395 60.1571C15.7663 60.7531 15.945 61.3324 16.2586 61.8399C16.5723 62.3474 17.0104 62.7663 17.5315 63.0568C18.0526 63.3474 18.6392 63.4999 19.2358 63.5H44.7642C45.3608 63.5 45.9475 63.3474 46.4686 63.0569C46.9897 62.7664 47.4278 62.3474 47.7415 61.8399C48.0551 61.3324 48.2338 60.7531 48.2606 60.1571C48.2874 59.5611 48.1614 58.9681 47.8945 58.4345L46.894 56.434C46.605 55.8515 46.1586 55.3616 45.6055 55.0197C45.0523 54.6779 44.4144 54.4978 43.7642 54.5H37.5V31C37.5 30.6021 37.342 30.2206 37.0607 29.9393C36.7794 29.658 36.3978 29.5 36 29.5C35.6022 29.5 35.2206 29.658 34.9393 29.9393C34.658 30.2206 34.5 30.6021 34.5 31V54.5H29.5V31C29.5 30.6021 29.342 30.2206 29.0607 29.9393C28.7794 29.658 28.3978 29.5 28 29.5C27.6022 29.5 27.2206 29.658 26.9393 29.9393C26.658 30.2206 26.5 30.6021 26.5 31V54.5H20.2358ZM44.2109 57.7763L45.2109 59.7763C45.2493 59.8525 45.2676 59.9372 45.2639 60.0225C45.2602 60.1077 45.2348 60.1905 45.19 60.2631C45.1451 60.3357 45.0825 60.3956 45.0079 60.437C44.9334 60.4785 44.8495 60.5002 44.7642 60.5H19.2358C19.1505 60.5002 19.0666 60.4785 18.9921 60.4371C18.9175 60.3956 18.8548 60.3357 18.81 60.2631C18.7652 60.1906 18.7397 60.1077 18.7361 60.0225C18.7324 59.9372 18.7506 59.8525 18.7891 59.7763L19.7891 57.7763C19.8303 57.6931 19.894 57.6232 19.973 57.5743C20.0519 57.5255 20.143 57.4997 20.2358 57.5H43.7642C43.857 57.4997 43.9481 57.5254 44.0271 57.5742C44.1061 57.6231 44.1698 57.6931 44.2109 57.7763Z" fill="#849592"/>
<path d="M2 41.5C1.80301 41.4999 1.60794 41.5387 1.42594 41.6141C1.24394 41.6894 1.07857 41.7999 0.939273 41.9392C0.799979 42.0785 0.689491 42.2439 0.614119 42.4259C0.538748 42.6079 0.49997 42.803 0.5 43C0.5 45.7847 1.60625 48.4554 3.57538 50.4246C5.54451 52.3937 8.21523 53.5 11 53.5C13.7848 53.5 16.4555 52.3937 18.4246 50.4246C20.3938 48.4554 21.5 45.7847 21.5 43C21.5 42.803 21.4613 42.6079 21.3859 42.4259C21.3105 42.2439 21.2 42.0785 21.0607 41.9392C20.9214 41.7999 20.7561 41.6894 20.5741 41.6141C20.3921 41.5387 20.197 41.4999 20 41.5H18.0613L13.1201 27.5H20C20.3978 27.5 20.7794 27.3419 21.0607 27.0606C21.342 26.7793 21.5 26.3978 21.5 26C21.5 25.6021 21.342 25.2206 21.0607 24.9393C20.7794 24.658 20.3978 24.5 20 24.5H4.08105L5.042 21.6167C5.07081 21.5304 5.12259 21.4537 5.19176 21.3946C5.26093 21.3356 5.34488 21.2966 5.43458 21.2817L16.2466 19.4794C16.639 19.414 16.9893 19.1954 17.2205 18.8717C17.4517 18.548 17.5449 18.1457 17.4795 17.7533C17.4141 17.3609 17.1955 17.0106 16.8718 16.7794C16.5481 16.5482 16.1458 16.455 15.7534 16.5204L4.94189 18.3227C4.31387 18.4262 3.72611 18.6995 3.24218 19.1129C2.75826 19.5264 2.39658 20.0643 2.19629 20.6684L1.01611 24.2084C0.891069 24.5842 0.857041 24.9843 0.916826 25.3759C0.976611 25.7674 1.1285 26.1391 1.36 26.4605C1.59149 26.7819 1.89598 27.0437 2.24842 27.2244C2.60085 27.4051 2.99115 27.4995 3.38721 27.5H8.87988L3.93872 41.5H2ZM11 50.5C9.27181 50.4977 7.59724 49.8997 6.25854 48.8067C4.91984 47.7138 3.99888 46.1927 3.65088 44.5H18.3491C18.0011 46.1927 17.0802 47.7138 15.7415 48.8067C14.4028 49.8997 12.7282 50.4977 11 50.5ZM11 30.5068L14.8799 41.5H7.12006L11 30.5068Z" stroke="#F7FCF5" mask="url(#path-1-inside-1_1113_1339)"/>
<path d="M62 41.5H60.0613L55.1201 27.5H60.6128C61.0088 27.4996 61.399 27.4052 61.7514 27.2246C62.1038 27.044 62.4082 26.7822 62.6397 26.461C62.8712 26.1397 63.0231 25.7681 63.083 25.3767C63.1428 24.9852 63.1088 24.5852 62.9839 24.2094L61.8037 20.6684C61.6035 20.0643 61.2419 19.5265 60.758 19.1131C60.2742 18.6996 59.6865 18.4263 59.0586 18.3227L48.2466 16.5205C48.0523 16.4881 47.8535 16.4943 47.6616 16.5387C47.4697 16.5832 47.2885 16.665 47.1282 16.7795C46.9679 16.8939 46.8318 17.0389 46.7275 17.206C46.6232 17.3731 46.5529 17.5591 46.5205 17.7534C46.4881 17.9477 46.4943 18.1465 46.5388 18.3384C46.5832 18.5302 46.665 18.7115 46.7795 18.8718C46.894 19.0321 47.0389 19.1682 47.206 19.2725C47.3731 19.3768 47.5591 19.4471 47.7534 19.4795L58.5659 21.2817C58.6555 21.2967 58.7394 21.3358 58.8085 21.3948C58.8775 21.4538 58.9292 21.5306 58.958 21.6167L59.919 24.5H44C43.6022 24.5 43.2206 24.658 42.9393 24.9393C42.658 25.2206 42.5 25.6021 42.5 26C42.5 26.3978 42.658 26.7793 42.9393 27.0606C43.2206 27.3419 43.6022 27.5 44 27.5H50.8799L45.9387 41.5H44C43.803 41.4999 43.6079 41.5387 43.4259 41.6141C43.2439 41.6895 43.0786 41.8 42.9393 41.9392C42.8 42.0785 42.6895 42.2439 42.6141 42.4259C42.5388 42.6079 42.5 42.803 42.5 43C42.5 45.7847 43.6062 48.4555 45.5754 50.4246C47.5445 52.3937 50.2152 53.5 53 53.5C55.7848 53.5 58.4555 52.3937 60.4246 50.4246C62.3938 48.4555 63.5 45.7847 63.5 43C63.5 42.803 63.4613 42.6079 63.3859 42.4259C63.3105 42.2439 63.2 42.0785 63.0607 41.9392C62.9214 41.8 62.7561 41.6895 62.5741 41.6141C62.3921 41.5387 62.197 41.4999 62 41.5ZM53 30.5068L56.8799 41.5H49.1201L53 30.5068ZM53 50.5C51.2718 50.4977 49.5972 49.8997 48.2585 48.8068C46.9198 47.7138 45.9989 46.1928 45.6509 44.5H60.3491C60.0011 46.1928 59.0802 47.7138 57.7415 48.8068C56.4028 49.8997 54.7282 50.4977 53 50.5Z" stroke="#F7FCF5" mask="url(#path-1-inside-1_1113_1339)"/>
<path d="M20.2358 54.5C19.5856 54.4978 18.9477 54.6779 18.3945 55.0197C17.8414 55.3616 17.395 55.8515 17.106 56.434L16.1055 58.4345C15.8387 58.9681 15.7127 59.5611 15.7395 60.1571C15.7663 60.7531 15.945 61.3324 16.2586 61.8399C16.5723 62.3474 17.0104 62.7663 17.5315 63.0568C18.0526 63.3474 18.6392 63.4999 19.2358 63.5H44.7642C45.3608 63.5 45.9475 63.3474 46.4686 63.0569C46.9897 62.7664 47.4278 62.3474 47.7415 61.8399C48.0551 61.3324 48.2338 60.7531 48.2606 60.1571C48.2874 59.5611 48.1614 58.9681 47.8945 58.4345L46.894 56.434C46.605 55.8515 46.1586 55.3616 45.6055 55.0197C45.0523 54.6779 44.4144 54.4978 43.7642 54.5H37.5V31C37.5 30.6021 37.342 30.2206 37.0607 29.9393C36.7794 29.658 36.3978 29.5 36 29.5C35.6022 29.5 35.2206 29.658 34.9393 29.9393C34.658 30.2206 34.5 30.6021 34.5 31V54.5H29.5V31C29.5 30.6021 29.342 30.2206 29.0607 29.9393C28.7794 29.658 28.3978 29.5 28 29.5C27.6022 29.5 27.2206 29.658 26.9393 29.9393C26.658 30.2206 26.5 30.6021 26.5 31V54.5H20.2358ZM44.2109 57.7763L45.2109 59.7763C45.2493 59.8525 45.2676 59.9372 45.2639 60.0225C45.2602 60.1077 45.2348 60.1905 45.19 60.2631C45.1451 60.3357 45.0825 60.3956 45.0079 60.437C44.9334 60.4785 44.8495 60.5002 44.7642 60.5H19.2358C19.1505 60.5002 19.0666 60.4785 18.9921 60.4371C18.9175 60.3956 18.8548 60.3357 18.81 60.2631C18.7652 60.1906 18.7397 60.1077 18.7361 60.0225C18.7324 59.9372 18.7506 59.8525 18.7891 59.7763L19.7891 57.7763C19.8303 57.6931 19.894 57.6232 19.973 57.5743C20.0519 57.5255 20.143 57.4997 20.2358 57.5H43.7642C43.857 57.4997 43.9481 57.5254 44.0271 57.5742C44.1061 57.6231 44.1698 57.6931 44.2109 57.7763Z" stroke="#F7FCF5" mask="url(#path-1-inside-1_1113_1339)"/>
<path d="M32 27.5C34.67 27.5 37.2801 26.7082 39.5002 25.2248C41.7203 23.7414 43.4506 21.633 44.4724 19.1662C45.4941 16.6994 45.7615 13.985 45.2406 11.3663C44.7197 8.74754 43.4339 6.34207 41.5459 4.45406C39.6579 2.56606 37.2525 1.28031 34.6337 0.759405C32.015 0.238504 29.3006 0.505849 26.8338 1.52763C24.367 2.54941 22.2586 4.27974 20.7752 6.49981C19.2918 8.71987 18.5 11.33 18.5 14C18.5041 17.5792 19.9277 21.0106 22.4586 23.5414C24.9894 26.0723 28.4208 27.4959 32 27.5ZM32 4.50001C34.5187 4.50287 36.9334 5.50467 38.7143 7.28565C40.4953 9.06663 41.4971 11.4813 41.5 14C41.5 14.3978 41.342 14.7794 41.0607 15.0607C40.7793 15.342 40.3978 15.5 40 15.5C39.6022 15.5 39.2206 15.342 38.9393 15.0607C38.658 14.7794 38.5 14.3978 38.5 14C38.498 12.2767 37.8125 10.6246 36.594 9.40601C35.3754 8.18746 33.7233 7.502 32 7.5C31.6022 7.5 31.2206 7.34197 30.9393 7.06067C30.658 6.77936 30.5 6.39783 30.5 6C30.5 5.60218 30.658 5.22065 30.9393 4.93934C31.2206 4.65804 31.6022 4.50001 32 4.50001ZM24 12.5C24.197 12.5 24.3921 12.5388 24.5741 12.6141C24.7561 12.6895 24.9214 12.8 25.0607 12.9393C25.2 13.0786 25.3105 13.2439 25.3859 13.4259C25.4613 13.6079 25.5 13.803 25.5 14C25.502 15.7233 26.1875 17.3754 27.406 18.594C28.6246 19.8125 30.2767 20.498 32 20.5C32.3978 20.5 32.7794 20.658 33.0607 20.9393C33.342 21.2206 33.5 21.6022 33.5 22C33.5 22.3978 33.342 22.7794 33.0607 23.0607C32.7794 23.342 32.3978 23.5 32 23.5C29.4813 23.4971 27.0666 22.4953 25.2856 20.7144C23.5047 18.9334 22.5029 16.5187 22.5 14C22.5 13.803 22.5387 13.6079 22.6141 13.4259C22.6895 13.2439 22.8 13.0786 22.9393 12.9393C23.0786 12.8 23.2439 12.6895 23.4259 12.6141C23.6079 12.5388 23.803 12.5 24 12.5Z" fill="#76B95B"/>
</g>
<defs>
<clipPath id="clip0_1113_1339">
<rect width="64" height="64" fill="white"/>
</clipPath>
</defs>
</svg>
