<svg width="64" height="64" viewBox="0 0 64 64" fill="none" xmlns="http://www.w3.org/2000/svg">
<g clip-path="url(#clip0_1114_5)">
<mask id="path-1-inside-1_1114_5" fill="white">
<path d="M39.5 40C39.502 38.5135 39.0603 37.0602 38.2315 35.8262C38.0093 35.4967 37.6656 35.2688 37.2756 35.1924C36.8857 35.1161 36.4813 35.1975 36.1513 35.4189C35.8213 35.6402 35.5926 35.9835 35.5154 36.3733C35.4381 36.763 35.5187 37.1676 35.7393 37.4981C36.2366 38.2375 36.5015 39.1088 36.5 40C36.4947 40.6146 36.3655 41.2218 36.12 41.7852C35.8745 42.3487 35.5178 42.8568 35.0713 43.2792C34.6248 43.7015 34.0976 44.0294 33.5214 44.2432C32.9452 44.457 32.3317 44.5523 31.7178 44.5234C31.3207 44.5056 30.9328 44.6456 30.6387 44.913C30.3446 45.1804 30.1684 45.5533 30.1484 45.9502C30.1085 46.7743 30.6715 47.5283 31.9346 47.5283C33.4284 47.5259 34.888 47.0815 36.1296 46.251C36.3702 46.8029 36.4962 47.3979 36.5 48C36.5 54.123 26.7891 53.844 26.7891 48C26.7891 47.6022 26.631 47.2206 26.3497 46.9393C26.0684 46.658 25.6869 46.5 25.2891 46.5C24.8912 46.5 24.5097 46.658 24.2284 46.9393C23.9471 47.2206 23.7891 47.6022 23.7891 48C23.7916 49.8431 24.4719 51.6208 25.7005 52.9947C26.9291 54.3686 28.6201 55.2425 30.4514 55.4502C30.4792 55.6322 30.4955 55.8159 30.5 56C30.5 57.1935 30.0259 58.3381 29.182 59.182C28.3381 60.0259 27.1935 60.5 26 60.5C24.8065 60.5 23.6619 60.0259 22.818 59.182C21.9741 58.3381 21.5 57.1935 21.5 56V32C21.5009 31.3069 21.6618 30.6235 21.9703 30.0028C22.2787 29.3822 22.7263 28.8411 23.2782 28.4219C23.8301 28.0027 24.4714 27.7166 25.152 27.5859C25.8326 27.4552 26.5343 27.4835 27.2022 27.6685C27.3925 27.7226 27.5918 27.7386 27.7884 27.7154C27.9849 27.6922 28.175 27.6303 28.3475 27.5333C28.5201 27.4363 28.6717 27.3061 28.7937 27.1503C28.9157 26.9944 29.0057 26.8159 29.0584 26.6251C29.1111 26.4343 29.1255 26.235 29.1008 26.0386C29.0762 25.8422 29.0128 25.6526 28.9145 25.4808C28.8162 25.309 28.6849 25.1584 28.5281 25.0375C28.3713 24.9167 28.1922 24.8281 28.001 24.7769C26.5466 24.3689 25.0026 24.4127 23.5736 24.9024C22.1447 25.3921 20.8984 26.3046 20 27.5189C19.0596 26.2551 17.7446 25.3199 16.2421 24.8464C14.7395 24.3729 13.126 24.3851 11.6308 24.8814C10.1357 25.3777 8.83506 26.3328 7.91393 27.6108C6.99279 28.8888 6.49804 30.4246 6.50001 32C6.50001 32.2153 6.50945 32.4303 6.52833 32.645C5.33549 32.8826 4.21842 33.407 3.27364 34.1729C2.32886 34.9389 1.58478 35.9234 1.10569 37.0413C0.626593 38.1593 0.426893 39.377 0.52384 40.5894C0.620788 41.8018 1.01147 42.9724 1.66213 44C1.01147 45.0276 0.620789 46.1982 0.52384 47.4107C0.42689 48.6231 0.626586 49.8409 1.10567 50.9589C1.58476 52.0768 2.32884 53.0613 3.27362 53.8274C4.2184 54.5934 5.33547 55.1178 6.52833 55.3555C6.50978 55.5693 6.50001 55.7852 6.50001 56C6.49804 57.5754 6.99279 59.1112 7.91393 60.3892C8.83506 61.6672 10.1357 62.6223 11.6308 63.1186C13.126 63.6149 14.7395 63.6271 16.2421 63.1536C17.7446 62.6801 19.0596 61.7449 20 60.4811C20.9405 61.7449 22.2554 62.6801 23.758 63.1536C25.2605 63.6271 26.874 63.6149 28.3692 63.1186C29.8643 62.6223 31.165 61.6672 32.0861 60.3892C33.0072 59.1112 33.502 57.5754 33.5 56C33.5 55.7852 33.4902 55.5693 33.4717 55.3555C34.6646 55.1178 35.7816 54.5934 36.7264 53.8274C37.6712 53.0613 38.4153 52.0768 38.8943 50.9589C39.3734 49.8409 39.5731 48.6231 39.4762 47.4107C39.3792 46.1982 38.9886 45.0276 38.3379 44C39.0971 42.804 39.5001 41.4166 39.5 40ZM18.5 56C18.5 57.1935 18.0259 58.3381 17.182 59.182C16.3381 60.0259 15.1935 60.5 14 60.5C12.8065 60.5 11.6619 60.0259 10.818 59.182C9.97412 58.3381 9.50001 57.1935 9.50001 56C9.50456 55.8159 9.52079 55.6322 9.54859 55.4502C11.3799 55.2425 13.0709 54.3686 14.2995 52.9947C15.5281 51.6208 16.2084 49.8431 16.211 48C16.211 47.6022 16.0529 47.2206 15.7716 46.9393C15.4903 46.658 15.1088 46.5 14.711 46.5C14.3131 46.5 13.9316 46.658 13.6503 46.9393C13.369 47.2206 13.211 47.6022 13.211 48C13.211 54.0834 3.50002 53.9382 3.50002 48C3.50382 47.3979 3.62982 46.8029 3.87038 46.251C5.112 47.0815 6.57166 47.526 8.06544 47.5283C9.30744 47.5283 9.8925 46.7958 9.85157 45.9502C9.84398 45.7529 9.79714 45.5591 9.7138 45.3801C9.63046 45.2011 9.51229 45.0405 9.36619 44.9076C9.22009 44.7748 9.04899 44.6724 8.86288 44.6065C8.67677 44.5405 8.47938 44.5123 8.28224 44.5235C7.66829 44.5524 7.0548 44.4572 6.47854 44.2434C5.90227 44.0296 5.37509 43.7017 4.92856 43.2794C4.48203 42.857 4.12535 42.3488 3.87988 41.7854C3.63442 41.2219 3.50521 40.6146 3.50002 40C3.50324 38.9125 3.90093 37.863 4.61928 37.0465C5.33763 36.23 6.32783 35.7018 7.40608 35.5601C8.75428 38.0949 11.4635 40.0137 13.8477 40.0137C14.0627 40.032 14.2791 40.0042 14.4825 39.9321C14.6858 39.8601 14.8715 39.7454 15.027 39.5958C15.1825 39.4462 15.3042 39.2652 15.3841 39.0647C15.464 38.8643 15.5002 38.6491 15.4902 38.4336C15.4811 38.2366 15.4331 38.0433 15.3488 37.865C15.2646 37.6866 15.1459 37.5267 14.9995 37.3945C14.8531 37.2623 14.682 37.1604 14.4961 37.0947C14.3101 37.029 14.1129 37.0008 13.916 37.0117C12.3402 37.0554 9.50001 34.8266 9.50001 32C9.50001 30.8065 9.97412 29.6619 10.818 28.818C11.6619 27.9741 12.8065 27.5 14 27.5C15.1935 27.5 16.3381 27.9741 17.182 28.818C18.0259 29.6619 18.5 30.8065 18.5 32V56Z"/>
</mask>
<path d="M39.5 40C39.502 38.5135 39.0603 37.0602 38.2315 35.8262C38.0093 35.4967 37.6656 35.2688 37.2756 35.1924C36.8857 35.1161 36.4813 35.1975 36.1513 35.4189C35.8213 35.6402 35.5926 35.9835 35.5154 36.3733C35.4381 36.763 35.5187 37.1676 35.7393 37.4981C36.2366 38.2375 36.5015 39.1088 36.5 40C36.4947 40.6146 36.3655 41.2218 36.12 41.7852C35.8745 42.3487 35.5178 42.8568 35.0713 43.2792C34.6248 43.7015 34.0976 44.0294 33.5214 44.2432C32.9452 44.457 32.3317 44.5523 31.7178 44.5234C31.3207 44.5056 30.9328 44.6456 30.6387 44.913C30.3446 45.1804 30.1684 45.5533 30.1484 45.9502C30.1085 46.7743 30.6715 47.5283 31.9346 47.5283C33.4284 47.5259 34.888 47.0815 36.1296 46.251C36.3702 46.8029 36.4962 47.3979 36.5 48C36.5 54.123 26.7891 53.844 26.7891 48C26.7891 47.6022 26.631 47.2206 26.3497 46.9393C26.0684 46.658 25.6869 46.5 25.2891 46.5C24.8912 46.5 24.5097 46.658 24.2284 46.9393C23.9471 47.2206 23.7891 47.6022 23.7891 48C23.7916 49.8431 24.4719 51.6208 25.7005 52.9947C26.9291 54.3686 28.6201 55.2425 30.4514 55.4502C30.4792 55.6322 30.4955 55.8159 30.5 56C30.5 57.1935 30.0259 58.3381 29.182 59.182C28.3381 60.0259 27.1935 60.5 26 60.5C24.8065 60.5 23.6619 60.0259 22.818 59.182C21.9741 58.3381 21.5 57.1935 21.5 56V32C21.5009 31.3069 21.6618 30.6235 21.9703 30.0028C22.2787 29.3822 22.7263 28.8411 23.2782 28.4219C23.8301 28.0027 24.4714 27.7166 25.152 27.5859C25.8326 27.4552 26.5343 27.4835 27.2022 27.6685C27.3925 27.7226 27.5918 27.7386 27.7884 27.7154C27.9849 27.6922 28.175 27.6303 28.3475 27.5333C28.5201 27.4363 28.6717 27.3061 28.7937 27.1503C28.9157 26.9944 29.0057 26.8159 29.0584 26.6251C29.1111 26.4343 29.1255 26.235 29.1008 26.0386C29.0762 25.8422 29.0128 25.6526 28.9145 25.4808C28.8162 25.309 28.6849 25.1584 28.5281 25.0375C28.3713 24.9167 28.1922 24.8281 28.001 24.7769C26.5466 24.3689 25.0026 24.4127 23.5736 24.9024C22.1447 25.3921 20.8984 26.3046 20 27.5189C19.0596 26.2551 17.7446 25.3199 16.2421 24.8464C14.7395 24.3729 13.126 24.3851 11.6308 24.8814C10.1357 25.3777 8.83506 26.3328 7.91393 27.6108C6.99279 28.8888 6.49804 30.4246 6.50001 32C6.50001 32.2153 6.50945 32.4303 6.52833 32.645C5.33549 32.8826 4.21842 33.407 3.27364 34.1729C2.32886 34.9389 1.58478 35.9234 1.10569 37.0413C0.626593 38.1593 0.426893 39.377 0.52384 40.5894C0.620788 41.8018 1.01147 42.9724 1.66213 44C1.01147 45.0276 0.620789 46.1982 0.52384 47.4107C0.42689 48.6231 0.626586 49.8409 1.10567 50.9589C1.58476 52.0768 2.32884 53.0613 3.27362 53.8274C4.2184 54.5934 5.33547 55.1178 6.52833 55.3555C6.50978 55.5693 6.50001 55.7852 6.50001 56C6.49804 57.5754 6.99279 59.1112 7.91393 60.3892C8.83506 61.6672 10.1357 62.6223 11.6308 63.1186C13.126 63.6149 14.7395 63.6271 16.2421 63.1536C17.7446 62.6801 19.0596 61.7449 20 60.4811C20.9405 61.7449 22.2554 62.6801 23.758 63.1536C25.2605 63.6271 26.874 63.6149 28.3692 63.1186C29.8643 62.6223 31.165 61.6672 32.0861 60.3892C33.0072 59.1112 33.502 57.5754 33.5 56C33.5 55.7852 33.4902 55.5693 33.4717 55.3555C34.6646 55.1178 35.7816 54.5934 36.7264 53.8274C37.6712 53.0613 38.4153 52.0768 38.8943 50.9589C39.3734 49.8409 39.5731 48.6231 39.4762 47.4107C39.3792 46.1982 38.9886 45.0276 38.3379 44C39.0971 42.804 39.5001 41.4166 39.5 40ZM18.5 56C18.5 57.1935 18.0259 58.3381 17.182 59.182C16.3381 60.0259 15.1935 60.5 14 60.5C12.8065 60.5 11.6619 60.0259 10.818 59.182C9.97412 58.3381 9.50001 57.1935 9.50001 56C9.50456 55.8159 9.52079 55.6322 9.54859 55.4502C11.3799 55.2425 13.0709 54.3686 14.2995 52.9947C15.5281 51.6208 16.2084 49.8431 16.211 48C16.211 47.6022 16.0529 47.2206 15.7716 46.9393C15.4903 46.658 15.1088 46.5 14.711 46.5C14.3131 46.5 13.9316 46.658 13.6503 46.9393C13.369 47.2206 13.211 47.6022 13.211 48C13.211 54.0834 3.50002 53.9382 3.50002 48C3.50382 47.3979 3.62982 46.8029 3.87038 46.251C5.112 47.0815 6.57166 47.526 8.06544 47.5283C9.30744 47.5283 9.8925 46.7958 9.85157 45.9502C9.84398 45.7529 9.79714 45.5591 9.7138 45.3801C9.63046 45.2011 9.51229 45.0405 9.36619 44.9076C9.22009 44.7748 9.04899 44.6724 8.86288 44.6065C8.67677 44.5405 8.47938 44.5123 8.28224 44.5235C7.66829 44.5524 7.0548 44.4572 6.47854 44.2434C5.90227 44.0296 5.37509 43.7017 4.92856 43.2794C4.48203 42.857 4.12535 42.3488 3.87988 41.7854C3.63442 41.2219 3.50521 40.6146 3.50002 40C3.50324 38.9125 3.90093 37.863 4.61928 37.0465C5.33763 36.23 6.32783 35.7018 7.40608 35.5601C8.75428 38.0949 11.4635 40.0137 13.8477 40.0137C14.0627 40.032 14.2791 40.0042 14.4825 39.9321C14.6858 39.8601 14.8715 39.7454 15.027 39.5958C15.1825 39.4462 15.3042 39.2652 15.3841 39.0647C15.464 38.8643 15.5002 38.6491 15.4902 38.4336C15.4811 38.2366 15.4331 38.0433 15.3488 37.865C15.2646 37.6866 15.1459 37.5267 14.9995 37.3945C14.8531 37.2623 14.682 37.1604 14.4961 37.0947C14.3101 37.029 14.1129 37.0008 13.916 37.0117C12.3402 37.0554 9.50001 34.8266 9.50001 32C9.50001 30.8065 9.97412 29.6619 10.818 28.818C11.6619 27.9741 12.8065 27.5 14 27.5C15.1935 27.5 16.3381 27.9741 17.182 28.818C18.0259 29.6619 18.5 30.8065 18.5 32V56Z" fill="#849592" stroke="#F7FCF5" mask="url(#path-1-inside-1_1114_5)"/>
<path d="M47 0.500011C44.1086 0.496633 41.2671 1.25403 38.7609 2.69616C36.2548 4.13829 34.1721 6.21439 32.7221 8.71599C31.2721 11.2176 30.5058 14.0567 30.5 16.9481C30.4943 19.8396 31.2494 22.6817 32.6895 25.189L30.5772 31.5259C30.4895 31.7902 30.4771 32.0736 30.5413 32.3445C30.6054 32.6154 30.7437 32.8631 30.9406 33.0599C31.1375 33.2567 31.3852 33.3949 31.6561 33.459C31.927 33.5232 32.2104 33.5107 32.4746 33.4229L38.8116 31.3106C41.0053 32.5662 43.4583 33.3008 45.9812 33.4578C48.504 33.6147 51.0291 33.1897 53.3616 32.2156C55.694 31.2415 57.7714 29.7444 59.4334 27.8399C61.0953 25.9354 62.2973 23.6744 62.9465 21.2315C63.5958 18.7886 63.6749 16.2292 63.1778 13.7509C62.6807 11.2725 61.6206 8.94162 60.0795 6.93807C58.5384 4.93453 56.5575 3.31197 54.2896 2.19568C52.0218 1.07939 49.5277 0.499232 47 0.500011ZM40.3008 8.00001H53.6993C54.0971 8.00001 54.4786 8.15805 54.7599 8.43935C55.0412 8.72066 55.1993 9.10219 55.1993 9.50001C55.1993 9.89784 55.0412 10.2794 54.7599 10.5607C54.4786 10.842 54.0971 11 53.6993 11H40.3008C39.903 11 39.5215 10.842 39.2402 10.5607C38.9589 10.2794 38.8008 9.89784 38.8008 9.50001C38.8008 9.10219 38.9589 8.72066 39.2402 8.43935C39.5215 8.15805 39.903 8.00001 40.3008 8.00001ZM53.6993 26H40.3008C39.903 26 39.5215 25.842 39.2402 25.5607C38.9589 25.2794 38.8008 24.8978 38.8008 24.5C38.8008 24.1022 38.9589 23.7207 39.2402 23.4394C39.5215 23.158 39.903 23 40.3008 23H53.6993C54.0971 23 54.4786 23.158 54.7599 23.4394C55.0412 23.7207 55.1993 24.1022 55.1993 24.5C55.1993 24.8978 55.0412 25.2794 54.7599 25.5607C54.4786 25.842 54.0971 26 53.6993 26ZM56 18.5H38C37.6022 18.5 37.2207 18.342 36.9394 18.0607C36.6581 17.7794 36.5 17.3978 36.5 17C36.5 16.6022 36.6581 16.2207 36.9394 15.9394C37.2207 15.658 37.6022 15.5 38 15.5H56C56.3979 15.5 56.7794 15.658 57.0607 15.9394C57.342 16.2207 57.5 16.6022 57.5 17C57.5 17.3978 57.342 17.7794 57.0607 18.0607C56.7794 18.342 56.3979 18.5 56 18.5Z" fill="#76B95B"/>
</g>
<defs>
<clipPath id="clip0_1114_5">
<rect width="64" height="64" fill="white"/>
</clipPath>
</defs>
</svg>
