<svg width="64" height="64" viewBox="0 0 64 64" fill="none" xmlns="http://www.w3.org/2000/svg">
<g clip-path="url(#clip0_1114_14)">
<path d="M32 33.167C34.8537 33.167 37.167 30.8537 37.167 28C37.167 25.1463 34.8537 22.833 32 22.833C29.1464 22.833 26.833 25.1463 26.833 28C26.833 30.8537 29.1464 33.167 32 33.167Z" fill="#76B95B"/>
<path d="M32 14.5C28.5388 14.5 25.1554 15.5264 22.2775 17.4493C19.3997 19.3722 17.1566 22.1053 15.8321 25.303C14.5076 28.5007 14.161 32.0194 14.8363 35.4141C15.5115 38.8088 17.1782 41.927 19.6256 44.3744C22.0731 46.8218 25.1913 48.4885 28.5859 49.1637C31.9806 49.839 35.4993 49.4924 38.697 48.1679C41.8947 46.8434 44.6278 44.6003 46.5507 41.7225C48.4736 38.8446 49.5 35.4612 49.5 32C49.4947 27.3603 47.6493 22.9122 44.3685 19.6315C41.0878 16.3507 36.6397 14.5053 32 14.5ZM42.0083 41.3418C41.663 41.5394 41.2533 41.5918 40.8694 41.4874C40.4854 41.383 40.1587 41.1304 39.9609 40.7852C39.1586 39.3822 37.9998 38.2161 36.6017 37.4051C35.2037 36.5941 33.6162 36.167 32 36.167C30.3838 36.167 28.7963 36.5941 27.3983 37.4051C26.0003 38.2161 24.8414 39.3822 24.0391 40.7852C23.9412 40.9561 23.8107 41.1061 23.6548 41.2266C23.499 41.3471 23.321 41.4357 23.1309 41.4874C22.9408 41.5391 22.7425 41.5528 22.5471 41.5279C22.3517 41.5029 22.1631 41.4396 21.9922 41.3418C21.8212 41.2439 21.6712 41.1134 21.5508 40.9576C21.4303 40.8017 21.3416 40.6237 21.29 40.4336C21.2383 40.2436 21.2245 40.0452 21.2495 39.8498C21.2745 39.6544 21.3377 39.4659 21.4356 39.2949C22.6891 37.1231 24.5828 35.3914 26.8577 34.3366C25.5466 33.2738 24.5969 31.8309 24.1394 30.2064C23.6818 28.5818 23.7388 26.8554 24.3026 25.2645C24.8663 23.6737 25.9091 22.2966 27.2875 21.3227C28.6659 20.3488 30.3122 19.8259 32 19.8259C33.6878 19.8259 35.3341 20.3488 36.7125 21.3227C38.0909 22.2966 39.1337 23.6737 39.6975 25.2645C40.2612 26.8554 40.3182 28.5818 39.8607 30.2064C39.4031 31.8309 38.4534 33.2738 37.1423 34.3366C39.4172 35.3914 41.3109 37.1231 42.5645 39.2949C42.7621 39.6401 42.8145 40.0497 42.7102 40.4335C42.6059 40.8174 42.3535 41.1441 42.0083 41.3418Z" fill="#76B95B"/>
<path d="M7.94671 51.9629H7.4258H4.00002C3.6685 51.9629 3.35056 52.0946 3.11614 52.329C2.88172 52.5634 2.75002 52.8814 2.75002 53.2129C2.75002 53.5444 2.88172 53.8624 3.11614 54.0968C3.35056 54.3312 3.6685 54.4629 4.00002 54.4629H10.7862C11.0333 54.4625 11.2747 54.3889 11.4799 54.2514C11.6852 54.114 11.8453 53.9189 11.9398 53.6906C12.0343 53.4624 12.0592 53.2112 12.0112 52.9689C11.9632 52.7265 11.8445 52.5038 11.6701 52.3288C7.6496 48.3081 4.91161 43.1854 3.80238 37.6086C2.69313 32.0317 3.26252 26.251 5.43856 20.9977C7.6146 15.7444 11.2996 11.2543 16.0275 8.09522C20.7554 4.93616 26.3138 3.25001 32 3.25C32.3315 3.25 32.6495 3.1183 32.8839 2.88388C33.1183 2.64946 33.25 2.33152 33.25 2C33.25 1.66848 33.1183 1.35054 32.8839 1.11612C32.6495 0.881704 32.3316 0.750009 32.0001 0.75L7.94671 51.9629ZM7.94671 51.9629L7.62084 51.5565M7.94671 51.9629L7.62084 51.5565M7.62084 51.5565C3.93627 46.9614 1.62511 41.4187 0.953731 35.5672C0.282352 29.7156 1.27808 23.7935 3.82616 18.4833C6.37423 13.1731 10.3709 8.69092 15.3556 5.55344C20.3403 2.41597 26.1101 0.75085 32 0.75L7.62084 51.5565ZM47.38 49.1475L47.3799 49.1474C47.2638 49.0314 47.1717 48.8936 47.1089 48.742C47.046 48.5903 47.0137 48.4278 47.0137 48.2637C47.0137 48.0995 47.046 47.937 47.1089 47.7854C47.1717 47.6337 47.2638 47.496 47.3799 47.38L47.3799 47.3799C50.4216 44.338 52.493 40.4625 53.3322 36.2434C54.1713 32.0243 53.7405 27.6511 52.0943 23.6768C50.4481 19.7026 47.6604 16.3057 44.0836 13.9157C40.5069 11.5258 36.3018 10.2501 32 10.25C31.6685 10.25 31.3506 10.1183 31.1161 9.88388C30.8817 9.64946 30.75 9.33152 30.75 9C30.75 8.66848 30.8817 8.35054 31.1161 8.11612C31.3506 7.8817 31.6685 7.75 32 7.75C36.7962 7.75003 41.4847 9.17229 45.4726 11.8369C49.4605 14.5016 52.5686 18.2889 54.4041 22.72C56.2395 27.1511 56.7197 32.027 55.7841 36.731C54.8484 41.435 52.5388 45.756 49.1474 49.1474L49.1474 49.1475C49.0314 49.2636 48.8936 49.3557 48.742 49.4185C48.5903 49.4813 48.4278 49.5137 48.2637 49.5137C48.0995 49.5137 47.937 49.4813 47.7854 49.4185C47.6338 49.3557 47.496 49.2636 47.38 49.1475ZM16.6201 16.6201L16.7969 16.7969L16.6201 16.6201C13.5784 19.662 11.507 23.5375 10.6679 27.7566C9.82872 31.9757 10.2595 36.3489 11.9057 40.3232C13.5519 44.2975 16.3397 47.6943 19.9164 50.0843C23.4932 52.4742 27.6983 53.7499 32 53.75C32.3315 53.75 32.6495 53.8817 32.8839 54.1161C33.1183 54.3506 33.25 54.6685 33.25 55C33.25 55.3315 33.1183 55.6495 32.8839 55.8839C32.6495 56.1183 32.3315 56.25 32 56.25C27.2038 56.25 22.5153 54.8277 18.5275 52.1631C14.5396 49.4985 11.4314 45.7111 9.59597 41.28C7.76054 36.8489 7.28029 31.973 8.21596 27.269C9.15163 22.565 11.4612 18.244 14.8526 14.8526C15.087 14.6182 15.4049 14.4865 15.7363 14.4865C16.0678 14.4865 16.3857 14.6182 16.6201 14.8526C16.8545 15.0869 16.9862 15.4049 16.9862 15.7363C16.9862 16.0678 16.8545 16.3857 16.6201 16.6201Z" fill="#849592" stroke="#F7FCF5" stroke-width="0.5"/>
</g>
<defs>
<clipPath id="clip0_1114_14">
<rect width="64" height="64" fill="white"/>
</clipPath>
</defs>
</svg>
