<svg width="64" height="64" viewBox="0 0 64 64" fill="none" xmlns="http://www.w3.org/2000/svg">
<path d="M59.9998 24H47.4998V17C47.4993 16.7077 47.4134 16.4219 47.2527 16.1778C47.092 15.9336 46.8636 15.7416 46.5954 15.6254C46.3272 15.5092 46.0308 15.4739 45.7428 15.5237C45.4548 15.5735 45.1876 15.7063 44.9739 15.9058L28.974 30.9058C28.8243 31.0461 28.7051 31.2157 28.6236 31.4039C28.5421 31.5922 28.5 31.7951 28.5 32.0003C28.5 32.2054 28.5421 32.4084 28.6236 32.5966C28.7051 32.7849 28.8243 32.9544 28.974 33.0948L44.9739 48.0948C45.1876 48.2942 45.4549 48.4269 45.7429 48.4766C46.031 48.5263 46.3273 48.4909 46.5954 48.3747C46.8636 48.2584 47.0921 48.0665 47.2527 47.8223C47.4134 47.5781 47.4992 47.2923 47.4998 47V40H59.9998C60.3976 40 60.7792 39.842 61.0605 39.5607C61.3418 39.2794 61.4998 38.8978 61.4998 38.5V25.5C61.4998 25.1022 61.3418 24.7207 61.0605 24.4394C60.7792 24.1581 60.3976 24 59.9998 24Z" fill="#76B95B"/>
<path d="M46 10.0254H46C45.8358 10.0254 45.6733 9.9931 45.5216 9.93029C45.3699 9.86749 45.2321 9.77542 45.1161 9.65934C45 9.54327 44.9079 9.40546 44.8451 9.2538C44.7823 9.10213 44.75 8.93958 44.75 8.77543V8.77471C44.743 6.20337 44.7483 5.0252 44.7508 4.47239L44.7511 4.40426C44.7522 4.1495 44.7526 4.03747 44.7491 3.97918C44.7468 3.94077 44.7422 3.91148 44.733 3.87937C44.7309 3.87188 44.7295 3.86743 44.7285 3.86414C44.7267 3.85811 44.726 3.85597 44.7239 3.84611L44.6704 3.59688L44.4222 3.65527L13.4427 10.9446L13.25 10.99V11.188V52.8115V53.0095L13.4427 53.0549L44.4222 60.3447L44.6704 60.4031L44.7239 60.1539C44.7276 60.1365 44.7274 60.1403 44.7339 60.1166C44.7427 60.0847 44.7471 60.0554 44.7494 60.0169C44.7529 59.9574 44.7525 59.8441 44.7513 59.5883L44.751 59.5192C44.7484 58.9646 44.743 57.7874 44.75 55.2253V55.2246C44.75 54.8931 44.8817 54.5751 45.1161 54.3407C45.3505 54.1063 45.6685 53.9746 46 53.9746C46.3315 53.9746 46.6495 54.1063 46.8839 54.3407C47.1183 54.5751 47.25 54.8931 47.25 55.2246V59.9997C47.249 60.8614 46.9062 61.6875 46.2969 62.2969C45.6875 62.9062 44.8614 63.249 43.9997 63.25H6.0003C5.13859 63.249 4.31247 62.9062 3.70314 62.2969C3.09385 61.6876 2.75108 60.8615 2.75 59.9998V4.00016C2.75108 3.1385 3.09385 2.31243 3.70314 1.70314C4.31243 1.09385 5.1385 0.75108 6.00016 0.75H43.9987C44.8581 0.759258 45.6797 1.10477 46.2875 1.71253C46.8952 2.32024 47.2407 3.1418 47.25 4.00116V8.77539C47.25 8.93958 47.2177 9.10213 47.1549 9.2538C47.0921 9.40546 47 9.54327 46.8839 9.65934C46.7679 9.77542 46.6301 9.86749 46.4784 9.93029C46.3267 9.9931 46.1642 10.0254 46 10.0254ZM11.7135 8.78336L11.7135 8.78335L33.1337 3.74335L33.0764 3.25H6H5.99983C5.801 3.25014 5.61036 3.32918 5.46977 3.46977C5.32918 3.61036 5.25014 3.801 5.25 3.99983V4L5.25 60L5.25 60.0003C5.25026 60.1991 5.32932 60.3896 5.46986 60.5301C5.61039 60.6707 5.80093 60.7497 5.99968 60.75H6H33.0764L33.1337 60.2566L11.7135 55.2166C11.4393 55.1521 11.1949 54.9969 11.02 54.776C10.8451 54.5552 10.75 54.2817 10.75 54V10V9.99996C10.75 9.71826 10.8451 9.4448 11.02 9.22396C11.1949 9.00312 11.4393 8.84786 11.7135 8.78336ZM16.75 34V30C16.75 29.6685 16.8817 29.3505 17.1161 29.1161C17.3505 28.8817 17.6685 28.75 18 28.75C18.3315 28.75 18.6495 28.8817 18.8839 29.1161C19.1183 29.3505 19.25 29.6685 19.25 30V34C19.25 34.3315 19.1183 34.6495 18.8839 34.8839C18.6495 35.1183 18.3315 35.25 18 35.25C17.6685 35.25 17.3505 35.1183 17.1161 34.8839C16.8817 34.6495 16.75 34.3315 16.75 34Z" fill="#849592" stroke="#F7FCF5" stroke-width="0.5"/>
</svg>
