<svg width="64" height="64" viewBox="0 0 64 64" fill="none" xmlns="http://www.w3.org/2000/svg">
<g clip-path="url(#clip0_1114_28)">
<path d="M62.5273 2.38926L62.5272 2.38904C62.4733 2.16421 62.358 1.95876 62.1942 1.79556C62.0304 1.63235 61.8246 1.5178 61.5996 1.46465L61.5993 1.46459C61.2361 1.37837 56.5981 0.328948 50.4261 0.914323C44.2559 1.49952 36.5664 3.71679 30.0742 10.1499L30.0739 10.1503C28.731 11.4758 27.5304 12.9382 26.4917 14.5135L26.335 14.7511L26.1196 14.5651C24.2042 12.9108 21.8357 11.8704 19.3216 11.5791C16.8075 11.2877 14.2639 11.7588 12.0209 12.9312L12.0203 12.9315L8.04468 14.995L8.04371 14.9955C7.13902 15.46 6.35735 16.1324 5.7628 16.9575C5.16826 17.7826 4.77778 18.7369 4.6234 19.7421C4.46901 20.7473 4.55512 21.7748 4.87465 22.7403C5.19418 23.7058 5.73804 24.5818 6.46162 25.2964L6.46193 25.2967C6.65157 25.4847 6.89642 25.6069 7.1606 25.6456C7.42478 25.6842 7.6944 25.6373 7.92994 25.5115L7.92997 25.5115L15.7679 21.3289L15.7687 21.3285C16.4373 20.9749 17.201 20.8429 17.9495 20.9515C18.698 21.06 19.3927 21.4034 19.9334 21.9323L19.9346 21.9334L31.5622 33.4562L39.1048 40.9307L41.3725 43.1779L41.8885 43.6892L41.8992 43.6998C41.9106 43.7109 41.9219 43.7222 41.9332 43.7335M62.5273 2.38926L41.9332 43.7335M62.5273 2.38926C62.7061 3.1318 66.7549 20.7748 53.7594 33.6531L53.7591 33.6534C52.4249 34.9802 50.9566 36.1651 49.378 37.1891L49.1351 37.3466L49.3263 37.564C50.9874 39.4515 52.0332 41.8008 52.3242 44.2982C52.6152 46.7956 52.1375 49.3224 50.955 51.5413L50.9546 51.542L48.8719 55.4808L49.0926 55.5983M62.5273 2.38926L48.8716 55.4814M41.9332 43.7335L41.9348 43.7351C41.9342 43.7345 41.9337 43.734 41.9332 43.7335ZM41.9615 43.7615C41.9615 43.7615 41.9612 43.7615 41.9608 43.7615C41.9619 43.7627 41.963 43.7638 41.9641 43.7649M41.9615 43.7615L29.8983 9.97235C42.9881 -2.99838 60.9002 1.04166 61.657 1.22135C61.9271 1.28513 62.1741 1.42261 62.3707 1.61847C62.5672 1.81433 62.7056 2.0609 62.7703 2.33072C62.951 3.08072 67.034 20.8502 53.9354 33.8307C52.6486 35.1103 51.2383 36.2592 49.7252 37.2605C49.7174 37.2515 49.7095 37.2426 49.7017 37.2337L49.514 37.3988L49.6501 37.6086C49.6597 37.6024 49.6692 37.5961 49.6788 37.5899C51.2779 39.482 52.2854 41.8049 52.5725 44.2693C52.8694 46.8172 52.3821 49.3951 51.1756 51.6588L49.0926 55.5983M41.9615 43.7615L41.9619 43.7619L41.9641 43.7641C41.9641 43.7644 41.9641 43.7647 41.9641 43.7649M41.9615 43.7615L42.508 47.8016M41.9641 43.7649C41.9635 43.8891 41.9191 43.9696 41.862 44.0217C42.2808 44.4855 42.5546 45.0638 42.6468 45.6849C42.7487 46.3716 42.623 47.0728 42.2889 47.6813M41.9641 43.7649C42.4629 44.2793 42.7887 44.9379 42.8941 45.6482C43.004 46.3888 42.8685 47.1449 42.5082 47.8012L42.5085 47.8007L42.2889 47.6813M42.2889 47.6813L38.0682 55.4479M42.2889 47.6813L42.508 47.8016M38.0682 55.4479C37.9133 55.7332 37.8552 56.0611 37.9026 56.3823C37.9499 56.7035 38.1002 57.0007 38.3309 57.2291C39.0821 57.9734 39.9969 58.5317 41.0023 58.8595C42.0077 59.1873 43.0758 59.2755 44.1214 59.117C45.1669 58.9586 46.161 58.5579 47.0241 57.9469C47.8872 57.336 48.5956 56.5317 49.0926 55.5983M38.0682 55.4479L38.2878 55.5673L38.2879 55.5672M38.0682 55.4479L38.2879 55.5672M49.0926 55.5983L48.8716 55.4814M48.8716 55.4814C48.3929 56.3802 47.7108 57.1546 46.8797 57.7429C46.0483 58.3313 45.0909 58.7172 44.0839 58.8698C43.0769 59.0224 42.0482 58.9375 41.0798 58.6218C40.1115 58.3061 39.2304 57.7684 38.5068 57.0515C38.3146 56.8611 38.1894 56.6135 38.1499 56.3458C38.1104 56.0782 38.1588 55.8049 38.2879 55.5672M48.8716 55.4814L42.508 47.8016M38.2879 55.5672L42.508 47.8016M41.7064 43.8608C41.7126 43.8668 41.7183 43.8726 41.7238 43.878L41.8023 43.7981C41.7697 43.8126 41.7362 43.8327 41.7064 43.8608ZM14.5911 19.1236L14.5921 19.123C15.7298 18.5095 17.0348 18.2788 18.3139 18.465C19.593 18.6513 20.778 19.2447 21.6935 20.1572L21.694 20.1577L23.0067 21.4588L23.3168 21.7662L23.4249 21.3431C23.7948 19.8953 24.3157 18.4903 24.9789 17.1512L25.0598 16.9879L24.929 16.8609C23.3986 15.375 21.4383 14.4098 19.3275 14.1027C17.2166 13.7955 15.0626 14.1621 13.1721 15.1502L9.19859 17.2126C9.1984 17.2127 9.19821 17.2128 9.19802 17.2129C8.72934 17.4524 8.31337 17.7833 7.97467 18.1862C7.63583 18.5892 7.38118 19.0561 7.22576 19.5592C7.07034 20.0622 7.01731 20.5914 7.06979 21.1153C7.12227 21.6392 7.2792 22.1473 7.53132 22.6096L7.64993 22.8271L7.86848 22.7105L14.5911 19.1236ZM27.2046 19.1102L26.9464 18.8544L26.7998 19.187C26.1529 20.6551 25.7176 22.2075 25.5069 23.7978L25.4906 23.9209L25.5787 24.0083L39.7828 38.0835L39.8696 38.1694L39.9907 38.1538C41.5943 37.9476 43.1613 37.518 44.6459 36.8775L44.9857 36.7309L44.7228 36.4704L27.2046 19.1102ZM46.6613 54.3128L48.7439 50.374L48.7443 50.3733C49.7393 48.5037 50.1075 46.3638 49.7947 44.2691C49.4819 42.1741 48.5044 40.235 47.0063 38.7375L46.8802 38.6114L46.72 38.6896C45.3676 39.349 43.9506 39.8666 42.4916 40.234L42.062 40.3422L42.3767 40.6541L43.6592 41.9247C43.6593 41.9248 43.6594 41.9249 43.6595 41.9249C44.5712 42.8341 45.1654 44.0131 45.3539 45.2868C45.5423 46.5606 45.3149 47.8613 44.7054 48.9956L41.0995 55.6293L40.9792 55.8506L41.2015 55.9692C42.1451 56.4728 43.2499 56.5813 44.2735 56.271C45.297 55.9606 46.1556 55.2568 46.6606 54.314L46.6613 54.3128ZM47.1803 35.3865L47.3193 35.5242L47.4864 35.4223C49.1256 34.4228 50.6408 33.2328 52.0003 31.8772C62.3497 21.621 60.8887 7.64149 60.2768 3.9268L60.2475 3.74945L60.0701 3.72066C56.33 3.11386 42.1994 1.6538 31.834 11.9252C30.4752 13.2625 29.2793 14.7559 28.2712 16.3742L28.1657 16.5435L28.3074 16.684L47.1803 35.3865ZM51.9994 18.5069L51.9995 18.5068C52.4357 18.0769 52.7821 17.5646 53.0185 16.9997C53.255 16.4347 53.3767 15.8284 53.3767 15.216C53.3767 14.6035 53.255 13.9972 53.0185 13.4323C52.7821 12.8673 52.4357 12.355 51.9995 11.9251L51.9994 11.925C51.1097 11.0492 49.9113 10.5583 48.6629 10.5583C47.4144 10.5583 46.216 11.0492 45.3264 11.925L45.3263 11.9251C44.8901 12.355 44.5437 12.8673 44.3073 13.4323C44.0709 13.9972 43.9492 14.6036 43.9492 15.216C43.9492 15.8284 44.0709 16.4347 44.3073 16.9996C44.5437 17.5646 44.8901 18.0769 45.3263 18.5068L45.3264 18.5069C46.216 19.3828 47.4144 19.8737 48.6629 19.8737C49.9113 19.8737 51.1097 19.3828 51.9994 18.5069ZM41.999 12.4707C42.3625 11.6011 42.8951 10.8125 43.5659 10.1504C44.9247 8.81194 46.7555 8.06167 48.6629 8.06167C50.5702 8.06167 52.4011 8.81194 53.7599 10.1504C54.4307 10.8125 54.9633 11.6011 55.3268 12.4707C55.6903 13.3403 55.8776 14.2734 55.8776 15.216C55.8776 16.1585 55.6903 17.0917 55.3268 17.9613C54.9633 18.8308 54.4307 19.6194 53.7599 20.2815C52.4009 21.6197 50.5702 22.3698 48.6629 22.3698C46.7557 22.3698 44.925 21.6198 43.566 20.2817C42.8952 19.6196 42.3625 18.8309 41.999 17.9613C41.6354 17.0917 41.4482 16.1585 41.4482 15.216C41.4482 14.2734 41.6354 13.3403 41.999 12.4707Z" fill="#849592" stroke="#F7FCF5" stroke-width="0.5"/>
<path d="M32.2061 40.3268C32.0269 40.0137 31.7409 39.7757 31.4004 39.6566C31.0599 39.5375 30.6878 39.5452 30.3525 39.6784C28.7695 40.3054 24.5742 41.7204 21.8731 41.7516C21.9092 39.0826 23.3331 34.9401 23.9629 33.3756C24.098 33.0415 24.1082 32.6699 23.9917 32.3288C23.8752 31.9878 23.6398 31.7001 23.3285 31.5184C23.0172 31.3368 22.6509 31.2733 22.2967 31.3396C21.9424 31.4059 21.6239 31.5976 21.3994 31.8795C21.1426 32.2008 15.1191 39.8434 15.1191 46.9713C15.1192 47.3691 15.2773 47.7506 15.5586 48.0319C15.8399 48.3132 16.2214 48.4712 16.6191 48.4713C23.7998 48.4713 31.5049 42.5084 31.8291 42.2545C32.1134 42.0323 32.308 41.7151 32.3772 41.361C32.4464 41.0069 32.3857 40.6397 32.2061 40.3268Z" fill="#76B95B"/>
<path d="M35.9492 43.985C35.6845 43.7937 35.3645 43.6941 35.038 43.7015C34.7115 43.7089 34.3964 43.8229 34.1406 44.026C34.0107 44.1276 21.4268 53.9742 11.9697 51.5621C9.54883 42.2135 19.4697 29.7545 19.5732 29.6266C19.7845 29.3644 19.9014 29.0387 19.9051 28.702C19.9089 28.3652 19.7992 28.037 19.5938 27.7702C19.3884 27.5034 19.0992 27.3134 18.7727 27.2308C18.4463 27.1483 18.1015 27.1779 17.7939 27.3151C17.0869 27.6305 0.488281 35.3454 0.488281 62.0123C0.488385 62.4101 0.646453 62.7916 0.927735 63.0729C1.20902 63.3542 1.59049 63.5122 1.98828 63.5123C29.7217 63.5123 36.2197 46.4391 36.4824 45.7125C36.5937 45.4058 36.6018 45.0711 36.5056 44.7593C36.4093 44.4475 36.214 44.1757 35.9492 43.985Z" fill="#76B95B"/>
</g>
<defs>
<clipPath id="clip0_1114_28">
<rect width="64" height="64" fill="white"/>
</clipPath>
</defs>
</svg>
