<svg width="64" height="64" viewBox="0 0 64 64" fill="none" xmlns="http://www.w3.org/2000/svg">
<g clip-path="url(#clip0_1114_36)">
<path d="M62.2154 42.879L52.6314 41.487L48.3454 32.8C48.2217 32.5488 48.03 32.3373 47.7922 32.1894C47.5544 32.0414 47.28 31.963 46.9999 31.963C46.7199 31.963 46.4454 32.0414 46.2077 32.1894C45.9699 32.3373 45.7782 32.5488 45.6544 32.8L41.3684 41.485L31.7844 42.877C31.5074 42.9172 31.2471 43.0342 31.0331 43.2147C30.8191 43.3951 30.6598 43.6319 30.5733 43.8981C30.4869 44.1644 30.4766 44.4496 30.5438 44.7213C30.611 44.9931 30.7529 45.2407 30.9534 45.436L37.8884 52.196L36.2504 61.744C36.2031 62.0199 36.2339 62.3036 36.3394 62.5629C36.4449 62.8222 36.6209 63.0468 36.8474 63.2113C37.0739 63.3758 37.342 63.4737 37.6212 63.4937C37.9004 63.5138 38.1797 63.4554 38.4274 63.325L47.0004 58.818L55.5734 63.325C55.8212 63.4551 56.1003 63.5133 56.3794 63.4931C56.6584 63.4729 56.9263 63.375 57.1526 63.2105C57.379 63.0461 57.5548 62.8216 57.6603 62.5624C57.7658 62.3033 57.7966 62.0198 57.7494 61.744L56.1114 52.2L63.0464 45.44C63.2476 45.2448 63.39 44.997 63.4575 44.725C63.525 44.4529 63.515 44.1674 63.4284 43.9007C63.3419 43.6341 63.1824 43.397 62.968 43.2164C62.7536 43.0358 62.4929 42.919 62.2154 42.879Z" fill="#76B95B"/>
<path d="M32.039 15.658V15.908H32.289H42.232C43.2851 15.9079 44.3255 16.1371 45.2809 16.5798C46.2364 17.0225 47.0839 17.668 47.7646 18.4714C48.4453 19.2748 48.9428 20.2169 49.2226 21.2321C49.5023 22.2473 49.5575 23.3112 49.3844 24.3499L48.6103 28.9976C47.8083 28.7102 46.944 28.6433 46.1081 28.8034L46.9176 23.9391C47.031 23.2586 46.9949 22.5616 46.8117 21.8964C46.6284 21.2313 46.3025 20.6141 45.8566 20.0877C45.4107 19.5613 44.8554 19.1384 44.2295 18.8483C43.6035 18.5582 42.9219 18.408 42.232 18.408H30.789C30.4575 18.408 30.1395 18.2763 29.9051 18.0419C29.6707 17.8075 29.539 17.4895 29.539 17.158V9.105V9.10469C29.5371 7.55253 28.9196 6.06449 27.8221 4.96694C26.7245 3.86939 25.2365 3.25194 23.6843 3.25H23.684C23.2199 3.25 22.7748 3.43438 22.4466 3.76257C22.1184 4.09076 21.934 4.53588 21.934 5V9.57854C21.9301 11.6652 21.188 13.6831 19.839 15.275C18.49 16.867 16.6212 17.9302 14.5635 18.2765L14.355 18.3116V18.523V45.974V46.224H14.605H27.6263C27.9009 46.8723 28.2572 47.3297 28.6636 47.7489C28.8519 47.9431 29.0527 48.1307 29.2582 48.3228C29.2892 48.3518 29.3204 48.381 29.3517 48.4102C29.4599 48.5116 29.5699 48.6154 29.6817 48.724H14.451H14.2631L14.2109 48.9044C14.0156 49.5784 13.6075 50.1711 13.0474 50.5939C12.4876 51.0165 11.8061 51.2467 11.1047 51.25C11.1044 51.25 11.1041 51.25 11.1039 51.25L4 51.25C3.13805 51.25 2.3114 50.9076 1.7019 50.2981C1.09241 49.6886 0.75 48.8619 0.75 48V16.629C0.75 15.767 1.09241 14.9404 1.7019 14.3309C2.3114 13.7214 3.13805 13.379 4 13.379H11.1107C11.7886 13.3814 12.4487 13.5963 12.9981 13.9934C13.5477 14.3906 13.9589 14.9501 14.1739 15.5933L14.2452 15.8065L14.4648 15.7582C15.8732 15.448 17.1338 14.6667 18.0382 13.5433C18.9426 12.4199 19.4367 11.0216 19.439 9.5794V9.579V5.005C19.439 3.87783 19.8868 2.79683 20.6838 1.9998C21.4808 1.20282 22.5617 0.755063 23.6888 0.755005C25.9022 0.758912 28.0238 1.63992 29.589 3.20504C31.1541 4.77022 32.0352 6.89195 32.039 9.10544V15.658ZM11.855 48V47.466V16.629C11.855 16.4301 11.776 16.2393 11.6353 16.0987C11.4947 15.958 11.3039 15.879 11.105 15.879H4C3.80109 15.879 3.61032 15.958 3.46967 16.0987C3.32902 16.2393 3.25 16.4301 3.25 16.629V48C3.25 48.1989 3.32902 48.3897 3.46967 48.5303C3.61032 48.671 3.80109 48.75 4 48.75H11.105C11.3039 48.75 11.4947 48.671 11.6353 48.5303C11.776 48.3897 11.855 48.1989 11.855 48Z" fill="#849592" stroke="#F7FCF5" stroke-width="0.5"/>
</g>
<defs>
<clipPath id="clip0_1114_36">
<rect width="64" height="64" fill="white"/>
</clipPath>
</defs>
</svg>
