<svg width="64" height="64" viewBox="0 0 64 64" fill="none" xmlns="http://www.w3.org/2000/svg">
<g clip-path="url(#clip0_1114_39)">
<path d="M32 36.5C34.4853 36.5 36.5 34.4853 36.5 32C36.5 29.5147 34.4853 27.5 32 27.5C29.5147 27.5 27.5 29.5147 27.5 32C27.5 34.4853 29.5147 36.5 32 36.5Z" fill="#76B95B"/>
<path d="M32 15.5C28.7366 15.5 25.5465 16.4677 22.8331 18.2808C20.1197 20.0938 18.0048 22.6707 16.756 25.6857C15.5071 28.7007 15.1804 32.0183 15.8171 35.219C16.4537 38.4197 18.0252 41.3597 20.3327 43.6673C22.6403 45.9748 25.5803 47.5463 28.781 48.183C31.9817 48.8196 35.2993 48.4929 38.3143 47.244C41.3293 45.9952 43.9062 43.8803 45.7193 41.1669C47.5323 38.4535 48.5 35.2634 48.5 32C48.4951 27.6254 46.7551 23.4315 43.6618 20.3382C40.5685 17.2449 36.3746 15.5049 32 15.5ZM32 39.5C30.5166 39.5 29.0666 39.0601 27.8332 38.236C26.5999 37.4119 25.6386 36.2406 25.0709 34.8701C24.5033 33.4997 24.3547 31.9917 24.6441 30.5368C24.9335 29.082 25.6478 27.7456 26.6967 26.6967C27.7456 25.6478 29.082 24.9335 30.5368 24.6441C31.9917 24.3547 33.4997 24.5032 34.8701 25.0709C36.2406 25.6386 37.4119 26.5999 38.236 27.8332C39.0601 29.0666 39.5 30.5166 39.5 32C39.4978 33.9885 38.707 35.8949 37.3009 37.3009C35.8949 38.707 33.9885 39.4978 32 39.5ZM44 33.5C43.803 33.5 43.6079 33.4613 43.4259 33.3859C43.2439 33.3105 43.0786 33.2 42.9393 33.0607C42.8 32.9214 42.6895 32.7561 42.6141 32.5741C42.5388 32.3921 42.5 32.197 42.5 32C42.4968 29.2162 41.3895 26.5474 39.4211 24.5789C37.4527 22.6105 34.7838 21.5032 32 21.5C31.6022 21.5 31.2207 21.342 30.9393 21.0607C30.658 20.7794 30.5 20.3978 30.5 20C30.5 19.6022 30.658 19.2206 30.9393 18.9393C31.2207 18.658 31.6022 18.5 32 18.5C35.5792 18.5041 39.0106 19.9277 41.5415 22.4586C44.0723 24.9894 45.4959 28.4208 45.5 32C45.5 32.197 45.4613 32.3921 45.3859 32.5741C45.3105 32.7561 45.2 32.9214 45.0607 33.0607C44.9214 33.2 44.7561 33.3105 44.5741 33.3859C44.3921 33.4613 44.197 33.5 44 33.5Z" fill="#76B95B"/>
<path d="M7.9028 56.0971L7.90289 56.0972C8.01892 56.2133 8.15669 56.3054 8.30832 56.3682C8.45996 56.431 8.62249 56.4634 8.78662 56.4634C8.95075 56.4634 9.11328 56.431 9.26492 56.3682C9.41655 56.3054 9.55432 56.2133 9.67035 56.0972L9.67039 56.0972L11.7916 53.9759L7.9028 56.0971ZM7.9028 56.0971C7.78671 55.9811 7.69462 55.8433 7.63179 55.6917C7.56896 55.5401 7.53662 55.3775 7.53662 55.2134C7.53662 55.0492 7.56896 54.8867 7.63179 54.7351C7.69462 54.5835 7.78671 54.4457 7.9028 54.3297L7.90285 54.3296M7.9028 56.0971L7.90285 54.3296M7.90285 54.3296L10.0241 52.2084M7.90285 54.3296L10.0241 52.2084M52.2084 53.9759L54.3296 56.0972C54.564 56.3316 54.8819 56.4632 55.2134 56.4632C55.5449 56.4632 55.8628 56.3316 56.0972 56.0972C56.3316 55.8628 56.4632 55.5449 56.4632 55.2134C56.4632 54.8819 56.3316 54.564 56.0972 54.3296L53.9759 52.2084L52.2084 53.9759ZM52.2084 53.9759L52.208 53.9756C51.9746 53.7411 51.8437 53.4235 51.844 53.0927C51.8444 52.7616 51.976 52.4442 52.2101 52.2101C52.4442 51.976 52.7616 51.8444 53.0927 51.844C53.4235 51.8437 53.7411 51.9746 53.9756 52.208L52.2084 53.9759ZM10.0241 52.2084C10.2586 51.9747 10.5763 51.8437 10.9074 51.844C11.2384 51.8444 11.5558 51.976 11.7899 52.2101C12.024 52.4442 12.1556 52.7616 12.156 53.0927C12.1563 53.4235 12.0254 53.7411 11.792 53.9756L10.0241 52.2084ZM0.812402 32.3893L0.812221 32.3888C0.72926 32.1362 0.72926 31.8638 0.812221 31.6112L0.812401 31.6107C0.842341 31.5188 2.70185 26.0456 7.52666 20.5998C12.3462 15.1599 20.1206 9.75 32 9.75C43.8794 9.75 51.6538 15.1599 56.4733 20.5998C61.2981 26.0456 63.1576 31.5188 63.1876 31.6107L63.1878 31.6112C63.2707 31.8638 63.2707 32.1362 63.1878 32.3888L63.1876 32.3893C63.1576 32.4812 61.2981 37.9544 56.4733 43.4002C51.6538 48.8401 43.8794 54.25 32 54.25C20.1206 54.25 12.3462 48.8401 7.52666 43.4002C2.70185 37.9544 0.842341 32.4812 0.812402 32.3893ZM3.35882 31.9119L3.32562 32L3.35881 32.0881C4.52484 35.1838 11.717 51.75 32 51.75C52.2806 51.75 59.4732 35.1882 60.6412 32.0881L60.6744 32L60.6412 31.9119C59.4732 28.8118 52.2806 12.25 32 12.25C11.7194 12.25 4.52676 28.8118 3.35882 31.9119ZM30.75 5.00004V5V2C30.75 1.66848 30.8817 1.35054 31.1161 1.11612C31.3505 0.881696 31.6685 0.75 32 0.75C32.3315 0.75 32.6495 0.881696 32.8839 1.11612C33.1183 1.35054 33.25 1.66848 33.25 2V5C33.25 5.16419 33.2177 5.32674 33.1549 5.47841C33.0921 5.63007 33 5.76788 32.8839 5.88395C32.7679 6.00003 32.6301 6.0921 32.4784 6.1549C32.3267 6.21771 32.1642 6.25003 32 6.25H32C31.8358 6.25003 31.6733 6.21771 31.5216 6.1549C31.3699 6.0921 31.2321 6.00002 31.116 5.88395C31 5.76788 30.9079 5.63007 30.8451 5.47841C30.7823 5.32674 30.75 5.16419 30.75 5.00004ZM32 63.25H32C31.8358 63.25 31.6733 63.2177 31.5216 63.1549C31.3699 63.0921 31.2321 63 31.116 62.8839C31 62.7679 30.9079 62.6301 30.8451 62.4784C30.7823 62.3267 30.75 62.1642 30.75 62V59C30.75 58.6685 30.8817 58.3505 31.1161 58.1161C31.3505 57.8817 31.6685 57.75 32 57.75C32.3315 57.75 32.6495 57.8817 32.8839 58.1161C33.1183 58.3505 33.25 58.6685 33.25 59V62C33.25 62.1642 33.2177 62.3267 33.1549 62.4784C33.0921 62.6301 33 62.7679 32.8839 62.8839C32.7679 63 32.6301 63.0921 32.4784 63.1549C32.3267 63.2177 32.1642 63.25 32 63.25ZM52.2081 11.792L52.208 11.7919C52.0919 11.6759 51.9998 11.5381 51.937 11.3865C51.8741 11.2349 51.8418 11.0723 51.8418 10.9082C51.8418 10.7441 51.8741 10.5815 51.937 10.4299C51.9998 10.2783 52.0919 10.1405 52.208 10.0245L52.208 10.0244L54.3296 7.90285C54.4457 7.78679 54.5834 7.69473 54.7351 7.63191C54.8867 7.5691 55.0492 7.53678 55.2134 7.53678C55.3775 7.53678 55.54 7.5691 55.6917 7.63191C55.8433 7.69472 55.9811 7.78679 56.0972 7.90285C56.2132 8.01891 56.3053 8.15669 56.3681 8.30833C56.4309 8.45996 56.4632 8.62249 56.4632 8.78662C56.4632 8.95075 56.4309 9.11328 56.3681 9.26491C56.3053 9.41655 56.2132 9.55433 56.0972 9.67039L53.9756 11.792L53.9755 11.792C53.8595 11.9081 53.7217 12.0002 53.5701 12.063C53.4185 12.1259 53.2559 12.1582 53.0918 12.1582C52.9277 12.1582 52.7651 12.1259 52.6135 12.063C52.4619 12.0002 52.3241 11.9081 52.2081 11.792ZM10.0241 11.7916L7.90285 9.67039C7.78679 9.55433 7.69473 9.41655 7.63191 9.26491C7.5691 9.11328 7.53678 8.95075 7.53678 8.78662C7.53678 8.62249 7.5691 8.45996 7.63191 8.30832C7.69473 8.15669 7.78679 8.01891 7.90285 7.90285C8.01891 7.78679 8.15669 7.69473 8.30832 7.63191C8.45996 7.5691 8.62249 7.53678 8.78662 7.53678C8.95075 7.53678 9.11328 7.5691 9.26491 7.63191C9.41655 7.69473 9.55433 7.78679 9.67039 7.90285L11.7916 10.0241C12.0253 10.2586 12.1563 10.5763 12.156 10.9074C12.1556 11.2384 12.024 11.5558 11.7899 11.7899C11.5558 12.024 11.2384 12.1556 10.9074 12.156C10.5763 12.1563 10.2586 12.0253 10.0241 11.7916Z" fill="#849592" stroke="#F7FCF5" stroke-width="0.5"/>
</g>
<defs>
<clipPath id="clip0_1114_39">
<rect width="64" height="64" fill="white"/>
</clipPath>
</defs>
</svg>
